<svg width="22" height="23" viewBox="0 0 22 23" fill="none" xmlns="http://www.w3.org/2000/svg">
<path fill-rule="evenodd" clip-rule="evenodd" d="M3.93329 10.4077L11.7584 2.58174C12.0431 2.29697 12.0431 1.83528 11.7583 1.55054L11.2427 1.03497C10.9579 0.75023 10.4962 0.750255 10.2115 1.03503L0.261492 10.9861C-0.0232496 11.2709 -0.0232234 11.7326 0.26155 12.0173L10.2126 21.9673C10.4974 22.252 10.9591 22.252 11.2438 21.9672L11.7594 21.4516C12.0441 21.1668 12.0441 20.7052 11.7593 20.4204L3.93324 12.5952L20.9801 12.5942C21.3828 12.5942 21.7093 12.2677 21.7092 11.865L21.7092 11.1359C21.7092 10.7332 21.3827 10.4067 20.98 10.4067L3.93329 10.4077Z" fill="white"/>
</svg>
