<svg width="134" height="57" viewBox="0 0 134 57" fill="none" xmlns="http://www.w3.org/2000/svg">
<g clip-path="url(#clip0_0_864)">
<path d="M130.204 38.1376C130.09 38.1696 129.97 38.1747 129.854 38.1525C129.738 38.1302 129.629 38.0813 129.536 38.0095L128.341 37.1074C128.257 37.0496 128.185 36.9754 128.131 36.8893C128.076 36.8031 128.039 36.7067 128.022 36.606C128.006 36.5052 128.01 36.4021 128.034 36.3029C128.059 36.2037 128.103 36.1104 128.165 36.0287C128.226 35.9469 128.304 35.8784 128.392 35.8272C128.481 35.776 128.579 35.7432 128.681 35.7308C128.782 35.7184 128.885 35.7266 128.984 35.755C129.082 35.7833 129.174 35.8312 129.253 35.8958L130.459 36.8049C130.571 36.8907 130.656 37.0057 130.706 37.137C130.755 37.2683 130.768 37.4108 130.741 37.5488C130.715 37.6868 130.651 37.8148 130.556 37.9187C130.461 38.0227 130.339 38.0984 130.204 38.1376ZM124.04 33.7485C123.934 33.7789 123.824 33.7861 123.716 33.7698C123.607 33.7536 123.504 33.7141 123.413 33.6542C122.576 33.1065 121.728 32.5699 120.869 32.0447C120.773 31.9983 120.688 31.9324 120.62 31.8511C120.551 31.7699 120.501 31.6751 120.471 31.573C120.442 31.471 120.435 31.3638 120.449 31.2586C120.464 31.1534 120.501 31.0524 120.558 30.9622C120.614 30.8721 120.689 30.7948 120.777 30.7353C120.866 30.6759 120.966 30.6356 121.071 30.6171C121.175 30.5987 121.283 30.6024 121.386 30.6282C121.49 30.6539 121.586 30.701 121.67 30.7665C122.538 31.2985 123.395 31.8451 124.243 32.4061C124.411 32.5162 124.528 32.6882 124.569 32.8846C124.61 33.0809 124.571 33.2855 124.461 33.4535C124.357 33.599 124.206 33.704 124.033 33.7504L124.04 33.7485ZM116.213 29.1191C116.023 29.1725 115.819 29.1503 115.645 29.0572C114.76 28.5883 113.868 28.1298 112.968 27.6816C112.806 27.5836 112.686 27.4286 112.633 27.2471C112.58 27.0656 112.597 26.8707 112.68 26.7007C112.764 26.5308 112.908 26.3981 113.085 26.3288C113.261 26.2595 113.458 26.2586 113.635 26.3262C114.546 26.7664 115.455 27.2459 116.353 27.7249C116.53 27.8197 116.662 27.9809 116.721 28.173C116.779 28.3652 116.758 28.5726 116.663 28.7496C116.616 28.8391 116.551 28.9181 116.473 28.9819C116.395 29.0458 116.304 29.0931 116.207 29.121L116.213 29.1191ZM108.002 25.1944C107.834 25.2413 107.655 25.2306 107.495 25.1639C106.57 24.7694 105.643 24.3896 104.713 24.0247C104.538 23.9428 104.401 23.7975 104.329 23.6182C104.258 23.439 104.257 23.2391 104.328 23.0593C104.398 22.8794 104.535 22.7329 104.709 22.6495C104.884 22.5661 105.084 22.552 105.268 22.6101C106.217 22.9837 107.161 23.3692 108.1 23.7665C108.245 23.8277 108.367 23.9323 108.449 24.0657C108.532 24.1991 108.57 24.3548 108.56 24.5113C108.55 24.6678 108.492 24.8174 108.393 24.9394C108.294 25.0614 108.16 25.1499 108.008 25.1926L108.002 25.1944ZM99.4771 22.0064C99.3317 22.0483 99.1771 22.046 99.0331 22C98.078 21.6865 97.118 21.3884 96.153 21.1058C95.9617 21.0474 95.8013 20.9161 95.7068 20.7403C95.6122 20.5645 95.5911 20.3585 95.648 20.1671C95.7049 19.9756 95.8352 19.8142 96.0107 19.7179C96.1861 19.6216 96.3924 19.5982 96.5848 19.6528C97.5653 19.9404 98.5403 20.2459 99.5099 20.5692C99.6637 20.62 99.7972 20.7186 99.8907 20.8506C99.9843 20.9827 100.033 21.1411 100.03 21.3029C100.026 21.4646 99.971 21.6211 99.8721 21.7495C99.7732 21.8778 99.6358 21.9713 99.4799 22.0161L99.4771 22.0064ZM90.7104 19.5698C90.5863 19.6059 90.455 19.6083 90.3298 19.5768C89.3486 19.3524 88.3665 19.1411 87.3835 18.9429C87.186 18.9032 87.0125 18.7867 86.9013 18.6192C86.79 18.4517 86.7501 18.2469 86.7903 18.0498C86.8305 17.8527 86.9475 17.6795 87.1155 17.5683C87.2836 17.4571 87.489 17.4169 87.6865 17.4567C88.6794 17.6567 89.6764 17.8708 90.6773 18.0989C90.8415 18.1365 90.9883 18.2276 91.0948 18.3577C91.2012 18.4879 91.2612 18.6497 91.2652 18.8177C91.2693 18.9858 91.2172 19.1505 91.1172 19.2859C91.0171 19.4213 90.8748 19.5197 90.7127 19.5657L90.7104 19.5698ZM81.7575 17.9212C81.6558 17.9501 81.5493 17.9578 81.4446 17.9439C80.4509 17.8071 79.4538 17.6829 78.4534 17.5713C78.2614 17.5401 78.0888 17.4366 77.9713 17.282C77.8538 17.1275 77.8003 16.9338 77.8219 16.7409C77.8435 16.5479 77.9385 16.3705 78.0873 16.2452C78.2361 16.1199 78.4273 16.0563 78.6215 16.0675C79.6356 16.1775 80.6478 16.3056 81.6563 16.4452C81.83 16.467 81.9906 16.5482 82.1107 16.6751C82.2309 16.802 82.3031 16.9666 82.315 17.1408C82.327 17.315 82.2779 17.4881 82.1762 17.6304C82.0746 17.7728 81.9265 17.8756 81.7575 17.9212ZM2.28055 40.5676C2.1137 40.6138 1.93613 40.6017 1.77727 40.5334C1.6184 40.4652 1.48777 40.3447 1.40702 40.1921C1.32627 40.0395 1.30024 39.8639 1.33326 39.6944C1.36627 39.5248 1.45634 39.3716 1.58854 39.2599C2.37197 38.6097 3.16558 37.9706 3.96938 37.3426C4.04706 37.275 4.13771 37.2238 4.23579 37.1922C4.33388 37.1606 4.43735 37.1493 4.53992 37.1588C4.64249 37.1684 4.742 37.1987 4.83239 37.2479C4.92279 37.297 5.00218 37.364 5.06574 37.4448C5.1293 37.5256 5.17568 37.6185 5.20208 37.7178C5.22848 37.8171 5.23434 37.9208 5.21929 38.0225C5.20425 38.1242 5.16862 38.2218 5.11457 38.3094C5.06053 38.397 4.9892 38.4727 4.90492 38.5319C4.1135 39.1541 3.33134 39.7841 2.55843 40.4219C2.47134 40.4859 2.37178 40.531 2.2662 40.5542L2.28055 40.5676ZM9.53347 35.0677C9.35939 35.1195 9.17259 35.1073 9.00693 35.0334C8.84127 34.9596 8.70772 34.8289 8.63048 34.6651C8.55325 34.5013 8.53745 34.3152 8.58595 34.1406C8.63445 33.966 8.74403 33.8144 8.89483 33.7133C9.73888 33.1403 10.588 32.5729 11.445 32.0207C11.5287 31.9653 11.6227 31.9271 11.7214 31.9086C11.8202 31.8901 11.9216 31.8915 12.0197 31.9129C12.1178 31.9342 12.2105 31.975 12.2924 32.0329C12.3743 32.0907 12.4437 32.1644 12.4965 32.2496C12.6046 32.4188 12.641 32.624 12.5975 32.8202C12.554 33.0163 12.4342 33.1873 12.2645 33.2956C11.4219 33.8367 10.5839 34.3939 9.75705 34.9655C9.68856 35.0115 9.61304 35.046 9.53347 35.0677ZM72.6806 17.0569C72.5998 17.0802 72.5155 17.0888 72.4316 17.0823C71.4318 17.0348 70.425 16.9997 69.4229 16.9807C69.2215 16.9767 69.0301 16.8934 68.8903 16.749C68.7506 16.6046 68.6738 16.4108 68.6768 16.2099C68.6845 16.0103 68.7696 15.8214 68.9142 15.683C69.0587 15.5445 69.2513 15.4674 69.4515 15.4677C70.4741 15.4843 71.4925 15.5231 72.5103 15.5725C72.6898 15.5815 72.8603 15.6536 72.9913 15.7762C73.1223 15.8987 73.2054 16.0637 73.2259 16.2418C73.2463 16.4199 73.2027 16.5996 73.1029 16.7489C73.003 16.8981 72.8534 17.0073 72.6806 17.0569ZM17.2679 30.2601C17.0887 30.3132 16.8962 30.2986 16.7273 30.219C16.5583 30.1394 16.4249 30.0004 16.3525 29.8286C16.2801 29.6568 16.2737 29.4643 16.3347 29.2879C16.3957 29.1116 16.5198 28.9638 16.6831 28.8728C17.572 28.371 18.472 27.8836 19.3748 27.4059C19.5548 27.3151 19.7632 27.298 19.9555 27.3583C20.1477 27.4186 20.3086 27.5515 20.4038 27.7286C20.4962 27.9069 20.5141 28.1145 20.4536 28.3061C20.3931 28.4977 20.2593 28.6578 20.0811 28.7515C19.1885 29.2158 18.308 29.6977 17.4381 30.2046C17.3841 30.2305 17.3269 30.2492 17.2679 30.2601ZM63.5719 17.0171C63.5144 17.0351 63.4546 17.0451 63.3943 17.0467C62.3916 17.0874 61.387 17.1462 60.3824 17.205C60.2829 17.2125 60.1829 17.2003 60.0881 17.1692C59.9934 17.1382 59.9057 17.0887 59.8302 17.0238C59.7546 16.9589 59.6927 16.8797 59.6478 16.7908C59.603 16.7019 59.5762 16.6051 59.569 16.5058C59.56 16.3061 59.6281 16.1104 59.7593 15.9591C59.8905 15.8077 60.0749 15.7123 60.2743 15.6924C61.2924 15.6193 62.3104 15.5625 63.3284 15.5221C63.5123 15.5168 63.6918 15.5783 63.8335 15.6952C63.9752 15.812 64.0694 15.9763 64.0987 16.1574C64.128 16.3386 64.0904 16.5243 63.9928 16.68C63.8952 16.8357 63.7444 16.9509 63.5682 17.0041L63.5719 17.0171ZM25.3824 26.1455C25.1991 26.1947 25.0042 26.1737 24.8359 26.0867C24.6676 25.9997 24.5381 25.8529 24.473 25.6753C24.4078 25.4977 24.4117 25.3021 24.4839 25.127C24.5561 24.9519 24.6913 24.81 24.863 24.7292C25.7953 24.306 26.7332 23.9023 27.6748 23.5115C27.768 23.4654 27.8696 23.4389 27.9734 23.4336C28.0772 23.4283 28.181 23.4443 28.2783 23.4806C28.3756 23.517 28.4643 23.5729 28.539 23.6448C28.6137 23.7168 28.6728 23.8033 28.7126 23.899C28.7524 23.9947 28.772 24.0976 28.7703 24.2013C28.7686 24.3049 28.7456 24.4072 28.7027 24.5017C28.6598 24.5962 28.598 24.6809 28.5209 24.7506C28.4439 24.8204 28.3534 24.8736 28.255 24.907C27.3134 25.2978 26.4056 25.6965 25.4909 26.1076C25.456 26.1236 25.4197 26.1363 25.3824 26.1455ZM54.4842 17.8147C54.4506 17.8277 54.4158 17.8376 54.3804 17.8443C53.3987 17.9793 52.4063 18.1221 51.4033 18.2726C51.3046 18.2898 51.2034 18.2874 51.1057 18.2655C51.008 18.2436 50.9156 18.2026 50.8339 18.1448C50.7522 18.0871 50.6828 18.0138 50.6297 17.9292C50.5766 17.8445 50.5408 17.7502 50.5244 17.6516C50.495 17.4529 50.5439 17.2504 50.6608 17.0866C50.7777 16.9228 50.9535 16.8104 51.1515 16.773C52.1579 16.6099 53.1684 16.4608 54.1828 16.3257C54.371 16.3038 54.5605 16.3529 54.7141 16.4633C54.8677 16.5737 54.9743 16.7375 55.0129 16.9225C55.0515 17.1074 55.0194 17.3002 54.9229 17.463C54.8264 17.6258 54.6724 17.7468 54.4912 17.8022L54.4842 17.8147ZM33.8509 22.7561C33.7557 22.7862 33.6556 22.7973 33.5562 22.7888C33.4569 22.7803 33.3602 22.7524 33.2717 22.7066C33.1832 22.6608 33.1046 22.598 33.0405 22.5219C32.9763 22.4458 32.9279 22.3578 32.8978 22.263C32.8678 22.1681 32.8568 22.0683 32.8655 21.9691C32.8741 21.87 32.9023 21.7734 32.9483 21.6851C32.9944 21.5967 33.0574 21.5183 33.1338 21.4542C33.2102 21.3901 33.2985 21.3416 33.3936 21.3115C34.3509 20.9757 35.3127 20.6562 36.2783 20.3495C36.4698 20.2962 36.6742 20.3168 36.8509 20.4072C37.0276 20.4976 37.1635 20.6512 37.2316 20.8374C37.2915 21.0232 37.2775 21.225 37.1925 21.4011C37.1074 21.5771 36.9577 21.7139 36.7745 21.783C35.8151 22.0867 34.8611 22.4052 33.9125 22.7385L33.8509 22.7561ZM45.5317 19.4067L45.4862 19.4197C44.4958 19.6389 43.5303 19.872 42.5556 20.1218C42.3611 20.1744 42.1538 20.1478 41.9792 20.0479C41.8046 19.948 41.6771 19.783 41.6246 19.5891C41.5722 19.3952 41.5991 19.1883 41.6995 19.014C41.7999 18.8397 41.9655 18.7122 42.16 18.6596L42.1795 18.654C43.1607 18.4024 44.1456 18.1638 45.1588 17.9381C45.2555 17.9135 45.3561 17.9082 45.4548 17.9224C45.5535 17.9366 45.6484 17.9701 45.7341 18.0209C45.8198 18.0717 45.8946 18.1389 45.9542 18.2186C46.0139 18.2982 46.0572 18.3889 46.0816 18.4853C46.1061 18.5818 46.1113 18.6821 46.0969 18.7806C46.0825 18.8791 46.0488 18.9738 45.9978 19.0594C45.9467 19.1449 45.8793 19.2196 45.7993 19.2792C45.7193 19.3388 45.6284 19.3822 45.5317 19.4067Z" fill="#CAD3E1"/>
<path d="M129.385 30.7555C129.256 30.7305 129.123 30.7449 129.002 30.7967C128.882 30.8485 128.78 30.9354 128.71 31.046L123.5 38.9873C123.436 39.0974 123.404 39.2234 123.408 39.3508C123.412 39.4781 123.453 39.6016 123.524 39.7068C123.596 39.8121 123.697 39.8948 123.814 39.9453C123.931 39.9958 124.06 40.012 124.187 39.9922L130.771 38.6129C130.828 38.6037 130.883 38.5879 130.937 38.5658C131.065 38.4981 131.168 38.391 131.231 38.2603C131.293 38.1296 131.312 37.9823 131.284 37.8402L129.913 31.2771C129.886 31.1481 129.821 31.0299 129.727 30.9372C129.634 30.8445 129.515 30.7813 129.385 30.7555Z" fill="#CAD3E1"/>
</g>
<defs>
<clipPath id="clip0_0_864">
<rect width="129.501" height="49.0255" fill="white" transform="translate(-4.54651 31.9683) rotate(-15.9045)"/>
</clipPath>
</defs>
</svg>
