<svg width="33" height="76" viewBox="0 0 33 76" fill="none" xmlns="http://www.w3.org/2000/svg">
<g clip-path="url(#clip0_0_1243)">
<g clip-path="url(#clip1_0_1243)">
<path d="M31.0303 72.1426C31.0517 72.0542 31.052 71.9622 31.0309 71.8738C31.0098 71.7854 30.9679 71.7032 30.9087 71.6336L30.1637 70.7456C30.1158 70.6827 30.0553 70.63 29.9861 70.5907C29.9168 70.5514 29.8401 70.5262 29.7605 70.5168C29.681 70.5074 29.6003 70.5138 29.5233 70.5358C29.4463 70.5578 29.3746 70.5948 29.3125 70.6447C29.2503 70.6946 29.1991 70.7562 29.1617 70.826C29.1244 70.8957 29.1018 70.9721 29.0953 71.0506C29.0888 71.129 29.0985 71.2079 29.1238 71.2825C29.1492 71.3571 29.1896 71.4258 29.2427 71.4846L29.9936 72.3819C30.0644 72.4646 30.1572 72.5264 30.2617 72.5603C30.3662 72.5943 30.4784 72.5992 30.5857 72.5744C30.693 72.5496 30.7914 72.4962 30.8698 72.42C30.9483 72.3438 31.0038 72.2478 31.0303 72.1426ZM27.3945 67.5503C27.4149 67.4686 27.4171 67.3834 27.4009 67.3008C27.3847 67.2182 27.3505 67.1401 27.3007 67.0718C26.8448 66.4467 26.3973 65.813 25.9584 65.1705C25.919 65.0985 25.8646 65.0354 25.7988 64.9854C25.7329 64.9354 25.657 64.8997 25.5761 64.8804C25.4951 64.8611 25.4109 64.8588 25.3289 64.8736C25.2469 64.8885 25.1689 64.92 25.1 64.9663C25.0311 65.0126 24.9729 65.0726 24.9291 65.1424C24.8852 65.2122 24.8568 65.2902 24.8457 65.3713C24.8345 65.4525 24.8409 65.535 24.8643 65.6135C24.8878 65.692 24.9278 65.7647 24.9817 65.827C25.4263 66.4761 25.8819 67.1171 26.3485 67.7501C26.4401 67.8755 26.5787 67.96 26.7339 67.985C26.8891 68.01 27.0483 67.9735 27.1765 67.8835C27.2873 67.7991 27.3648 67.6795 27.3957 67.5453L27.3945 67.5503ZM23.5176 61.6895C23.5535 61.5414 23.5296 61.3856 23.4511 61.2547C23.0555 60.5905 22.6678 59.92 22.288 59.2434C22.2061 59.1221 22.0808 59.0354 21.9368 59.0004C21.7928 58.9654 21.6405 58.9847 21.51 59.0544C21.3794 59.1241 21.2799 59.2392 21.2312 59.377C21.1824 59.5149 21.1879 59.6655 21.2466 59.7992C21.6205 60.4851 22.0251 61.1676 22.4291 61.8418C22.509 61.9749 22.6395 62.0712 22.792 62.1095C22.9445 62.1479 23.1064 62.1252 23.2422 62.0464C23.3108 62.0076 23.3707 61.9555 23.4183 61.8932C23.4659 61.831 23.5001 61.76 23.5189 61.6844L23.5176 61.6895ZM20.1811 55.5099C20.2125 55.3796 20.1984 55.2428 20.1411 55.1215C19.8026 54.4243 19.4755 53.7246 19.16 53.0222C19.0902 52.8903 18.972 52.7896 18.8292 52.7404C18.6864 52.6912 18.5297 52.6972 18.3909 52.7572C18.2522 52.8172 18.1416 52.9268 18.0818 53.0636C18.0219 53.2004 18.0172 53.3544 18.0686 53.4942C18.3915 54.2108 18.7236 54.9233 19.0648 55.6317C19.1174 55.7408 19.2032 55.831 19.3104 55.89C19.4175 55.949 19.5408 55.9738 19.6632 55.961C19.7856 55.9482 19.901 55.8984 19.9935 55.8185C20.086 55.7386 20.1511 55.6326 20.1798 55.515L20.1811 55.5099ZM17.4121 49.0662C17.4403 48.9531 17.4336 48.8345 17.393 48.7253C17.117 48.002 16.853 47.2743 16.6009 46.5424C16.5491 46.3973 16.441 46.2784 16.3002 46.2115C16.1595 46.1445 15.9973 46.135 15.849 46.1849C15.7007 46.2347 15.5783 46.3401 15.5083 46.4779C15.4384 46.6157 15.4266 46.775 15.4755 46.9209C15.732 47.6646 16.0023 48.4035 16.2865 49.1377C16.3311 49.2543 16.4127 49.3536 16.5191 49.4211C16.6256 49.4887 16.7514 49.5209 16.878 49.5131C17.0047 49.5053 17.1257 49.4579 17.2232 49.3778C17.3207 49.2977 17.3896 49.1891 17.4198 49.068L17.4121 49.0662ZM15.2246 42.4122C15.2489 42.3157 15.2466 42.2148 15.218 42.1196C15.011 41.3734 14.8143 40.626 14.6278 39.8774C14.5904 39.727 14.4936 39.5976 14.3588 39.5175C14.2239 39.4375 14.0621 39.4135 13.9089 39.4507C13.7557 39.4879 13.6236 39.5834 13.5417 39.716C13.4598 39.8487 13.4349 40.0077 13.4723 40.1581C13.6605 40.9142 13.8599 41.6729 14.0704 42.4343C14.1051 42.5591 14.1811 42.669 14.2865 42.7465C14.3919 42.8241 14.5206 42.8649 14.6525 42.8626C14.7844 42.8603 14.9118 42.8149 15.0148 42.7337C15.1178 42.6525 15.1905 42.5401 15.2214 42.4141L15.2246 42.4122ZM13.6488 35.5898C13.6682 35.5107 13.6709 35.4287 13.6567 35.3487C13.518 34.59 13.3891 33.8283 13.27 33.0636C13.2394 32.9171 13.1528 32.788 13.0279 32.7027C12.9031 32.6175 12.7495 32.5827 12.599 32.6055C12.4484 32.6283 12.3123 32.7069 12.2188 32.8252C12.1253 32.9436 12.0815 33.0925 12.0964 33.2413C12.2147 34.0165 12.3471 34.7897 12.4885 35.5597C12.5111 35.6924 12.5799 35.8131 12.6831 35.9013C12.7864 35.9895 12.9177 36.0396 13.0547 36.0432C13.1916 36.0467 13.3258 36.0034 13.4341 35.9208C13.5425 35.8381 13.6184 35.7211 13.6488 35.5898ZM12.684 28.6468C12.6997 28.584 12.7038 28.519 12.6961 28.4548C12.6271 27.6885 12.5678 26.9164 12.5212 26.1474C12.5117 25.9929 12.4403 25.8486 12.3227 25.7459C12.205 25.6432 12.0507 25.5905 11.8933 25.5993C11.7371 25.6117 11.5917 25.6832 11.4877 25.7986C11.3838 25.9141 11.3294 26.0645 11.336 26.2183C11.3814 27.0031 11.444 27.7839 11.515 28.564C11.5276 28.7016 11.5896 28.8301 11.6898 28.9268C11.79 29.0234 11.922 29.0819 12.0623 29.0919C12.2026 29.1018 12.342 29.0625 12.4559 28.981C12.5697 28.8995 12.6506 28.7811 12.684 28.6468ZM12.3645 21.6528C12.3769 21.608 12.3828 21.5618 12.3821 21.5155C12.3823 20.7441 12.3966 19.9707 12.4109 19.1972C12.4136 19.1206 12.401 19.0442 12.3736 18.9724C12.3462 18.9006 12.3047 18.8349 12.2514 18.779C12.1981 18.7231 12.1341 18.678 12.063 18.6465C11.9919 18.6149 11.9151 18.5975 11.8371 18.5951C11.6802 18.5947 11.529 18.6533 11.4145 18.759C11.3 18.8646 11.231 19.0093 11.2217 19.1631C11.1966 19.9473 11.1843 20.731 11.1848 21.5141C11.1865 21.6555 11.2404 21.7913 11.3365 21.8964C11.4326 22.0014 11.5644 22.0685 11.7073 22.0851C11.8502 22.1018 11.9946 22.0669 12.1136 21.9869C12.2326 21.907 12.3181 21.7874 12.3543 21.6504L12.3645 21.6528ZM12.7022 14.6479C12.7114 14.6216 12.7181 14.5946 12.7221 14.5671C12.797 13.8089 12.8775 13.0421 12.9637 12.267C12.9741 12.1906 12.969 12.113 12.9487 12.0387C12.9285 11.9643 12.8934 11.8947 12.8455 11.8338C12.7977 11.773 12.738 11.722 12.67 11.684C12.602 11.6459 12.5269 11.6214 12.4491 11.612C12.2924 11.5959 12.1352 11.64 12.0105 11.735C11.8858 11.8301 11.8032 11.9688 11.7801 12.122C11.6841 12.9002 11.5992 13.681 11.5254 14.4645C11.5142 14.6097 11.5587 14.7537 11.6501 14.8681C11.7415 14.9825 11.8733 15.059 12.0195 15.0827C12.1658 15.1064 12.3159 15.0755 12.4404 14.9961C12.565 14.9167 12.6549 14.7946 12.6927 14.6536L12.7022 14.6479ZM13.667 7.72105L13.6757 7.68573C13.8162 6.91799 13.9684 6.16901 14.1333 5.41235C14.1684 5.26132 14.1411 5.10296 14.0572 4.9721C13.9734 4.84125 13.84 4.74863 13.6863 4.71461C13.5326 4.68058 13.3713 4.70795 13.2379 4.79069C13.1044 4.87343 13.0097 5.00476 12.9746 5.15579L12.9709 5.17093C12.8047 5.93263 12.6487 6.69675 12.5039 7.48215C12.4877 7.55721 12.4867 7.63462 12.5009 7.70997C12.5152 7.78532 12.5444 7.85713 12.587 7.9213C12.6295 7.98547 12.6845 8.04074 12.7489 8.08395C12.8133 8.12717 12.8857 8.15749 12.9621 8.17318C13.0384 8.18886 13.1173 8.18961 13.194 8.17538C13.2708 8.16114 13.344 8.13221 13.4094 8.09023C13.4749 8.04824 13.5313 7.99403 13.5755 7.93069C13.6197 7.86734 13.6508 7.79611 13.667 7.72105Z" fill="#CAD3E1"/>
<path d="M25.2173 71.7522C25.1936 71.6542 25.2006 71.5513 25.2374 71.4571C25.2742 71.3629 25.3391 71.2817 25.4236 71.2242L31.4843 66.9668C31.5685 66.9137 31.6662 66.885 31.7662 66.8842C31.8662 66.8834 31.9643 66.9104 32.0491 66.9622C32.1338 67.0141 32.2018 67.0885 32.2451 67.1769C32.2884 67.2653 32.3053 67.364 32.2937 67.4616L31.4208 72.5628C31.4154 72.6068 31.4047 72.65 31.3891 72.6915C31.3401 72.7923 31.2594 72.875 31.1589 72.9273C31.0584 72.9797 30.9436 72.9989 30.8313 72.982L25.6429 72.1406C25.5409 72.124 25.4462 72.0784 25.3705 72.0093C25.2949 71.9403 25.2416 71.8509 25.2173 71.7522Z" fill="#CAD3E1"/>
</g>
</g>
<defs>
<clipPath id="clip0_0_1243">
<rect width="76" height="33" fill="white" transform="translate(33) rotate(90)"/>
</clipPath>
<clipPath id="clip1_0_1243">
<rect width="99.6958" height="38.4073" fill="white" transform="matrix(-0.239519 0.970892 0.973431 0.228982 21.9297 -31.1438)"/>
</clipPath>
</defs>
</svg>
