<?xml version="1.0" encoding="utf-8"?>
<!-- Generator: Adobe Illustrator 16.0.0, SVG Export Plug-In . SVG Version: 6.00 Build 0)  -->
<!DOCTYPE svg PUBLIC "-//W3C//DTD SVG 1.1//EN" "http://www.w3.org/Graphics/SVG/1.1/DTD/svg11.dtd">
<svg version="1.1" id="Layer_1" xmlns="http://www.w3.org/2000/svg" xmlns:xlink="http://www.w3.org/1999/xlink" x="0px" y="0px"
	 width="115px" height="115px" viewBox="-1.083 -1.083 115 115" enable-background="new -1.083 -1.083 115 115"
	 xml:space="preserve">
<g>
	<path d="M56.417,0C25.309,0,0,25.308,0,56.417s25.309,56.417,56.417,56.417s56.416-25.31,56.416-56.417S87.525,0,56.417,0z
		 M79.2,80.17c-0.191,0.804-0.683,1.488-1.385,1.926c-4.416,2.729-9.475,4.171-14.628,4.171c-12.132,0-22.929-7.942-27.001-19.812
		H24.648c-1.709,0-3.1-1.391-3.1-3.1s1.391-3.1,3.1-3.1h10.094c-0.155-1.271-0.233-2.561-0.233-3.84c0-0.25,0.003-0.5,0.01-0.75
		h-9.87c-1.709,0-3.1-1.391-3.1-3.1s1.391-3.1,3.1-3.1h10.648c3.058-13.299,14.712-22.9,27.891-22.9
		c5.157,0,10.207,1.435,14.605,4.149c1.453,0.899,1.908,2.813,1.016,4.265c-0.571,0.924-1.561,1.476-2.645,1.476
		c-0.572,0-1.133-0.159-1.621-0.459c-3.424-2.114-7.351-3.23-11.355-3.23c-9.881,0-18.609,6.828-21.483,16.7h26.424
		c1.709,0,3.1,1.391,3.1,3.1s-1.391,3.1-3.1,3.1H40.72c-0.008,0.25-0.012,0.5-0.012,0.75c0,1.318,0.103,2.607,0.304,3.839h27.115
		c1.709,0,3.101,1.392,3.101,3.101s-1.392,3.101-3.101,3.101H42.835c3.707,8.297,11.604,13.609,20.353,13.609
		c4.003,0,7.934-1.121,11.365-3.24c0.488-0.306,1.054-0.468,1.632-0.468c1.087,0,2.071,0.552,2.636,1.476
		C79.254,78.53,79.391,79.362,79.2,80.17z"/>
	<path fill="#FFFFFF" d="M76.185,76.359c-0.578,0-1.144,0.162-1.632,0.468c-3.434,2.119-7.362,3.24-11.365,3.24
		c-8.748,0-16.646-5.313-20.353-13.609h25.292c1.709,0,3.101-1.392,3.101-3.101s-1.392-3.101-3.101-3.101H41.012
		c-0.201-1.232-0.304-2.521-0.304-3.839c0-0.25,0.004-0.5,0.012-0.75h27.407c1.709,0,3.101-1.391,3.101-3.1s-1.392-3.1-3.101-3.1
		H41.704c2.874-9.872,11.603-16.7,21.483-16.7c4.006,0,7.933,1.117,11.356,3.23c0.487,0.301,1.049,0.46,1.619,0.459
		c1.086,0,2.073-0.551,2.646-1.476c0.894-1.453,0.438-3.366-1.017-4.265c-4.397-2.714-9.447-4.149-14.604-4.149
		c-13.179,0-24.833,9.601-27.891,22.9H24.648c-1.709,0-3.1,1.391-3.1,3.1s1.391,3.1,3.1,3.1h9.87c-0.007,0.25-0.01,0.5-0.01,0.75
		c0,1.28,0.078,2.569,0.233,3.84H24.648c-1.709,0-3.1,1.391-3.1,3.1s1.391,3.1,3.1,3.1h11.538
		c4.072,11.869,14.869,19.812,27.001,19.812c5.153,0,10.212-1.442,14.628-4.171c0.702-0.438,1.193-1.122,1.385-1.926
		c0.19-0.809,0.055-1.641-0.38-2.336C78.256,76.911,77.271,76.359,76.185,76.359z"/>
</g>
</svg>
