<svg width="38" height="38" viewBox="0 0 38 38" fill="none" xmlns="http://www.w3.org/2000/svg">
<path d="M16.625 33.0917C9.89583 31.9042 4.75 26.0458 4.75 19C4.75 11.1625 11.1625 4.75 19 4.75C26.8375 4.75 33.25 11.1625 33.25 19C33.25 26.0458 28.1042 31.9042 21.375 33.0917L20.5833 32.4583H17.4167L16.625 33.0917Z" fill="#0062E0"/>
<path d="M24.5417 22.9584L25.175 19H21.375V16.2292C21.375 15.1209 21.7708 14.25 23.5125 14.25H25.3333V10.6084C24.3042 10.45 23.1958 10.2917 22.1667 10.2917C18.9208 10.2917 16.625 12.2709 16.625 15.8334V19H13.0625V22.9584H16.625V33.0125C17.4167 33.1709 18.2083 33.25 19 33.25C19.7917 33.25 20.5833 33.1709 21.375 33.0125V22.9584H24.5417Z" fill="white"/>
</svg>
