<svg width="28" height="28" viewBox="0 0 28 28" fill="none" xmlns="http://www.w3.org/2000/svg">
<path d="M0.181763 9.45152C0.181763 6.17263 0.181763 4.53319 0.829988 3.2853C1.37624 2.23372 2.23366 1.3763 3.28524 0.830049C4.53313 0.181824 6.17257 0.181824 9.45146 0.181824H18.5484C21.8273 0.181824 23.4668 0.181824 24.7146 0.830049C25.7662 1.3763 26.6236 2.23372 27.1699 3.2853C27.8181 4.53319 27.8181 6.17263 27.8181 9.45152V18.5485C27.8181 21.8274 27.8181 23.4668 27.1699 24.7147C26.6236 25.7663 25.7662 26.6237 24.7146 27.17C23.4668 27.8182 21.8273 27.8182 18.5484 27.8182H9.45146C6.17257 27.8182 4.53313 27.8182 3.28524 27.17C2.23366 26.6237 1.37624 25.7663 0.829988 24.7147C0.181763 23.4668 0.181763 21.8274 0.181763 18.5485V9.45152Z" fill="url(#paint0_radial_73_48)"/>
<path d="M0.181763 9.45152C0.181763 6.17263 0.181763 4.53319 0.829988 3.2853C1.37624 2.23372 2.23366 1.3763 3.28524 0.830049C4.53313 0.181824 6.17257 0.181824 9.45146 0.181824H18.5484C21.8273 0.181824 23.4668 0.181824 24.7146 0.830049C25.7662 1.3763 26.6236 2.23372 27.1699 3.2853C27.8181 4.53319 27.8181 6.17263 27.8181 9.45152V18.5485C27.8181 21.8274 27.8181 23.4668 27.1699 24.7147C26.6236 25.7663 25.7662 26.6237 24.7146 27.17C23.4668 27.8182 21.8273 27.8182 18.5484 27.8182H9.45146C6.17257 27.8182 4.53313 27.8182 3.28524 27.17C2.23366 26.6237 1.37624 25.7663 0.829988 24.7147C0.181763 23.4668 0.181763 21.8274 0.181763 18.5485V9.45152Z" fill="url(#paint1_radial_73_48)"/>
<defs>
<radialGradient id="paint0_radial_73_48" cx="0" cy="0" r="1" gradientUnits="userSpaceOnUse" gradientTransform="translate(7.52271 29.9468) rotate(-90) scale(27.3897 25.4746)">
<stop stop-color="#FFDD55"/>
<stop offset="0.1" stop-color="#FFDD55"/>
<stop offset="0.5" stop-color="#FF543E"/>
<stop offset="1" stop-color="#C837AB"/>
</radialGradient>
<radialGradient id="paint1_radial_73_48" cx="0" cy="0" r="1" gradientUnits="userSpaceOnUse" gradientTransform="translate(-4.44747 2.1727) rotate(78.6806) scale(12.2433 50.4674)">
<stop stop-color="#3771C8"/>
<stop offset="0.128" stop-color="#3771C8"/>
<stop offset="1" stop-color="#6600FF" stop-opacity="0"/>
</radialGradient>
</defs>
</svg>
