<svg width="218" height="148" viewBox="0 0 218 148" fill="none" xmlns="http://www.w3.org/2000/svg">
<circle r="63.0123" transform="matrix(0.884952 -0.465682 0.884952 0.465682 108.652 93.8364)" fill="white" fill-opacity="0.08"/>
<ellipse cx="108.253" cy="90.0231" rx="53.1443" ry="33.7587" fill="#079A65"/>
<path d="M156.93 83.5277C156.974 69.0903 135.606 57.1974 108.489 57.1267C81.3715 57.0559 59.6214 69.5231 59.5769 83.9605C59.5325 98.398 81.0892 109.464 108.206 109.535C135.323 109.606 156.885 97.9652 156.93 83.5277Z" fill="#01AF70"/>
<path d="M153.507 82.6474C153.548 69.2269 133.685 58.1719 108.478 58.1061C83.2711 58.0403 63.0531 69.6293 63.0117 83.0497C62.9704 96.4702 83.0087 106.757 108.216 106.823C133.422 106.889 153.466 96.0679 153.507 82.6474Z" fill="#21DB98"/>
<path fill-rule="evenodd" clip-rule="evenodd" d="M126.6 95.0314C126.64 95.0081 126.681 94.9859 126.719 94.9616C126.741 94.9551 126.753 94.9428 126.77 94.932C128.484 93.9069 129.438 92.5825 129.459 91.1997L129.457 91.0601L129.449 91.0527C129.442 91.0227 129.434 90.9915 129.422 90.9615C129.367 90.826 129.251 90.6993 129.083 90.5922C128.915 90.485 128.702 90.401 128.46 90.3472L128.288 90.314C125.352 89.751 122.27 89.4457 119.165 89.4104C118.455 88.0577 118.099 86.6627 118.107 85.265C118.109 84.8273 118.145 84.3892 118.229 83.9503L118.22 83.942L118.235 83.9194C119.232 82.2291 120.789 80.6514 122.833 79.2596C124.138 79.2765 125.44 79.2174 126.716 79.0835C128.171 78.9323 129.581 78.6823 130.91 78.3395C130.919 78.3375 130.927 78.3349 130.935 78.3318C131.042 78.3051 131.147 78.2774 131.251 78.2486C131.473 78.1794 131.672 78.092 131.841 77.9895C132.255 77.7424 132.481 77.4216 132.477 77.0878C132.477 77.0021 132.461 76.9164 132.429 76.8321C132.261 76.6295 132.086 76.4292 131.903 76.2297C131.669 75.9656 131.422 75.7044 131.163 75.446C131.162 75.4427 131.159 75.4397 131.154 75.4376C130.501 74.7748 129.787 74.1245 129.013 73.4867L129.003 73.4783C128.7 73.2288 128.387 72.9814 128.066 72.7362C127.836 72.5624 127.602 72.3897 127.366 72.2192C127.239 72.1603 127.102 72.108 126.957 72.0632C126.409 71.8932 125.767 71.8351 125.152 71.8998C124.898 71.9257 124.655 71.9727 124.43 72.0389C124.332 72.0687 124.234 72.0984 124.15 72.1353C124.15 72.1353 124.15 72.1353 124.136 72.1395C122.898 72.5771 121.772 73.0977 120.787 73.6887C119.93 74.2022 119.182 74.765 118.558 75.367C115.245 75.6023 111.87 75.5226 108.589 75.1316L108.547 75.1263L108.538 75.1179C107.777 74.9287 107.043 74.7312 106.323 74.5128C104.018 73.8178 101.899 72.9586 100.027 71.9595C101.521 70.5268 102.56 68.9694 103.101 67.3494C103.11 67.3269 103.119 67.3061 103.124 67.2849C103.168 67.1434 103.143 66.9977 103.051 66.8615C102.96 66.7253 102.805 66.6031 102.601 66.5066L102.5 66.4618L102.488 66.4513C102.402 66.4228 102.315 66.3959 102.226 66.3697C102.211 66.3644 102.195 66.3599 102.178 66.3564C100.548 65.8748 98.72 65.6206 96.8686 65.6182C96.1504 65.6182 95.4351 65.6553 94.7328 65.7289C94.7112 65.7354 94.6817 65.7346 94.6567 65.7379C94.6486 65.7392 94.6413 65.7415 94.6351 65.7445C94.5839 65.7502 94.5368 65.7547 94.4867 65.7615C94.396 65.7791 94.3153 65.8084 94.2517 65.8469C94.2397 65.8539 94.2287 65.8615 94.219 65.8694C94.1961 65.889 94.1744 65.9096 94.1526 65.9302C93.9203 66.1464 93.7047 66.3678 93.5062 66.5943C92.6837 67.5118 92.1523 68.4974 91.933 69.5119C91.8183 70.0879 91.8046 70.6692 91.8923 71.2484C89.2541 73.1061 85.828 74.6048 81.8849 75.626C81.8674 75.6306 81.8504 75.6358 81.834 75.6415C81.7987 75.6522 81.7671 75.666 81.7406 75.6824C81.6778 75.7221 81.6473 75.7737 81.6558 75.8258C81.6642 75.8781 81.711 75.9268 81.7859 75.9614L81.7963 75.9709L81.8506 75.9894C83.7956 76.6557 85.6462 77.3977 87.387 78.2091C87.4981 78.258 87.6034 78.3087 87.7106 78.3588C95.3192 81.9496 100.536 86.7506 102.555 92.0208C103.018 93.2273 103.312 94.4489 103.434 95.6755L103.444 95.7077C103.463 95.7591 103.52 95.8048 103.602 95.8348C103.683 95.8647 103.784 95.8766 103.88 95.8679C103.92 95.8641 103.958 95.8569 103.993 95.8464C104.01 95.8418 104.027 95.8366 104.043 95.8309C107.696 94.5455 111.877 93.7342 116.254 93.461C117.164 93.7912 118.129 94.0756 119.136 94.3102C120.909 94.7247 122.793 94.9826 124.713 95.0736C125.187 95.0964 125.659 95.1084 126.134 95.1112C126.149 95.112 126.164 95.1122 126.179 95.1116L126.254 95.1111C126.259 95.1106 126.263 95.1095 126.266 95.1075C126.286 95.1071 126.305 95.1058 126.325 95.1038C126.427 95.0926 126.522 95.0676 126.6 95.0314ZM123.573 76.4312L123.592 76.4254C123.592 76.4254 123.582 76.4299 123.573 76.4312Z" fill="#038E5C"/>
<ellipse cx="108.253" cy="90.0231" rx="53.1443" ry="33.7587" fill="#B20743"/>
<path d="M156.93 83.5277C156.974 69.0903 135.606 57.1974 108.489 57.1267C81.3715 57.0559 59.6214 69.5231 59.5769 83.9605C59.5325 98.398 81.0892 109.464 108.206 109.535C135.323 109.606 156.885 97.9652 156.93 83.5277Z" fill="#CF0B50"/>
<path d="M153.507 82.6474C153.548 69.2269 133.685 58.1719 108.478 58.1061C83.2711 58.0403 63.0531 69.6293 63.0117 83.0497C62.9704 96.4702 83.0087 106.757 108.216 106.823C133.422 106.889 153.466 96.0679 153.507 82.6474Z" fill="#FF0960"/>
<path d="M100.57 80.2882L102.964 81.5602L104.661 80.6584L105.923 81.3292L107.89 80.2845L106.627 79.6137L112.919 76.2707L109.401 74.4012C104.716 74.896 101.977 75.2443 99.4107 75.6768L97.3478 76.7728L102.267 79.3864L100.57 80.2882ZM101.411 76.8645C103.757 76.4686 105.848 76.2157 108.807 75.9334L108.856 75.9591L104.213 78.426L101.342 76.9011L101.411 76.8645ZM110.035 85.3174L112.429 86.5894L114.127 85.6877L115.389 86.3585L117.355 85.3138L116.093 84.643L122.385 81.2999L118.866 79.4304C114.182 79.9253 111.443 80.2735 108.876 80.7061L106.813 81.8021L111.733 84.4157L110.035 85.3174ZM110.877 81.8937C113.223 81.4978 115.313 81.2449 118.273 80.9627L118.321 80.9883L113.678 83.4553L110.808 81.9304L110.877 81.8937Z" fill="white"/>
<ellipse cx="108.253" cy="90.0231" rx="53.1443" ry="33.7587" fill="#E28008"/>
<path d="M156.93 83.5277C156.974 69.0903 135.606 57.1974 108.489 57.1267C81.3715 57.0559 59.6214 69.5231 59.5769 83.9605C59.5325 98.398 81.0892 109.464 108.206 109.535C135.323 109.606 156.885 97.9652 156.93 83.5277Z" fill="#F88A03"/>
<path d="M153.507 82.6474C153.548 69.2269 133.685 58.1719 108.478 58.1061C83.2711 58.0403 63.0531 69.6293 63.0117 83.0497C62.9704 96.4702 83.0087 106.757 108.216 106.823C133.422 106.889 153.466 96.0679 153.507 82.6474Z" fill="#FF9F29"/>
<path d="M100.57 80.2882L102.964 81.5602L104.661 80.6584L105.923 81.3292L107.89 80.2845L106.627 79.6137L112.919 76.2707L109.401 74.4012C104.716 74.896 101.977 75.2443 99.4107 75.6768L97.3478 76.7728L102.267 79.3864L100.57 80.2882ZM101.411 76.8645C103.757 76.4686 105.848 76.2157 108.807 75.9334L108.856 75.9591L104.213 78.426L101.342 76.9011L101.411 76.8645ZM110.035 85.3174L112.429 86.5894L114.127 85.6877L115.389 86.3585L117.355 85.3138L116.093 84.643L122.385 81.2999L118.866 79.4304C114.182 79.9253 111.443 80.2735 108.876 80.7061L106.813 81.8021L111.733 84.4157L110.035 85.3174ZM110.877 81.8937C113.223 81.4978 115.313 81.2449 118.273 80.9627L118.321 80.9883L113.678 83.4553L110.808 81.9304L110.877 81.8937Z" fill="white"/>
<ellipse cx="108.253" cy="90.0231" rx="53.1443" ry="33.7587" fill="#829CC4"/>
<path d="M156.93 83.5277C156.974 69.0903 135.606 57.1974 108.489 57.1267C81.3715 57.0559 59.6214 69.5231 59.5769 83.9605C59.5325 98.398 81.0892 109.464 108.206 109.535C135.323 109.606 156.885 97.9652 156.93 83.5277Z" fill="#A1BDE6"/>
<path d="M153.507 82.6474C153.548 69.2269 133.685 58.1719 108.478 58.1061C83.2711 58.0403 63.0531 69.6293 63.0117 83.0497C62.9704 96.4702 83.0087 106.757 108.216 106.823C133.422 106.889 153.466 96.0679 153.507 82.6474Z" fill="#C3DAFC"/>
<path d="M100.57 80.2882L102.964 81.5602L104.661 80.6584L105.923 81.3292L107.89 80.2845L106.627 79.6137L112.919 76.2707L109.401 74.4012C104.716 74.896 101.977 75.2443 99.4107 75.6768L97.3478 76.7728L102.267 79.3864L100.57 80.2882ZM101.411 76.8645C103.757 76.4686 105.848 76.2157 108.807 75.9334L108.856 75.9591L104.213 78.426L101.342 76.9011L101.411 76.8645ZM110.035 85.3174L112.429 86.5894L114.127 85.6877L115.389 86.3585L117.355 85.3138L116.093 84.643L122.385 81.2999L118.866 79.4304C114.182 79.9253 111.443 80.2735 108.876 80.7061L106.813 81.8021L111.733 84.4157L110.035 85.3174ZM110.877 81.8937C113.223 81.4978 115.313 81.2449 118.273 80.9627L118.321 80.9883L113.678 83.4553L110.808 81.9304L110.877 81.8937Z" fill="#637CA3"/>
<g clip-path="url(#clip0_0_855)">
<path fill-rule="evenodd" clip-rule="evenodd" d="M116.002 103.574L154.387 85.5737C156.656 84.5098 156.748 81.2205 154.543 80.0231L131.486 67.5035L116.002 103.574Z" fill="url(#paint0_linear_0_855)"/>
<path d="M68.8013 83.8779L67.2629 33.9047L116.212 47.0035V65.7086L115.992 103.758L68.8013 83.8779Z" fill="#F22740"/>
<path d="M67.0532 45.4901L67.1831 33.9166L116.132 47.0051V59.9699L67.0532 45.4901Z" fill="#F22740"/>
<path d="M116.212 47.0051V59.9699L149.737 44.5111L149.966 33.8754L116.212 47.0051Z" fill="#BE1622"/>
<path d="M84.8346 50.7358L84.5149 38.5852L98.2305 42.2541V54.7242L84.8346 50.7358Z" fill="#FFDD00"/>
<path d="M129.758 54.1058L129.438 41.8625L140.316 37.6577V48.654L129.758 54.1058Z" fill="#D15700"/>
<path d="M115.832 103.77L116.212 59.9699L147.948 45.1294L147.179 83.7043L115.832 103.77Z" fill="#BE1622"/>
<path d="M67.6526 45.6756L67.7924 47.9532L116.212 63.0101V59.9184L67.6526 45.6756Z" fill="#BE1622"/>
<path d="M85.8735 50.9316L87.6517 91.8769L98.2306 96.3187L98.82 55.0952L85.8735 50.9316Z" fill="#FFDD00"/>
<path d="M98.73 57.5789L85.9933 53.5905L85.8834 51.0244L98.7799 54.8273L98.73 57.5789Z" fill="#D15700"/>
<path d="M128.888 54.4253L129.198 95.1851L139.347 88.713V49.025L128.888 54.4253Z" fill="#D15700"/>
<path d="M116.212 59.9699L147.958 45.1294L147.819 47.1906L116.212 63.0101V59.9699Z" fill="#991626"/>
<path d="M139.357 49.1178V51.3954L128.928 56.6823V54.0852L139.357 49.1178Z" fill="#AF4700"/>
<path d="M67.1831 33.9166L101.627 21.4877L149.976 33.9166L116.212 47.0051L67.1831 33.9166Z" fill="#FF3851"/>
<path d="M84.5249 38.5749L115.852 25.1772L128.838 28.5267L98.2305 42.1922L92.097 40.6979L84.5249 38.5749Z" fill="#FFDD00"/>
<path d="M80.629 29.042L129.438 41.8625L140.326 37.668L92.2369 24.8784L80.629 29.042Z" fill="#FFDD00"/>
<path d="M113.924 28.8565L119.778 31.1341C126.041 26.7953 140.356 19.2823 134.133 10.9758C133.571 10.1277 132.84 9.41311 131.989 8.87991C131.138 8.34672 130.187 8.00717 129.198 7.884C138.938 19.2823 119.089 24.8681 113.924 28.8565Z" fill="#D15700"/>
<path d="M105.473 31.2783L108.989 32.6593L110.268 31.0104C110.318 21.395 119.648 7.30686 128.069 6.60607C129.233 6.50147 130.404 6.67061 131.496 7.10075C131.496 7.10075 124.503 3.92654 123.674 3.74103C114.713 1.69016 105.513 20.8179 105.473 31.2783Z" fill="#FFDD00"/>
<path d="M110.268 31.0001L111.966 29.5263C111.966 20.7663 121.436 7.22442 129.118 7.98705C130.107 8.11023 131.058 8.44978 131.909 8.98297C132.76 9.51617 133.491 10.2307 134.053 11.0788C140.276 19.3853 125.062 27.7434 119.648 31.2783L120.837 31.639C127.7 27.9186 142.514 19.9213 135.242 10.3059C134.281 8.95062 132.988 7.88351 131.496 7.21411C130.41 6.76242 129.233 6.59256 128.069 6.71943C119.648 7.31717 110.318 21.4362 110.268 31.0001Z" fill="#FCAA32"/>
<path d="M110.368 34.3186L110.598 35.7511C110.598 35.7511 113.385 32.4841 119.588 31.773C125.792 31.0619 133.783 30.9176 140.276 24.7341V23.2397C140.276 23.2397 107.391 28.4648 110.368 34.3186Z" fill="#FCAA32"/>
<path d="M136.191 18.5506L136.73 20.1583L135.961 23.2501H135.092L136.191 18.5506Z" fill="#FCAA32"/>
<path d="M107.711 32.7933C107.711 32.7933 112.655 26.4964 122.535 24.9299C133.324 23.2294 136.191 18.5506 136.191 18.5506L135.092 23.2397H140.206C140.206 23.2397 134.213 28.7843 126.531 29.5469C117.91 30.3817 112.376 31.9482 110.318 34.3186L107.711 32.7933Z" fill="#FFDD00"/>
<path d="M98.9798 28.1969L96.2326 28.5988C95.873 24.8578 91.5276 21.5702 87.6816 18.3548C83.2063 14.6034 79.4203 10.9551 83.3362 7.0183C84.0029 6.24628 84.82 5.62792 85.7339 5.20352C86.6479 4.77911 87.6383 4.55821 88.6406 4.55519C79.8099 14.4282 100.528 19.9213 98.9798 28.1969Z" fill="#D15700"/>
<path d="M108.49 28.1866L104.144 29.887C105.423 20.3644 98.0607 5.256 89.8293 3.42155C88.6976 3.14354 87.5164 3.16125 86.3929 3.47308C86.3929 3.47308 93.8551 1.15426 94.6343 1.03059C103.775 0.206119 109.858 17.8189 108.49 28.1866Z" fill="#FFDD00"/>
<path d="M104.224 29.887L102.706 28.1866C103.825 19.509 96.3725 4.85407 88.6406 4.58611C87.6433 4.59018 86.6574 4.80645 85.7447 5.22139C84.832 5.63633 84.0121 6.24103 83.3362 6.99769C76.0638 14.4282 95.4535 20.5396 96.2327 28.6297L95.0839 29.3924C93.4856 21.8381 73.7263 14.6859 82.1874 6.05985C83.3232 4.82421 84.763 3.93011 86.353 3.47308C87.4765 3.16125 88.6576 3.14354 89.7894 3.42155C98.1107 5.15294 105.423 20.3644 104.224 29.887Z" fill="#FCAA32"/>
<path d="M107.121 34.0094L106.792 35.4419C106.792 35.4419 104.224 32.0307 98.1106 30.9176C91.4223 29.7842 84.807 28.232 78.3014 26.2697L78.3913 24.7341C78.651 24.7341 111.686 26.3624 107.121 34.0094Z" fill="#FCAA32"/>
<path d="M109.858 32.7005C109.858 32.7005 105.703 27.29 95.9529 25.0639C85.3041 22.6729 82.6968 20.282 82.6968 20.282L83.8357 24.26L78.3914 24.7341C82.5504 26.3265 86.8543 27.4832 91.2379 28.1866C99.7989 29.6191 105.223 31.536 107.121 34.0094L109.858 32.7005Z" fill="#FFDD00"/>
<path d="M82.6968 20.282L82.0575 21.7969L83.0564 24.3322L83.8756 24.26L82.6968 20.282Z" fill="#FCAA32"/>
<path d="M106.752 35.4316L108.4 36.0087L110.598 35.7408L110.368 34.3083L108.72 33.3704L107.121 34.0094L106.752 35.4316Z" fill="#FCAA32"/>
</g>
<defs>
<linearGradient id="paint0_linear_0_855" x1="124.493" y1="87.0846" x2="164.987" y2="82.2388" gradientUnits="userSpaceOnUse">
<stop stop-opacity="0.38"/>
<stop offset="1" stop-opacity="0.16"/>
</linearGradient>
<clipPath id="clip0_0_855">
<rect width="97.8974" height="104.089" fill="white" transform="translate(67.0532)"/>
</clipPath>
</defs>
</svg>
