<svg width="49" height="40" viewBox="0 0 49 40" fill="none" xmlns="http://www.w3.org/2000/svg">
<path fill-rule="evenodd" clip-rule="evenodd" d="M18.538 17.7427C17.9976 17.2797 17.1949 17.0346 16.1881 17.0353C15.4201 17.0358 14.7097 17.0982 14.1312 17.1736L14.1221 3.0741C14.3122 3.03925 14.5886 2.99566 14.9515 2.94333C15.3316 2.87363 15.7117 2.83864 16.0919 2.83838C16.472 2.83812 16.809 2.86392 17.1028 2.9158C17.4139 2.96767 17.6732 3.07164 17.8806 3.22774C18.0881 3.38384 18.2438 3.60073 18.3476 3.87841C18.4687 4.13873 18.5294 4.48588 18.5297 4.91988L18.538 17.7427ZM0.891844 3.03323C0.529033 3.08319 0.265179 3.13308 0.100283 3.1829L0.108865 17.1398C0.109391 17.9517 0.472663 18.6142 1.19868 19.1273C1.7267 19.508 2.37013 19.8224 3.12896 20.0704C3.8878 20.335 4.81149 20.4669 5.90002 20.4662C6.90608 20.4655 7.82135 20.3323 8.64582 20.0666C9.48678 19.7843 10.1957 19.3779 10.7726 18.8473C11.3495 18.3167 11.7944 17.6536 12.1072 16.8581C12.4366 16.046 12.6009 15.1015 12.6002 14.0245C12.5995 12.9806 12.4422 12.0612 12.1284 11.2661C11.8145 10.471 11.3852 9.80851 10.8406 9.27868C10.296 8.73228 9.66901 8.31849 8.95964 8.03731C8.25026 7.75612 7.49975 7.61581 6.70809 7.61635C6.26278 7.61666 5.85048 7.65009 5.47119 7.71663C5.10839 7.78315 4.72088 7.8994 4.30867 8.06538L4.30709 4.91973C4.30682 4.50551 4.25713 4.17416 4.15801 3.92569C4.05888 3.66066 3.91031 3.45365 3.7123 3.30467C3.51429 3.15568 3.26683 3.05644 2.96993 3.00694C2.68952 2.95742 2.36789 2.93279 2.00505 2.93304C1.62571 2.93331 1.25464 2.9667 0.891844 3.03323ZM7.65385 16.3641C7.24186 16.878 6.65653 17.1353 5.89786 17.1358C5.51852 17.1361 5.19689 17.1031 4.93296 17.037C4.68552 16.9544 4.47105 16.8551 4.28955 16.7393L4.28604 11.3212C4.56633 11.1885 4.8219 11.0889 5.05276 11.0224C5.30011 10.956 5.58872 10.9226 5.91857 10.9224C6.64426 10.9219 7.22167 11.1783 7.65082 11.6917C8.07997 12.205 8.29488 12.9836 8.29556 14.0275C8.29622 15.0547 8.08232 15.8336 7.65385 16.3641ZM42.0668 20.56C41.0472 20.5607 40.0967 20.4225 39.2153 20.1453C38.3511 19.8508 37.5905 19.4173 36.9335 18.8449C36.2937 18.2725 35.7835 17.5524 35.4028 16.6846C35.0393 15.8169 34.8572 14.8015 34.8565 13.6384C34.8557 12.4926 35.0365 11.5116 35.3989 10.6955C35.7785 9.86194 36.2706 9.18457 36.875 8.66335C37.4795 8.12478 38.1704 7.7337 38.9479 7.49012C39.7253 7.22919 40.5201 7.09844 41.3323 7.09788C42.2481 7.09724 43.0777 7.23555 43.8209 7.51279C44.5814 7.79003 45.2297 8.17149 45.7657 8.6572C46.3189 9.14289 46.7427 9.72416 47.0369 10.401C47.3484 11.0778 47.5044 11.8155 47.5049 12.6141C47.5052 13.2043 47.3414 13.6558 47.0133 13.9685C46.6852 14.2812 46.2273 14.4811 45.6399 14.5683L39.2382 15.5362C39.4287 16.109 39.8178 16.5427 40.4055 16.8374C40.9932 17.1148 41.6672 17.2532 42.4275 17.2527C43.136 17.2522 43.8012 17.1649 44.4232 16.9909C45.0624 16.7995 45.5807 16.5821 45.978 16.3388C46.2546 16.5122 46.488 16.7551 46.6783 17.0674C46.8686 17.3798 46.9639 17.7096 46.9641 18.0568C46.9646 18.8379 46.6021 19.4198 45.8766 19.8022C45.3238 20.0977 44.7018 20.2977 44.0107 20.4024C43.3196 20.507 42.6716 20.5596 42.0668 20.56ZM41.3344 10.3268C40.9197 10.3271 40.5568 10.3968 40.2459 10.5359C39.9522 10.675 39.7104 10.8574 39.5205 11.0832C39.3305 11.2917 39.1838 11.5348 39.0803 11.8126C38.994 12.0731 38.9424 12.3422 38.9253 12.62L43.3572 11.8878C43.3051 11.5406 43.1148 11.1936 42.7862 10.8466C42.4577 10.4996 41.9737 10.3264 41.3344 10.3268ZM20.6293 7.68476C20.8021 7.63256 21.0699 7.5803 21.4328 7.52797C21.8129 7.47562 22.2017 7.44932 22.5991 7.44904C22.9793 7.44878 23.3163 7.47458 23.6101 7.52646C23.9211 7.57833 24.1804 7.6823 24.3879 7.8384C24.5953 7.9945 24.751 8.21139 24.8549 8.48907C24.976 8.74939 25.0367 9.09654 25.037 9.53054L25.0406 15.1291C25.0411 15.8409 25.2142 16.3529 25.56 16.6651C25.9058 16.96 26.407 17.1072 27.0637 17.1067C27.4611 17.1065 27.7808 17.0715 28.0226 17.0019C28.0914 16.9834 28.1559 16.965 28.2162 16.9465C27.6907 17.5431 27.4283 18.2663 27.4288 19.1162C27.4292 19.6436 27.5308 20.1221 27.7336 20.5517C27.5068 20.5638 27.2756 20.5699 27.04 20.57C26.1069 20.5707 25.2428 20.4671 24.4478 20.2594C23.67 20.0516 22.9959 19.7309 22.4254 19.2973C21.8548 18.8637 21.4138 18.3085 21.1024 17.6317C20.7909 16.9375 20.6348 16.1043 20.6342 15.1322L20.6293 7.68476ZM30.7133 15.9187C29.8818 15.9192 29.1836 16.137 28.6185 16.5719L28.6128 7.67924C28.7855 7.62704 29.0534 7.57477 29.4162 7.52244C29.7963 7.4701 30.1851 7.44379 30.5826 7.44352C30.9627 7.44325 31.2997 7.46906 31.5935 7.52094C31.9046 7.5728 32.1638 7.67678 32.3713 7.83288C32.5788 7.98897 32.7344 8.20586 32.8383 8.48355C32.9594 8.74386 33.0201 9.09102 33.0204 9.52502L33.0251 16.7827C32.4421 16.206 31.6715 15.918 30.7133 15.9187ZM28.983 17.4995C28.5512 17.9512 28.3356 18.5069 28.336 19.1665C28.3365 19.8262 28.5528 20.3816 28.9851 20.8326C29.4347 21.2837 30.0224 21.509 30.7481 21.5085C31.4739 21.508 32.0526 21.2819 32.4844 20.8302C32.9333 20.3786 33.1576 19.8229 33.1572 19.1632C33.1568 18.5035 32.9318 17.9482 32.4822 17.4971C32.0499 17.0461 31.4709 16.8208 30.7451 16.8213C30.0193 16.8218 29.4319 17.0479 28.983 17.4995ZM32.1051 35.4388C32.4852 35.3865 32.7703 35.3429 32.9603 35.3081L32.9534 24.7098C32.9532 24.2758 32.8925 23.9287 32.7713 23.6684C32.6675 23.3907 32.5118 23.1738 32.3043 23.0177C32.0969 22.8616 31.8376 22.7576 31.5265 22.7058C31.2327 22.6539 30.8958 22.6281 30.5156 22.6283C30.1354 22.6286 29.7553 22.6636 29.3752 22.7333C29.0123 22.7856 28.7359 22.8292 28.5458 22.864L28.5527 33.4623C28.553 33.8963 28.6051 34.2521 28.7089 34.5298C28.83 34.7901 28.9944 34.9983 29.2018 35.1544C29.4093 35.3105 29.6599 35.4145 29.9537 35.4664C30.2648 35.5182 30.6104 35.544 30.9906 35.5438C31.3707 35.5435 31.7422 35.5085 32.1051 35.4388ZM25.6779 35.4693C26.058 35.417 26.3345 35.3647 26.5072 35.3125L26.5021 27.4224C26.501 25.7212 26.0163 24.4455 25.0481 23.5956C24.0971 22.7282 22.7662 22.2952 21.0555 22.2963C20.5025 22.2967 19.9928 22.3578 19.5263 22.4797C19.0771 22.5841 18.7402 22.6798 18.5156 22.7668L18.514 20.2149C18.5137 19.7809 18.453 19.4337 18.3319 19.1734C18.228 18.8957 18.0723 18.6788 17.8649 18.5227C17.6574 18.3667 17.3981 18.2627 17.0871 18.2108C16.7933 18.1589 16.4563 18.1331 16.0761 18.1334C15.6959 18.1336 15.3158 18.1686 14.9357 18.2383C14.5728 18.2907 14.2964 18.3342 14.1063 18.3691L14.1162 33.4722C14.1164 33.9062 14.1685 34.262 14.2724 34.5397C14.3935 34.8 14.5578 35.0082 14.7653 35.1643C14.9727 35.3204 15.2234 35.4244 15.5172 35.4763C15.8282 35.5282 16.1739 35.554 16.554 35.5537C16.9515 35.5534 17.3316 35.5271 17.6945 35.4748C18.0746 35.4225 18.351 35.3702 18.5238 35.318L18.5179 26.2041C18.7079 26.0824 18.9584 25.9781 19.2694 25.8911C19.5803 25.804 19.9086 25.7604 20.2542 25.7602C20.7726 25.7598 21.2047 25.9071 21.5505 26.202C21.9136 26.4795 22.0954 26.9741 22.0958 27.6859L22.0996 33.4667C22.0999 33.9007 22.1519 34.2565 22.2558 34.5342C22.3769 34.7945 22.5412 35.0028 22.7487 35.1588C22.9562 35.3149 23.2068 35.4189 23.5006 35.4708C23.8117 35.5227 24.1573 35.5485 24.5374 35.5482C24.9349 35.5479 25.315 35.5216 25.6779 35.4693ZM40.7597 22.2828C41.7965 22.282 42.7557 22.4203 43.6371 22.6974C44.5359 22.9572 45.3051 23.3646 45.9448 23.9197C46.5845 24.4748 47.0861 25.1775 47.4496 26.0279C47.813 26.8609 47.9951 27.859 47.9958 29.0221C47.9966 30.1331 47.8417 31.1054 47.5312 31.9389C47.2207 32.7724 46.7805 33.4757 46.2106 34.049C45.6407 34.6049 44.9498 35.022 44.1378 35.3004C43.3431 35.5787 42.4533 35.7182 41.4683 35.7188C40.7253 35.7193 40.034 35.607 39.3945 35.3817L39.3973 39.7044C39.2245 39.7566 38.9481 39.8088 38.5679 39.8612C38.1878 39.9309 37.799 39.9659 37.4016 39.9661C37.0214 39.9664 36.6758 39.9406 36.3647 39.8887C36.0709 39.8368 35.8203 39.7329 35.6129 39.5768C35.4054 39.4207 35.2497 39.2038 35.1459 38.9261C35.042 38.6658 34.9899 38.3186 34.9897 37.8846L34.9815 25.3855C34.9812 24.9168 35.076 24.5348 35.2659 24.2395C35.4731 23.9443 35.7494 23.675 36.0948 23.4317C36.6303 23.0842 37.2954 22.8059 38.0901 22.5971C38.8849 22.3882 39.7747 22.2834 40.7597 22.2828ZM40.818 32.2299C42.5979 32.2287 43.4871 31.1605 43.4857 29.0252C43.485 27.9142 43.2598 27.0897 42.8102 26.5519C42.3778 26.014 41.7469 25.7454 40.9175 25.746C40.5892 25.7462 40.2954 25.7898 40.0363 25.8768C39.7771 25.9464 39.5525 26.0333 39.3625 26.1376L39.3663 31.8664C39.5737 31.9704 39.7984 32.057 40.0404 32.1263C40.2823 32.1956 40.5416 32.2301 40.818 32.2299ZM9.0943 25.7252C8.66618 25.7255 7.2297 25.7946 6.83592 25.9325C6.45926 26.0704 5.92819 26.2771 5.63725 26.5526C5.36342 26.8108 5.04239 27.1378 4.87139 27.5336C4.7004 27.9294 4.61508 28.394 4.61543 28.9273C4.61612 29.994 5.01494 30.7937 5.61466 31.3266C6.2315 31.8595 8.19938 32.1257 9.07275 32.1251C9.5865 32.1247 10.0317 32.0642 10.4084 31.9435C10.785 31.8228 11.1189 31.6936 11.4099 31.5557C11.7526 31.7964 12.0096 32.0628 12.1811 32.3552C12.3525 32.6303 12.4383 32.9657 12.4386 33.3614C12.4391 34.0668 12.1055 34.6175 11.4379 35.0137C10.7702 35.3926 9.84561 35.5825 7.63847 35.5834C6.5596 35.5841 5.2875 35.4299 4.41394 35.1209C3.54036 34.7946 2.68794 34.3478 2.05395 33.7805C1.43708 33.196 0.858511 32.4996 0.51549 31.6913C0.172469 30.8829 0.00063771 29.9884 2.25697e-06 29.0078C-0.00073353 27.8723 0.178434 26.883 0.53751 26.0398C0.913699 25.1793 1.51706 24.4736 2.15032 23.9226C2.78358 23.3717 3.60975 22.9583 4.43157 22.6824C5.27051 22.4066 6.44823 22.2684 7.37297 22.2677C9.63149 22.2669 10.5821 22.4899 11.2502 22.9367C11.9184 23.3835 12.2527 23.9596 12.2531 24.665C12.2534 24.9919 12.1765 25.3016 12.0226 25.5942C11.8686 25.8695 11.689 26.1105 11.4836 26.3171C11.1924 26.1797 10.8412 26.0509 10.4302 25.9307C10.0191 25.7934 9.5738 25.7249 9.0943 25.7252Z" fill="white"/>
<path fill-rule="evenodd" clip-rule="evenodd" d="M49 5.18953C48.9995 5.17962 48.9994 5.1698 48.9986 5.15979C48.9996 5.15579 48.9984 5.15153 48.9981 5.14712C48.9739 4.71446 48.8011 4.30519 48.5111 3.99368L48.4815 3.96269L48.479 3.962C48.4719 3.95612 48.4644 3.9501 48.4567 3.94483C48.4219 3.92107 48.382 3.90655 48.3406 3.90252C48.2991 3.89847 48.2573 3.90507 48.2189 3.92169L48.1926 3.93471C47.7438 4.1576 47.3333 4.45535 46.9772 4.81617C46.6117 4.59807 46.2769 4.32858 45.9823 4.01532C45.8901 3.9172 45.8015 3.81503 45.7183 3.70689L45.7155 3.70613L45.7123 3.69938C45.4671 3.20313 45.3085 2.66562 45.2439 2.11182C45.394 1.96061 45.5277 1.79279 45.6427 1.61134C45.7741 1.40475 45.8795 1.18149 45.9563 0.947032C45.9569 0.945503 45.9573 0.94391 45.9576 0.942282C45.9639 0.92368 45.9698 0.904979 45.9754 0.886181C45.9857 0.844418 45.9896 0.801249 45.9869 0.75824C45.9812 0.653834 45.9388 0.555251 45.8678 0.481155C45.8497 0.461985 45.8298 0.444765 45.8083 0.429757C45.7467 0.404373 45.6846 0.380448 45.622 0.357521C45.5399 0.326304 45.457 0.297215 45.3733 0.270252C45.3725 0.269632 45.3715 0.269354 45.3705 0.269469C45.1571 0.198839 44.9395 0.138255 44.7178 0.0877205L44.7149 0.0869356C44.6281 0.0671947 44.5408 0.0490032 44.4529 0.0323612C44.3903 0.0208113 44.3276 0.0099928 44.265 0C44.2383 0.00185023 44.2119 0.00642736 44.1861 0.0136652C44.0887 0.0406924 44.0043 0.103988 43.9489 0.191507C43.9259 0.227395 43.9085 0.266801 43.8973 0.308291C43.8926 0.326554 43.8879 0.344817 43.8862 0.36313C43.8862 0.36313 43.8862 0.363133 43.8855 0.365692C43.839 0.610532 43.8226 0.860533 43.8368 1.10967C43.8491 1.32625 43.8841 1.54079 43.9412 1.74947C43.619 2.19544 43.2232 2.57846 42.7722 2.88066L42.7663 2.88451L42.7635 2.88372C42.6381 2.93178 42.514 2.97475 42.387 3.01143C41.9813 3.12983 41.5618 3.18942 41.1403 3.1885C41.0054 2.69077 40.7929 2.21937 40.5113 1.79305C40.5076 1.78693 40.5041 1.78127 40.5002 1.7759C40.4753 1.73905 40.4417 1.70943 40.4026 1.68986C40.3636 1.67029 40.3204 1.66139 40.2771 1.66404L40.2562 1.66606L40.2527 1.66509C40.237 1.66893 40.2216 1.67324 40.206 1.67793C40.2032 1.67854 40.2004 1.67949 40.1978 1.68071C39.913 1.76665 39.654 1.9269 39.4456 2.1462C39.365 2.2315 39.2925 2.32472 39.2292 2.42458C39.2282 2.4286 39.2247 2.43191 39.2226 2.43564C39.222 2.43688 39.2216 2.43826 39.2216 2.43966C39.217 2.44703 39.2127 2.45363 39.2085 2.4611C39.202 2.4758 39.1992 2.49193 39.2001 2.50809C39.2003 2.51107 39.2006 2.51408 39.2012 2.51701C39.2028 2.5241 39.2047 2.53128 39.2066 2.53847C39.2262 2.61439 39.2488 2.68947 39.2744 2.76366C39.3759 3.0664 39.5245 3.34979 39.7143 3.60258C39.8232 3.74494 39.9445 3.8765 40.0767 3.99554C40.1731 4.72404 40.1051 5.46587 39.8782 6.16236C39.8772 6.16546 39.8764 6.16865 39.8757 6.17186C39.874 6.17844 39.8734 6.18529 39.8739 6.1921C39.8752 6.20843 39.8827 6.22357 39.8947 6.23422C39.9067 6.2449 39.9222 6.25023 39.938 6.24908L39.9411 6.24995L39.9511 6.24766C40.3103 6.16559 40.6749 6.11167 41.0419 6.08631C41.0647 6.08404 41.0872 6.08287 41.1098 6.08134C42.723 5.98036 44.3233 6.43395 45.6638 7.37212C45.9708 7.58676 46.262 7.82487 46.5349 8.08449L46.5428 8.09058C46.5559 8.09975 46.5719 8.10322 46.5874 8.10021C46.6029 8.0972 46.6166 8.08798 46.6257 8.07452C46.6293 8.06899 46.632 8.06287 46.6337 8.0564C46.6347 8.05329 46.6355 8.05011 46.6362 8.04689C46.7747 7.32581 47.0726 6.64806 47.5064 6.06714C47.6783 6.03294 47.8468 5.98192 48.0094 5.91477C48.2961 5.79685 48.5622 5.63076 48.7969 5.4231C48.855 5.37193 48.9106 5.31851 48.9645 5.26267C48.9664 5.26109 48.9681 5.25936 48.9696 5.25745L48.978 5.2484C48.9784 5.24776 48.9786 5.247 48.9785 5.24621C48.9806 5.24379 48.9826 5.24116 48.9843 5.23844C48.9934 5.22378 48.9988 5.20694 49 5.18953ZM44.7292 1.39183L44.7302 1.38819C44.7302 1.38819 44.7299 1.39046 44.7292 1.39183Z" fill="#FF0960"/>
</svg>
