<svg width="38" height="38" viewBox="0 0 38 38" fill="none" xmlns="http://www.w3.org/2000/svg">
<path d="M19 33.25C26.8701 33.25 33.25 26.8701 33.25 19C33.25 11.1299 26.8701 4.75 19 4.75C11.1299 4.75 4.75 11.1299 4.75 19C4.75 26.8701 11.1299 33.25 19 33.25Z" fill="url(#paint0_linear_0_990)"/>
<path fill-rule="evenodd" clip-rule="evenodd" d="M11.2176 18.8369C15.3566 17.0219 18.1167 15.8253 19.4976 15.2471C23.4406 13.5964 24.26 13.3097 24.794 13.3002C24.9114 13.2981 25.174 13.3274 25.3442 13.4664C25.4878 13.5837 25.5273 13.7421 25.5462 13.8534C25.5651 13.9646 25.5887 14.218 25.57 14.4159C25.3563 16.6756 24.4317 22.1593 23.9614 24.6902C23.7624 25.7611 23.3705 26.1201 22.9911 26.1553C22.1666 26.2316 21.5405 25.6068 20.7419 25.0799C19.4922 24.2555 18.7863 23.7422 17.5733 22.9377C16.1715 22.0079 17.0802 21.4969 17.8791 20.6617C18.0882 20.4432 21.721 17.1173 21.7913 16.8156C21.8001 16.7779 21.8083 16.6372 21.7253 16.563C21.6423 16.4887 21.5197 16.5141 21.4313 16.5343C21.306 16.5629 19.3097 17.891 15.4424 20.5185C14.8758 20.9101 14.3625 21.1009 13.9027 21.0909C13.3957 21.0799 12.4206 20.8024 11.6956 20.5652C10.8065 20.2743 10.0998 20.1205 10.1613 19.6265C10.1934 19.3691 10.5455 19.1059 11.2176 18.8369Z" fill="white"/>
<defs>
<linearGradient id="paint0_linear_0_990" x1="19" y1="4.75" x2="19" y2="33.0386" gradientUnits="userSpaceOnUse">
<stop stop-color="#2AABEE"/>
<stop offset="1" stop-color="#229ED9"/>
</linearGradient>
</defs>
</svg>
