<svg width="30" height="26" viewBox="0 0 30 26" fill="none" xmlns="http://www.w3.org/2000/svg">
<path fill-rule="evenodd" clip-rule="evenodd" d="M26.3052 6.80727C26.3159 7.08417 26.3195 7.36096 26.3195 7.63786C26.3195 16.033 20.4139 25.7247 9.61462 25.7247C6.29728 25.7247 3.21263 24.6674 0.613647 22.8676C1.07306 22.9179 1.53964 22.9558 2.01338 22.9558C4.76391 22.9558 7.29726 21.9361 9.30676 20.2243C6.73761 20.1865 4.56822 18.3363 3.82003 15.819C4.17921 15.8946 4.5491 15.9324 4.92738 15.9324C5.46078 15.9324 5.97866 15.857 6.47507 15.706C3.78659 15.127 1.7616 12.5594 1.7616 9.47574C1.7616 9.43798 1.7616 9.42532 1.7616 9.40015C2.55394 9.86584 3.46083 10.1552 4.42381 10.1929C2.84628 9.04758 1.8093 7.09673 1.8093 4.8941C1.8093 3.73615 2.09808 2.64108 2.60642 1.6971C5.50134 5.54855 9.82943 8.07846 14.7088 8.34277C14.6086 7.87708 14.5572 7.38633 14.5572 6.89546C14.5572 3.38384 17.186 0.539246 20.4294 0.539246C22.1179 0.539246 23.6429 1.30713 24.7133 2.5406C26.0534 2.2637 27.3087 1.7351 28.4447 1.00509C28.0044 2.49029 27.0748 3.73609 25.86 4.51645C27.0486 4.36541 28.1822 4.02584 29.2335 3.52238C28.4447 4.79361 27.4519 5.91363 26.3052 6.80727Z" fill="#1EA1F2"/>
</svg>
