<svg width="24" height="24" viewBox="0 0 24 24" fill="none" xmlns="http://www.w3.org/2000/svg">
<path fill-rule="evenodd" clip-rule="evenodd" d="M19.625 11.375C19.625 16.2075 15.7075 20.125 10.875 20.125C6.04251 20.125 2.125 16.2075 2.125 11.375C2.125 6.54251 6.04251 2.625 10.875 2.625C15.7075 2.625 19.625 6.54251 19.625 11.375ZM17.696 19.5218C15.8504 21.0686 13.4715 22 10.875 22C5.00697 22 0.25 17.243 0.25 11.375C0.25 5.50697 5.00697 0.75 10.875 0.75C16.743 0.75 21.5 5.50697 21.5 11.375C21.5 13.9715 20.5686 16.3504 19.0218 18.196L23.0594 22.2336C23.2547 22.4289 23.2547 22.7454 23.0594 22.9407L22.4407 23.5594C22.2454 23.7547 21.9289 23.7547 21.7336 23.5594L17.696 19.5218Z" fill="#F5F9FF"/>
</svg>
