<svg width="34" height="23" viewBox="0 0 34 23" fill="none" xmlns="http://www.w3.org/2000/svg">
<path d="M32.3709 3.93447C32.0011 2.56113 30.9183 1.4783 29.5449 1.10855C27.0359 0.421875 16.9999 0.421875 16.9999 0.421875C16.9999 0.421875 6.96394 0.421875 4.45494 1.08214C3.108 1.45188 1.99876 2.56113 1.62901 3.93447C0.96875 6.44347 0.96875 11.6463 0.96875 11.6463C0.96875 11.6463 0.96875 16.8756 1.62901 19.3582C1.99876 20.7316 3.08159 21.8144 4.45494 22.1841C6.99035 22.8708 16.9999 22.8708 16.9999 22.8708C16.9999 22.8708 27.0359 22.8708 29.5449 22.2105C30.9183 21.8408 32.0011 20.758 32.3709 19.3846C33.0311 16.8756 33.0311 11.6728 33.0311 11.6728C33.0311 11.6728 33.0575 6.44347 32.3709 3.93447Z" fill="#FF0000"/>
</svg>
