<svg width="33" height="76" viewBox="0 0 33 76" fill="none" xmlns="http://www.w3.org/2000/svg">
<g clip-path="url(#clip0_0_1247)">
<g clip-path="url(#clip1_0_1247)">
<path d="M1.96974 72.1426C1.94825 72.0542 1.94805 71.9622 1.96914 71.8738C1.99024 71.7854 2.03206 71.7032 2.09128 71.6336L2.83629 70.7456C2.88423 70.6827 2.94466 70.63 3.01395 70.5907C3.08323 70.5514 3.15994 70.5262 3.23945 70.5168C3.31897 70.5074 3.39966 70.5138 3.47666 70.5358C3.55366 70.5578 3.62539 70.5948 3.68753 70.6447C3.74968 70.6946 3.80095 70.7562 3.83827 70.826C3.87559 70.8957 3.89818 70.9721 3.9047 71.0506C3.91121 71.129 3.9015 71.2079 3.87617 71.2825C3.85083 71.3571 3.81038 71.4258 3.75725 71.4846L3.00642 72.3819C2.93559 72.4646 2.84278 72.5264 2.73827 72.5603C2.63376 72.5943 2.52164 72.5992 2.41431 72.5744C2.30698 72.5496 2.20863 72.4962 2.13017 72.42C2.0517 72.3438 1.99618 72.2478 1.96974 72.1426ZM5.60554 67.5503C5.58511 67.4686 5.5829 67.3834 5.59909 67.3008C5.61527 67.2182 5.64946 67.1401 5.69931 67.0718C6.15522 66.4467 6.60265 65.813 7.04161 65.1705C7.08097 65.0985 7.13536 65.0354 7.20122 64.9854C7.26709 64.9354 7.34296 64.8997 7.42391 64.8804C7.50487 64.8611 7.5891 64.8588 7.67112 64.8736C7.75314 64.8885 7.83113 64.92 7.90001 64.9663C7.96889 65.0126 8.02713 65.0726 8.07094 65.1424C8.11476 65.2122 8.14316 65.2902 8.15431 65.3713C8.16547 65.4525 8.15912 65.535 8.13568 65.6135C8.11224 65.692 8.07223 65.7647 8.01826 65.827C7.57371 66.4761 7.11811 67.1171 6.65146 67.7501C6.55989 67.8755 6.42129 67.96 6.26607 67.985C6.11085 68.01 5.95169 67.9735 5.8235 67.8835C5.71271 67.7991 5.6352 67.6795 5.6043 67.5453L5.60554 67.5503ZM9.48238 61.6895C9.44654 61.5414 9.47039 61.3856 9.54893 61.2547C9.94448 60.5905 10.3322 59.92 10.712 59.2434C10.7939 59.1221 10.9192 59.0354 11.0632 59.0004C11.2072 58.9654 11.3595 58.9847 11.49 59.0544C11.6206 59.1241 11.7201 59.2392 11.7688 59.377C11.8176 59.5149 11.8121 59.6655 11.7534 59.7992C11.3795 60.4851 10.9749 61.1676 10.5709 61.8418C10.491 61.9749 10.3605 62.0712 10.208 62.1095C10.0555 62.1479 9.89361 62.1252 9.75782 62.0464C9.68919 62.0076 9.62927 61.9555 9.5817 61.8932C9.53414 61.831 9.49992 61.76 9.48113 61.6844L9.48238 61.6895ZM12.8189 55.5099C12.7875 55.3796 12.8016 55.2428 12.8589 55.1215C13.1974 54.4243 13.5245 53.7246 13.84 53.0222C13.9098 52.8903 14.028 52.7896 14.1708 52.7404C14.3136 52.6912 14.4703 52.6972 14.6091 52.7572C14.7478 52.8172 14.8584 52.9268 14.9182 53.0636C14.9781 53.2004 14.9828 53.3544 14.9314 53.4942C14.6085 54.2108 14.2764 54.9233 13.9352 55.6317C13.8826 55.7408 13.7968 55.831 13.6896 55.89C13.5825 55.949 13.4592 55.9738 13.3368 55.961C13.2144 55.9482 13.099 55.8984 13.0065 55.8185C12.914 55.7386 12.8489 55.6326 12.8202 55.515L12.8189 55.5099ZM15.5879 49.0662C15.5597 48.9531 15.5664 48.8345 15.607 48.7253C15.883 48.002 16.147 47.2743 16.3991 46.5424C16.4509 46.3973 16.559 46.2784 16.6998 46.2115C16.8405 46.1445 17.0027 46.135 17.151 46.1849C17.2993 46.2347 17.4217 46.3401 17.4917 46.4779C17.5616 46.6157 17.5734 46.775 17.5245 46.9209C17.268 47.6646 16.9977 48.4035 16.7135 49.1377C16.6689 49.2543 16.5873 49.3536 16.4809 49.4211C16.3744 49.4887 16.2486 49.5209 16.122 49.5131C15.9953 49.5053 15.8743 49.4579 15.7768 49.3778C15.6793 49.2977 15.6104 49.1891 15.5802 49.068L15.5879 49.0662ZM17.7754 42.4122C17.7511 42.3157 17.7534 42.2148 17.782 42.1196C17.989 41.3734 18.1857 40.626 18.3722 39.8774C18.4096 39.727 18.5064 39.5976 18.6412 39.5175C18.7761 39.4375 18.9379 39.4135 19.0911 39.4507C19.2443 39.4879 19.3764 39.5834 19.4583 39.716C19.5402 39.8487 19.5651 40.0077 19.5277 40.1581C19.3395 40.9142 19.1401 41.6729 18.9296 42.4343C18.8949 42.5591 18.8189 42.669 18.7135 42.7465C18.6081 42.8241 18.4794 42.8649 18.3475 42.8626C18.2156 42.8603 18.0882 42.8149 17.9852 42.7337C17.8822 42.6525 17.8095 42.5401 17.7786 42.4141L17.7754 42.4122ZM19.3512 35.5898C19.3318 35.5107 19.3291 35.4287 19.3433 35.3487C19.482 34.59 19.6109 33.8283 19.73 33.0636C19.7606 32.9171 19.8472 32.788 19.9721 32.7027C20.0969 32.6175 20.2505 32.5827 20.401 32.6055C20.5516 32.6283 20.6877 32.7069 20.7812 32.8252C20.8747 32.9436 20.9185 33.0925 20.9036 33.2413C20.7853 34.0165 20.6529 34.7897 20.5115 35.5597C20.4889 35.6924 20.4201 35.8131 20.3169 35.9013C20.2136 35.9895 20.0823 36.0396 19.9453 36.0432C19.8084 36.0467 19.6742 36.0034 19.5659 35.9208C19.4575 35.8381 19.3816 35.7211 19.3512 35.5898ZM20.316 28.6468C20.3003 28.584 20.2962 28.519 20.3039 28.4548C20.3729 27.6885 20.4322 26.9164 20.4788 26.1474C20.4883 25.9929 20.5597 25.8486 20.6773 25.7459C20.795 25.6432 20.9493 25.5905 21.1067 25.5993C21.2629 25.6117 21.4083 25.6832 21.5123 25.7986C21.6162 25.9141 21.6706 26.0645 21.664 26.2183C21.6186 27.0031 21.556 27.7839 21.485 28.564C21.4724 28.7016 21.4104 28.8301 21.3102 28.9268C21.21 29.0234 21.078 29.0819 20.9377 29.0919C20.7974 29.1018 20.658 29.0625 20.5441 28.981C20.4303 28.8995 20.3494 28.7811 20.316 28.6468ZM20.6355 21.6528C20.6231 21.608 20.6172 21.5618 20.6179 21.5155C20.6177 20.7441 20.6034 19.9707 20.5891 19.1972C20.5864 19.1206 20.599 19.0442 20.6264 18.9724C20.6538 18.9006 20.6953 18.8349 20.7486 18.779C20.8019 18.7231 20.8659 18.678 20.937 18.6465C21.0081 18.6149 21.0849 18.5975 21.1629 18.5951C21.3198 18.5947 21.471 18.6533 21.5855 18.759C21.7 18.8646 21.769 19.0093 21.7783 19.1631C21.8034 19.9473 21.8157 20.731 21.8152 21.5141C21.8135 21.6555 21.7596 21.7913 21.6635 21.8964C21.5674 22.0014 21.4356 22.0685 21.2927 22.0851C21.1498 22.1018 21.0054 22.0669 20.8864 21.9869C20.7674 21.907 20.6819 21.7874 20.6457 21.6504L20.6355 21.6528ZM20.2978 14.6479C20.2886 14.6216 20.2819 14.5946 20.2779 14.5671C20.203 13.8089 20.1225 13.0421 20.0363 12.267C20.0259 12.1906 20.031 12.113 20.0513 12.0387C20.0715 11.9643 20.1066 11.8947 20.1545 11.8338C20.2023 11.773 20.262 11.722 20.33 11.684C20.398 11.6459 20.4731 11.6214 20.5509 11.612C20.7076 11.5959 20.8648 11.64 20.9895 11.735C21.1142 11.8301 21.1968 11.9688 21.2199 12.122C21.3159 12.9002 21.4008 13.681 21.4746 14.4645C21.4858 14.6097 21.4413 14.7537 21.3499 14.8681C21.2585 14.9825 21.1267 15.059 20.9805 15.0827C20.8342 15.1064 20.6841 15.0755 20.5596 14.9961C20.435 14.9167 20.3451 14.7946 20.3073 14.6536L20.2978 14.6479ZM19.333 7.72105L19.3243 7.68573C19.1838 6.91799 19.0316 6.16901 18.8667 5.41235C18.8316 5.26132 18.8589 5.10296 18.9428 4.9721C19.0266 4.84125 19.16 4.74863 19.3137 4.71461C19.4674 4.68058 19.6287 4.70795 19.7621 4.79069C19.8956 4.87343 19.9903 5.00476 20.0254 5.15579L20.0291 5.17093C20.1953 5.93263 20.3513 6.69675 20.4961 7.48215C20.5123 7.55721 20.5133 7.63462 20.4991 7.70997C20.4848 7.78532 20.4556 7.85713 20.413 7.9213C20.3705 7.98547 20.3155 8.04074 20.2511 8.08395C20.1867 8.12717 20.1143 8.15749 20.0379 8.17318C19.9616 8.18886 19.8827 8.18961 19.806 8.17538C19.7292 8.16114 19.656 8.13221 19.5906 8.09023C19.5251 8.04824 19.4687 7.99403 19.4245 7.93069C19.3803 7.86734 19.3492 7.79611 19.333 7.72105Z" fill="#CAD3E1"/>
<path d="M7.78273 71.7522C7.8064 71.6542 7.79938 71.5513 7.76257 71.4571C7.72576 71.3629 7.66088 71.2817 7.57643 71.2242L1.51574 66.9669C1.43153 66.9137 1.33375 66.885 1.23377 66.8842C1.13379 66.8834 1.03571 66.9105 0.950936 66.9623C0.866161 67.0141 0.79817 67.0885 0.754865 67.1769C0.711561 67.2653 0.694722 67.364 0.706307 67.4616L1.57917 72.5629C1.58461 72.6068 1.59527 72.65 1.61091 72.6915C1.6599 72.7923 1.74062 72.875 1.8411 72.9274C1.94157 72.9797 2.05645 72.9989 2.16869 72.9821L7.35714 72.1406C7.45913 72.124 7.55382 72.0784 7.62948 72.0093C7.70513 71.9403 7.75842 71.8509 7.78273 71.7522Z" fill="#CAD3E1"/>
</g>
</g>
<defs>
<clipPath id="clip0_0_1247">
<rect width="76" height="33" fill="white" transform="matrix(4.37114e-08 1 1 -4.37114e-08 0 0)"/>
</clipPath>
<clipPath id="clip1_0_1247">
<rect width="99.6958" height="38.4073" fill="white" transform="matrix(0.239519 0.970892 -0.973431 0.228982 11.0703 -31.1438)"/>
</clipPath>
</defs>
</svg>
