<svg width="134" height="57" viewBox="0 0 134 57" fill="none" xmlns="http://www.w3.org/2000/svg">
<g clip-path="url(#clip0_0_834)">
<path d="M130.204 18.8624C130.09 18.8304 129.97 18.8253 129.854 18.8475C129.738 18.8698 129.629 18.9187 129.536 18.9905L128.341 19.8926C128.257 19.9504 128.185 20.0246 128.131 20.1107C128.076 20.1969 128.039 20.2933 128.022 20.394C128.006 20.4948 128.01 20.5979 128.034 20.6971C128.059 20.7963 128.103 20.8896 128.165 20.9713C128.226 21.0531 128.304 21.1216 128.392 21.1728C128.481 21.224 128.579 21.2568 128.681 21.2692C128.782 21.2816 128.885 21.2734 128.984 21.245C129.082 21.2167 129.174 21.1688 129.253 21.1042L130.459 20.1951C130.571 20.1093 130.656 19.9943 130.706 19.863C130.755 19.7317 130.768 19.5892 130.741 19.4512C130.715 19.3132 130.651 19.1852 130.556 19.0813C130.461 18.9773 130.339 18.9016 130.204 18.8624ZM124.04 23.2515C123.934 23.2211 123.824 23.2139 123.716 23.2302C123.607 23.2464 123.504 23.2859 123.413 23.3458C122.576 23.8935 121.728 24.4301 120.869 24.9553C120.773 25.0017 120.688 25.0676 120.62 25.1489C120.551 25.2301 120.501 25.3249 120.471 25.427C120.442 25.529 120.435 25.6362 120.449 25.7414C120.464 25.8466 120.501 25.9476 120.558 26.0378C120.614 26.1279 120.689 26.2052 120.777 26.2647C120.866 26.3241 120.966 26.3644 121.071 26.3829C121.175 26.4013 121.283 26.3976 121.386 26.3718C121.49 26.3461 121.586 26.299 121.67 26.2335C122.538 25.7015 123.395 25.1549 124.243 24.5939C124.411 24.4838 124.528 24.3118 124.569 24.1154C124.61 23.9191 124.571 23.7145 124.461 23.5465C124.357 23.401 124.206 23.296 124.033 23.2496L124.04 23.2515ZM116.213 27.8809C116.023 27.8275 115.819 27.8497 115.645 27.9428C114.76 28.4117 113.868 28.8702 112.968 29.3184C112.806 29.4164 112.686 29.5714 112.633 29.7529C112.58 29.9344 112.597 30.1293 112.68 30.2993C112.764 30.4692 112.908 30.6019 113.085 30.6712C113.261 30.7405 113.458 30.7414 113.635 30.6738C114.546 30.2336 115.455 29.7541 116.353 29.2751C116.53 29.1803 116.662 29.0191 116.721 28.827C116.779 28.6348 116.758 28.4274 116.663 28.2504C116.616 28.1609 116.551 28.0819 116.473 28.0181C116.395 27.9542 116.304 27.9069 116.207 27.879L116.213 27.8809ZM108.002 31.8056C107.834 31.7587 107.655 31.7694 107.495 31.8361C106.57 32.2306 105.643 32.6104 104.713 32.9753C104.538 33.0572 104.401 33.2025 104.329 33.3818C104.258 33.561 104.257 33.7609 104.328 33.9407C104.398 34.1206 104.535 34.2671 104.709 34.3505C104.884 34.4339 105.084 34.448 105.268 34.3899C106.217 34.0163 107.161 33.6308 108.1 33.2335C108.245 33.1723 108.367 33.0677 108.449 32.9343C108.532 32.8009 108.57 32.6452 108.56 32.4887C108.55 32.3322 108.492 32.1826 108.393 32.0606C108.294 31.9386 108.16 31.8501 108.008 31.8074L108.002 31.8056ZM99.4771 34.9936C99.3317 34.9517 99.1771 34.954 99.0331 35C98.078 35.3135 97.118 35.6116 96.153 35.8942C95.9617 35.9526 95.8013 36.0839 95.7068 36.2597C95.6122 36.4355 95.5911 36.6415 95.648 36.8329C95.7049 37.0244 95.8352 37.1858 96.0107 37.2821C96.1861 37.3784 96.3924 37.4018 96.5848 37.3472C97.5653 37.0596 98.5403 36.7541 99.5099 36.4308C99.6637 36.38 99.7972 36.2814 99.8907 36.1494C99.9843 36.0173 100.033 35.8589 100.03 35.6971C100.026 35.5354 99.971 35.3789 99.8721 35.2505C99.7732 35.1222 99.6358 35.0287 99.4799 34.9839L99.4771 34.9936ZM90.7104 37.4302C90.5863 37.3941 90.455 37.3917 90.3298 37.4232C89.3486 37.6476 88.3665 37.8589 87.3835 38.0571C87.186 38.0968 87.0125 38.2133 86.9013 38.3808C86.79 38.5483 86.7501 38.7531 86.7903 38.9502C86.8305 39.1473 86.9475 39.3205 87.1155 39.4317C87.2836 39.5429 87.489 39.5831 87.6865 39.5433C88.6794 39.3433 89.6764 39.1292 90.6773 38.9011C90.8415 38.8635 90.9883 38.7724 91.0948 38.6423C91.2012 38.5121 91.2612 38.3503 91.2652 38.1823C91.2693 38.0142 91.2172 37.8495 91.1172 37.7141C91.0171 37.5787 90.8748 37.4803 90.7127 37.4343L90.7104 37.4302ZM81.7575 39.0788C81.6558 39.0499 81.5493 39.0422 81.4446 39.0561C80.4509 39.1929 79.4538 39.3171 78.4534 39.4287C78.2614 39.4599 78.0888 39.5634 77.9713 39.718C77.8538 39.8725 77.8003 40.0662 77.8219 40.2591C77.8435 40.4521 77.9385 40.6295 78.0873 40.7548C78.2361 40.8801 78.4273 40.9437 78.6215 40.9325C79.6356 40.8225 80.6478 40.6944 81.6563 40.5548C81.83 40.533 81.9906 40.4518 82.1107 40.3249C82.2309 40.198 82.3031 40.0334 82.315 39.8592C82.327 39.685 82.2779 39.5119 82.1762 39.3696C82.0746 39.2272 81.9265 39.1244 81.7575 39.0788ZM2.28055 16.4324C2.1137 16.3862 1.93613 16.3983 1.77727 16.4666C1.6184 16.5348 1.48777 16.6553 1.40702 16.8079C1.32627 16.9605 1.30024 17.1361 1.33326 17.3056C1.36627 17.4752 1.45634 17.6284 1.58854 17.7401C2.37197 18.3903 3.16558 19.0294 3.96938 19.6574C4.04706 19.725 4.13771 19.7762 4.23579 19.8078C4.33388 19.8394 4.43735 19.8507 4.53992 19.8412C4.64249 19.8316 4.742 19.8013 4.83239 19.7521C4.92279 19.703 5.00218 19.636 5.06574 19.5552C5.1293 19.4744 5.17568 19.3815 5.20208 19.2822C5.22848 19.1829 5.23434 19.0792 5.21929 18.9775C5.20425 18.8758 5.16862 18.7782 5.11457 18.6906C5.06053 18.603 4.9892 18.5273 4.90492 18.4681C4.1135 17.8459 3.33134 17.2159 2.55843 16.5781C2.47134 16.5141 2.37178 16.469 2.2662 16.4458L2.28055 16.4324ZM9.53347 21.9323C9.35939 21.8805 9.17259 21.8927 9.00693 21.9666C8.84127 22.0404 8.70772 22.1711 8.63048 22.3349C8.55325 22.4987 8.53745 22.6848 8.58595 22.8594C8.63445 23.034 8.74403 23.1856 8.89483 23.2867C9.73888 23.8597 10.588 24.4271 11.445 24.9793C11.5287 25.0347 11.6227 25.0729 11.7214 25.0914C11.8202 25.1099 11.9216 25.1085 12.0197 25.0871C12.1178 25.0658 12.2105 25.025 12.2924 24.9671C12.3743 24.9093 12.4437 24.8356 12.4965 24.7504C12.6046 24.5812 12.641 24.376 12.5975 24.1798C12.554 23.9837 12.4342 23.8127 12.2645 23.7044C11.4219 23.1633 10.5839 22.6061 9.75705 22.0345C9.68856 21.9885 9.61304 21.954 9.53347 21.9323ZM72.6806 39.9431C72.5998 39.9198 72.5155 39.9112 72.4316 39.9177C71.4318 39.9652 70.425 40.0003 69.4229 40.0193C69.2215 40.0233 69.0301 40.1066 68.8903 40.251C68.7506 40.3954 68.6738 40.5892 68.6768 40.7901C68.6845 40.9897 68.7696 41.1786 68.9142 41.317C69.0587 41.4555 69.2513 41.5326 69.4515 41.5323C70.4741 41.5157 71.4925 41.4769 72.5103 41.4275C72.6898 41.4185 72.8603 41.3464 72.9913 41.2238C73.1223 41.1013 73.2054 40.9363 73.2259 40.7582C73.2463 40.5801 73.2027 40.4004 73.1029 40.2511C73.003 40.1019 72.8534 39.9927 72.6806 39.9431ZM17.2679 26.7399C17.0887 26.6868 16.8962 26.7014 16.7273 26.781C16.5583 26.8606 16.4249 26.9996 16.3525 27.1714C16.2801 27.3432 16.2737 27.5357 16.3347 27.7121C16.3957 27.8884 16.5198 28.0362 16.6831 28.1272C17.572 28.629 18.472 29.1164 19.3748 29.5941C19.5548 29.6849 19.7632 29.702 19.9555 29.6417C20.1477 29.5814 20.3086 29.4485 20.4038 29.2714C20.4962 29.0931 20.5141 28.8855 20.4536 28.6939C20.3931 28.5023 20.2593 28.3422 20.0811 28.2485C19.1885 27.7842 18.308 27.3023 17.4381 26.7954C17.3841 26.7695 17.3269 26.7508 17.2679 26.7399ZM63.5719 39.9829C63.5144 39.9649 63.4546 39.9549 63.3943 39.9533C62.3916 39.9126 61.387 39.8538 60.3824 39.795C60.2829 39.7875 60.1829 39.7997 60.0881 39.8308C59.9934 39.8618 59.9057 39.9113 59.8302 39.9762C59.7546 40.0411 59.6927 40.1203 59.6478 40.2092C59.603 40.2981 59.5762 40.3949 59.569 40.4942C59.56 40.6939 59.6281 40.8896 59.7593 41.0409C59.8905 41.1923 60.0749 41.2877 60.2743 41.3076C61.2924 41.3807 62.3104 41.4375 63.3284 41.4779C63.5123 41.4832 63.6918 41.4217 63.8335 41.3048C63.9752 41.188 64.0694 41.0237 64.0987 40.8426C64.128 40.6614 64.0904 40.4757 63.9928 40.32C63.8952 40.1643 63.7444 40.0491 63.5682 39.9959L63.5719 39.9829ZM25.3824 30.8545C25.1991 30.8053 25.0042 30.8263 24.8359 30.9133C24.6676 31.0003 24.5381 31.1471 24.473 31.3247C24.4078 31.5023 24.4117 31.6979 24.4839 31.873C24.5561 32.0481 24.6913 32.19 24.863 32.2708C25.7953 32.694 26.7332 33.0977 27.6748 33.4885C27.768 33.5346 27.8696 33.5611 27.9734 33.5664C28.0772 33.5717 28.181 33.5557 28.2783 33.5194C28.3756 33.483 28.4643 33.4271 28.539 33.3552C28.6137 33.2832 28.6728 33.1967 28.7126 33.101C28.7524 33.0053 28.772 32.9024 28.7703 32.7987C28.7686 32.6951 28.7456 32.5928 28.7027 32.4983C28.6598 32.4038 28.598 32.3191 28.5209 32.2494C28.4439 32.1796 28.3534 32.1264 28.255 32.093C27.3134 31.7022 26.4056 31.3035 25.4909 30.8924C25.456 30.8764 25.4197 30.8637 25.3824 30.8545ZM54.4842 39.1853C54.4506 39.1723 54.4158 39.1624 54.3804 39.1557C53.3987 39.0207 52.4063 38.8779 51.4033 38.7274C51.3046 38.7102 51.2034 38.7126 51.1057 38.7345C51.008 38.7564 50.9156 38.7974 50.8339 38.8552C50.7522 38.9129 50.6828 38.9862 50.6297 39.0708C50.5766 39.1555 50.5408 39.2498 50.5244 39.3484C50.495 39.5471 50.5439 39.7496 50.6608 39.9134C50.7777 40.0772 50.9535 40.1896 51.1515 40.227C52.1579 40.3901 53.1684 40.5392 54.1828 40.6743C54.371 40.6962 54.5605 40.6471 54.7141 40.5367C54.8677 40.4263 54.9743 40.2625 55.0129 40.0775C55.0515 39.8926 55.0194 39.6998 54.9229 39.537C54.8264 39.3742 54.6724 39.2532 54.4912 39.1978L54.4842 39.1853ZM33.8509 34.2439C33.7557 34.2138 33.6556 34.2027 33.5562 34.2112C33.4569 34.2197 33.3602 34.2476 33.2717 34.2934C33.1832 34.3392 33.1046 34.402 33.0405 34.4781C32.9763 34.5542 32.9279 34.6422 32.8978 34.737C32.8678 34.8319 32.8568 34.9317 32.8655 35.0309C32.8741 35.13 32.9023 35.2266 32.9483 35.3149C32.9944 35.4033 33.0574 35.4817 33.1338 35.5458C33.2102 35.6099 33.2985 35.6584 33.3936 35.6885C34.3509 36.0243 35.3127 36.3438 36.2783 36.6505C36.4698 36.7038 36.6742 36.6832 36.8509 36.5928C37.0276 36.5024 37.1635 36.3488 37.2316 36.1626C37.2915 35.9768 37.2775 35.775 37.1925 35.5989C37.1074 35.4229 36.9577 35.2861 36.7745 35.217C35.8151 34.9133 34.8611 34.5948 33.9125 34.2615L33.8509 34.2439ZM45.5317 37.5933L45.4862 37.5803C44.4958 37.3611 43.5303 37.128 42.5556 36.8782C42.3611 36.8256 42.1538 36.8522 41.9792 36.9521C41.8046 37.052 41.6771 37.217 41.6246 37.4109C41.5722 37.6048 41.5991 37.8117 41.6995 37.986C41.7999 38.1603 41.9655 38.2878 42.16 38.3404L42.1795 38.346C43.1607 38.5976 44.1456 38.8362 45.1588 39.0619C45.2555 39.0865 45.3561 39.0918 45.4548 39.0776C45.5535 39.0634 45.6484 39.0299 45.7341 38.9791C45.8198 38.9283 45.8946 38.8611 45.9542 38.7814C46.0139 38.7018 46.0572 38.6111 46.0816 38.5147C46.1061 38.4182 46.1113 38.3179 46.0969 38.2194C46.0825 38.1209 46.0488 38.0262 45.9978 37.9406C45.9467 37.8551 45.8793 37.7804 45.7993 37.7208C45.7193 37.6612 45.6284 37.6178 45.5317 37.5933Z" fill="#CAD3E1"/>
<path d="M129.385 26.2445C129.256 26.2695 129.123 26.2551 129.002 26.2033C128.882 26.1515 128.78 26.0646 128.71 25.954L123.5 18.0127C123.436 17.9026 123.404 17.7766 123.408 17.6492C123.412 17.5219 123.453 17.3984 123.524 17.2932C123.596 17.1879 123.697 17.1052 123.814 17.0547C123.931 17.0042 124.06 16.988 124.187 17.0078L130.771 18.3871C130.828 18.3963 130.883 18.4121 130.937 18.4342C131.065 18.5019 131.168 18.609 131.231 18.7397C131.293 18.8704 131.312 19.0177 131.284 19.1598L129.913 25.7229C129.886 25.8519 129.821 25.9701 129.727 26.0628C129.634 26.1555 129.515 26.2187 129.385 26.2445Z" fill="#CAD3E1"/>
</g>
<defs>
<clipPath id="clip0_0_834">
<rect width="129.501" height="49.0255" fill="white" transform="matrix(0.96172 0.274035 0.274035 -0.96172 -4.54651 25.0317)"/>
</clipPath>
</defs>
</svg>
