<svg width="172" height="138" viewBox="0 0 172 138" fill="none" xmlns="http://www.w3.org/2000/svg">
<path fill-rule="evenodd" clip-rule="evenodd" d="M50.7655 55.7631L46.2306 75.4193C55.6606 92.6551 68.6124 107.436 83.3089 120.705L88.2571 103.109L50.7655 55.7631Z" fill="#B9E299"/>
<path fill-rule="evenodd" clip-rule="evenodd" d="M89.0382 99.6445L83.31 120.706C109.854 110.003 136.131 96.4143 161.892 77.2314L166.959 60.5456L89.0382 99.6445Z" fill="#628349"/>
<path fill-rule="evenodd" clip-rule="evenodd" d="M51.4731 55.8917C60.4692 72.0987 72.8695 87.604 88.0224 102.542C115.753 90.7469 142.115 77.0574 166.285 60.3306C152.919 51.2729 141.135 41.5134 131.068 30.9916C106.037 42.2216 79.3638 50.2447 51.4731 55.8917Z" fill="#7DA75D" stroke="#B9E299" stroke-width="2.21364" stroke-miterlimit="1.5" stroke-linecap="round" stroke-linejoin="round"/>
<path fill-rule="evenodd" clip-rule="evenodd" d="M80.2822 48.2013L117.376 88.691L116.79 92.4312L164.529 65.6059L116.456 95.8054L116.277 97.97L162.888 71.144L116.237 100.578L115.555 102.627L161.425 75.057L114.272 106.325L111.121 108.068L111.225 107.118C94.946 114.56 86.4 116.389 84.7773 116.703C82.7795 117.09 92.4678 113.803 111.481 104.769L111.667 103.188C94.6713 110.172 84.4624 112.952 85.7092 111.938C86.6864 111.143 95.5053 108.324 112.015 100.074L112.328 97.2637C96.9071 104.533 88.4791 107.35 87.1052 107.49C85.3918 107.663 94.9554 103.763 112.679 94.123L113.045 90.849C113.045 90.849 79.6484 49.9497 80.2822 48.2013Z" fill="#2A550A" fill-opacity="0.3"/>
<path fill-rule="evenodd" clip-rule="evenodd" d="M79.0578 47.4873L103.618 39.4164L144.292 74.1049C134.172 82.4334 126.715 86.8574 115.797 89.533L79.0578 47.4873Z" fill="#FFDF00"/>
<path fill-rule="evenodd" clip-rule="evenodd" d="M115.729 89.0665C115.325 95.7518 115.319 101.169 113.298 107.439L142.9 91.98C144.992 86.4008 145.282 80.3916 144.219 74.0592L115.729 89.0665Z" fill="#FFB800"/>
<path fill-rule="evenodd" clip-rule="evenodd" d="M10.2384 75.2546L13.2167 95.206C28.3035 107.791 45.7684 116.802 64.3032 123.768L62.4639 105.582L10.2384 75.2546Z" fill="#B9E299"/>
<path fill-rule="evenodd" clip-rule="evenodd" d="M61.9198 102.072L64.302 123.768C85.0829 104.089 104.558 81.8211 121.505 54.5371L120.11 37.1547L61.9198 102.072Z" fill="#628349"/>
<path fill-rule="evenodd" clip-rule="evenodd" d="M10.94 75.1153C25.2463 86.9021 42.4632 96.7893 62.0338 105.14C83.5185 84.0099 103.037 61.6173 119.402 37.2012C103.648 33.6675 89.108 28.9014 75.8871 22.7971C56.708 42.4132 34.8254 59.6469 10.94 75.1153Z" fill="#7DA75D" stroke="#B9E299" stroke-width="2.21364" stroke-miterlimit="1.5" stroke-linecap="round" stroke-linejoin="round"/>
<path fill-rule="evenodd" clip-rule="evenodd" d="M34.9361 57.4087L84.2808 81.5019L85.105 85.1969L119.704 42.753L86.0297 88.4591L86.6559 90.5388L120.205 48.5072L87.5737 92.98L87.689 95.1366L120.277 52.6842L87.8494 99.0476L85.5564 101.824L85.305 100.902C72.8822 113.788 65.5996 118.62 64.2047 119.506C62.4874 120.598 70.2987 113.991 84.6826 98.6217L84.2768 97.0825C71.0195 109.805 62.5377 116.13 63.3267 114.731C63.9451 113.633 71.1188 107.78 83.4603 94.0578L82.7231 91.3276C71.035 103.739 64.2242 109.447 62.9968 110.08C61.4659 110.869 68.9371 103.738 81.8995 88.2765L81.0408 85.096C81.0408 85.096 34.9866 59.2678 34.9361 57.4087Z" fill="#2A550A" fill-opacity="0.3"/>
<path fill-rule="evenodd" clip-rule="evenodd" d="M33.5363 57.1924L53.4344 40.6882L103.986 58.072C97.6192 69.5279 92.3002 76.3754 83.1206 82.8633L33.5363 57.1924Z" fill="#FFDF00"/>
<path fill-rule="evenodd" clip-rule="evenodd" d="M82.8814 82.4561C84.9542 88.8247 86.9325 93.8683 87.3474 100.442L109.233 75.2169C109.136 69.2593 107.205 63.5613 103.897 58.058L82.8814 82.4561Z" fill="#FFB800"/>
<path d="M78.9705 49.7985C78.9762 49.8198 78.9975 49.8141 79.0032 49.8354C79.1558 49.9777 79.3297 50.1142 79.5036 50.2506C79.5307 50.2663 79.5635 50.3033 79.5905 50.3189C79.7644 50.4554 79.9326 50.5705 80.1279 50.7013C80.1549 50.7169 80.1877 50.7539 80.2362 50.7638C80.4257 50.8732 80.6209 51.004 80.8048 51.092C80.8318 51.1077 80.8589 51.1233 80.886 51.1389C81.0969 51.2426 81.2864 51.352 81.5186 51.45C81.5186 51.45 81.5186 51.45 81.5457 51.4656C81.6483 51.5068 81.7509 51.548 81.8534 51.5892C81.9831 51.646 82.1341 51.697 82.2638 51.7538C82.3663 51.795 82.4903 51.8304 82.5929 51.8716C82.7439 51.9227 82.8735 51.9795 83.0188 52.0092C83.1427 52.0447 83.2667 52.0801 83.3849 52.0942C83.5302 52.1239 83.6812 52.175 83.8265 52.2047C83.9504 52.2402 84.0899 52.2486 84.2139 52.284C84.3592 52.3137 84.5045 52.3435 84.6711 52.3675C84.7409 52.3716 84.8377 52.3915 84.9075 52.3956C85.1226 52.4295 85.3377 52.4635 85.5684 52.4703C85.6866 52.4844 85.7991 52.4771 85.9173 52.4912C86.1053 52.5095 86.3146 52.5221 86.4969 52.519C86.6364 52.5274 86.7703 52.5144 86.9098 52.5228C87.0921 52.5197 87.3014 52.5322 87.4837 52.5292C87.6176 52.5162 87.7785 52.5188 87.9123 52.5058C88.0946 52.5028 88.2982 52.494 88.4748 52.4695C88.7424 52.4436 89.0315 52.4119 89.3205 52.3802C89.3419 52.3745 89.3846 52.3631 89.4059 52.3573C89.6736 52.3314 89.9569 52.2783 90.2402 52.2253C90.3256 52.2024 90.3954 52.2066 90.4808 52.1837C90.7855 52.1249 91.1115 52.0605 91.4375 51.996C91.7849 51.9258 92.1266 51.8342 92.4896 51.7369C92.5963 51.7083 92.7244 51.674 92.8312 51.6454C93.0661 51.5824 93.301 51.5195 93.5302 51.4352C93.6796 51.3951 93.802 51.3394 93.9515 51.2994C94.1593 51.2208 94.3728 51.1636 94.5806 51.085C94.7244 51.0236 94.8739 50.9835 95.0176 50.9221C95.2254 50.8435 95.4332 50.765 95.641 50.6864C95.7634 50.6307 95.8702 50.6021 95.9926 50.5464C96.2217 50.4621 96.4238 50.3622 96.653 50.2779C96.7754 50.2222 96.8978 50.1665 97.0202 50.1108C97.2436 50.0051 97.4671 49.8995 97.6905 49.7938C97.7916 49.7439 97.9139 49.6882 98.015 49.6382C98.2754 49.4998 98.5572 49.3556 98.839 49.2114C98.8973 49.1729 98.94 49.1615 98.9983 49.1229C99.3171 48.946 99.6359 48.769 99.976 48.5863C100.077 48.5363 100.151 48.4707 100.252 48.4208C100.491 48.2881 100.709 48.1611 100.942 48.007C101.059 47.9299 101.181 47.8742 101.277 47.8029C101.494 47.6759 101.685 47.5333 101.903 47.4063C102.019 47.3292 99.0673 44.1837 99.1839 44.1067C99.3959 43.9583 99.6137 43.8313 99.8043 43.6887C99.921 43.6116 100.038 43.5346 100.133 43.4633C100.382 43.2821 100.631 43.101 100.859 42.9255C100.917 42.887 100.991 42.8214 101.049 42.7829C101.356 42.5632 101.658 42.3222 101.96 42.0812C102.034 42.0156 102.129 41.9443 102.203 41.8787C102.431 41.7032 102.637 41.5335 102.859 41.3367C102.97 41.2383 103.086 41.1613 103.197 41.0629C103.382 40.8989 103.567 40.7349 103.752 40.5709C103.863 40.4725 103.974 40.3741 104.085 40.2757C104.27 40.1117 104.455 39.9478 104.618 39.7895C104.729 39.6911 104.84 39.5927 104.945 39.4729C105.13 39.309 105.31 39.1236 105.489 38.9383C105.578 38.8456 105.689 38.7472 105.779 38.6545C105.906 38.5291 106.032 38.4036 106.137 38.2839C106.338 38.0928 106.517 37.9075 106.691 37.7008C106.817 37.5753 106.938 37.4285 107.065 37.303C107.244 37.1176 107.423 36.9323 107.575 36.7313C107.696 36.5845 107.823 36.459 107.943 36.3122C108.101 36.1326 108.275 35.9259 108.433 35.7463C108.553 35.5995 108.674 35.4526 108.795 35.3058C108.947 35.1048 109.105 34.9252 109.257 34.7243C109.378 34.5774 109.499 34.4306 109.614 34.2624C109.729 34.0942 109.871 33.9417 109.987 33.7735C110.102 33.6054 110.223 33.4585 110.338 33.2904C110.453 33.1222 110.568 32.954 110.683 32.7858C110.798 32.6176 110.913 32.4495 111.028 32.2813C111.144 32.1131 114.327 35.0134 114.421 34.851C114.536 34.6828 114.63 34.5203 114.745 34.3522C114.86 34.184 114.954 34.0215 115.064 33.832C115.157 33.6695 115.273 33.5014 115.366 33.3389C115.491 33.1223 115.601 32.9328 115.705 32.7219C115.798 32.5595 115.876 32.4241 115.97 32.2616C116.074 32.0507 116.199 31.8341 116.303 31.6232C116.375 31.4665 116.453 31.3311 116.526 31.1744C116.624 30.9422 116.749 30.7256 116.847 30.4933C116.903 30.3637 116.976 30.207 117.033 30.0773C117.146 29.818 117.254 29.5373 117.368 29.278C117.409 29.1754 117.45 29.0729 117.491 28.9703C117.589 28.738 117.66 28.4902 117.758 28.2579C117.794 28.134 117.856 28.0257 117.892 27.9018C118.025 27.5456 118.137 27.1952 118.243 26.8234C119.912 21.1808 119.095 16.5936 116.409 13.7432L120.106 17.9018C122.771 20.7579 123.588 25.3451 121.941 30.9819C121.828 31.3324 121.722 31.7042 121.589 32.0604C121.553 32.1843 121.491 32.2926 121.455 32.4165C121.357 32.6487 121.286 32.8966 121.188 33.1289L121.173 33.1559C121.132 33.2585 121.085 33.3397 121.065 33.4366C120.951 33.6959 120.843 33.9766 120.73 34.2359C120.673 34.3655 120.601 34.5223 120.544 34.6519C120.446 34.8841 120.342 35.095 120.223 35.333C120.15 35.4897 120.072 35.6251 120 35.7818C119.896 35.9927 119.792 36.2036 119.667 36.4202C119.595 36.5769 119.501 36.7394 119.402 36.8805C119.298 37.0914 119.167 37.2866 119.064 37.4975C119.032 37.5516 118.985 37.6329 118.954 37.687C118.892 37.7953 118.823 37.8823 118.761 37.9906C118.646 38.1588 118.558 38.3426 118.442 38.5107C118.327 38.6789 118.234 38.8414 118.118 39.0095C118.003 39.1777 117.888 39.3459 117.794 39.5083C117.679 39.6765 117.564 39.8447 117.449 40.0129C117.334 40.181 117.219 40.3492 117.104 40.5174C116.988 40.6856 116.873 40.8537 116.752 41.0006C116.637 41.1687 116.516 41.3156 116.38 41.4895C116.327 41.5493 116.28 41.6306 116.228 41.6904C116.16 41.7774 116.091 41.8643 116.023 41.9513C115.871 42.1523 115.713 42.3319 115.561 42.5329C115.44 42.6797 115.319 42.8265 115.198 42.9733C115.046 43.1743 114.867 43.3596 114.709 43.5393C114.588 43.6861 114.462 43.8116 114.341 43.9584C114.162 44.1437 114.01 44.3447 113.83 44.53C113.704 44.6555 113.583 44.8023 113.456 44.9278C113.277 45.1131 113.082 45.3256 112.903 45.5109C112.814 45.6036 112.724 45.6962 112.613 45.7946C112.576 45.8274 112.56 45.8545 112.523 45.8873C112.434 45.98 112.323 46.0784 112.233 46.171C112.054 46.3564 111.869 46.5204 111.669 46.7114C111.558 46.8098 111.447 46.9082 111.336 47.0066C111.151 47.1706 110.966 47.3346 110.802 47.4929C110.691 47.5913 110.58 47.6897 110.47 47.7881C110.285 47.952 110.1 48.116 109.915 48.28C109.804 48.3784 109.693 48.4768 109.598 48.5481C109.37 48.7235 109.169 48.9146 108.942 49.0901C108.868 49.1557 108.772 49.227 108.698 49.2926C108.397 49.5336 108.095 49.7746 107.788 49.9943C107.73 50.0328 107.656 50.0984 107.597 50.1369C107.348 50.3181 107.099 50.4993 106.872 50.6747C106.755 50.7517 106.638 50.8288 106.543 50.9001C106.411 51.0042 106.273 51.087 106.119 51.1968C106.039 51.241 105.981 51.2796 105.901 51.3238C105.785 51.4008 105.668 51.4779 105.551 51.5549C105.334 51.6819 105.143 51.8246 104.925 51.9516C104.809 52.0286 104.692 52.1057 104.57 52.1613C104.33 52.2941 104.118 52.4424 103.879 52.5752C103.778 52.6251 103.704 52.6907 103.603 52.7407C103.285 52.9177 102.966 53.0946 102.626 53.2773C102.567 53.3158 102.503 53.333 102.466 53.3658C102.206 53.5043 101.924 53.6484 101.664 53.7869C101.541 53.8426 101.44 53.8925 101.339 53.9425C101.116 54.0481 100.892 54.1538 100.669 54.2594C100.547 54.3151 100.424 54.3708 100.302 54.4265C100.078 54.5322 99.8705 54.6108 99.6413 54.6951C99.5189 54.7507 99.4122 54.7793 99.2898 54.835C99.2257 54.8522 99.1887 54.885 99.1247 54.9022C98.9809 54.9636 98.8101 55.0094 98.6663 55.0708C98.5226 55.1322 98.3731 55.1722 98.2293 55.2336C98.0215 55.3122 97.808 55.3695 97.6002 55.448C97.4507 55.4881 97.3283 55.5438 97.1789 55.5838C96.944 55.6468 96.7148 55.7311 96.4799 55.794C96.3732 55.8226 96.2451 55.857 96.1383 55.8856C95.7967 55.9771 95.4336 56.0744 95.0863 56.1446C94.7603 56.2091 94.4556 56.2679 94.1296 56.3323C94.0442 56.3552 93.9744 56.3511 93.889 56.3739C93.6057 56.427 93.3166 56.4587 93.0546 56.506C93.0333 56.5117 92.9906 56.5232 92.9635 56.5075C92.7229 56.5491 92.4766 56.5694 92.2516 56.5839C92.2089 56.5953 92.1605 56.5854 92.1178 56.5969C91.9141 56.6057 91.7376 56.6301 91.5553 56.6332C91.4215 56.6461 91.2606 56.6435 91.1267 56.6565C90.9231 56.6653 90.7408 56.6683 90.5528 56.6501C90.4133 56.6417 90.2794 56.6547 90.1399 56.6463C89.9305 56.6338 89.7483 56.6368 89.5603 56.6185C89.442 56.6044 89.3296 56.6117 89.2113 56.5976C88.9807 56.5908 88.7656 56.5569 88.5505 56.523C88.4808 56.5188 88.411 56.5146 88.3141 56.4948C88.3141 56.4948 88.3141 56.4948 88.2928 56.5005C88.1475 56.4708 87.9808 56.4467 87.8355 56.417C87.7116 56.3816 87.5721 56.3732 87.4481 56.3378C87.3028 56.308 87.1518 56.257 87.0065 56.2273C86.8826 56.1918 86.7644 56.1777 86.6405 56.1423C86.4952 56.1125 86.3655 56.0557 86.2145 56.0047C86.0906 55.9692 85.988 55.928 85.8641 55.8926C85.7131 55.8415 85.5834 55.7847 85.4538 55.7279C85.3512 55.6867 85.2486 55.6456 85.146 55.6044C85.146 55.6044 85.146 55.6044 85.1189 55.5888C84.9081 55.4851 84.6972 55.3814 84.4863 55.2777C84.4592 55.2621 84.4321 55.2464 84.4051 55.2308C84.2155 55.1214 84.026 55.012 83.8365 54.9026C83.8094 54.8869 83.7766 54.85 83.7282 54.84C83.5387 54.7306 83.3647 54.5941 83.1909 54.4576C83.1638 54.442 83.131 54.405 83.1039 54.3894C82.93 54.2529 82.7561 54.1164 82.6036 53.9742C82.5978 53.9529 82.5765 53.9586 82.5708 53.9372C82.4838 53.869 82.3911 53.7794 82.3255 53.7054C82.2329 53.6158 82.1673 53.5419 82.0746 53.4523L78.3774 49.2937C78.6326 49.4771 78.7908 49.6406 78.9705 49.7985Z" fill="url(#paint0_linear_0_874)"/>
<path d="M76.6349 36.212C79.9674 24.9056 91.9878 13.651 103.495 11.0707C115.002 8.49041 121.61 15.5539 118.298 26.8546C114.966 38.1611 102.946 49.4157 91.4385 51.996C79.9314 54.5763 73.3238 47.5128 76.6349 36.212Z" fill="url(#paint1_linear_0_874)"/>
<path d="M79.4677 35.5905C82.3435 25.8254 92.7325 16.0837 102.685 13.8514C112.638 11.619 118.35 17.7324 115.474 27.4975C112.598 37.2627 102.209 47.0043 92.2565 49.2367C82.3254 51.4633 76.5919 45.3557 79.4677 35.5905Z" fill="url(#paint2_linear_0_874)"/>
<path d="M80.1971 35.4173C82.9509 26.051 92.9231 16.7185 102.464 14.5736C112.005 12.4286 117.488 18.2831 114.734 27.6494C111.98 37.0156 102.008 46.3481 92.4668 48.4931C82.9471 50.6323 77.4432 44.7836 80.1971 35.4173Z" fill="url(#paint3_linear_0_874)"/>
<path fill-rule="evenodd" clip-rule="evenodd" d="M99.068 38.6693L97.4132 42.0759C89.8923 43.0772 86.1062 40.748 88.1582 34.9264L86.5066 34.8615L86.2184 33.316L87.7394 32.817L89.1398 32.7788C89.3732 32.1854 89.6981 31.5786 90.1328 31.0878L88.7527 31.1067L88.4641 29.5623L89.8943 29.1517L91.5817 29.0103C94.7422 23.7406 106.026 20.336 106.026 20.336L106.432 21.6833L104.465 24.2981C99.0664 23.9126 97.1299 25.4862 94.9547 28.6713L100.596 26.6157L100.96 27.821L99.6947 30.4108L93.2965 30.8834L92.2973 32.6428L98.2583 30.9078L98.6252 32.1239L97.4891 34.6717L91.3221 34.896C90.5575 38.4962 97.8374 38.685 97.8374 38.685L98.6881 37.0712L99.068 38.6693Z" fill="#C67600"/>
<path fill-rule="evenodd" clip-rule="evenodd" d="M98.6883 37.0702L96.8511 40.5459C89.3303 41.547 85.816 39.2067 87.8679 33.3851L86.2163 33.3202L87.4491 31.2757L88.8496 31.2375C89.083 30.6441 89.4079 30.0373 89.8425 29.5465L88.4624 29.5654L89.604 27.6104L91.2915 27.469C94.6716 22.6821 98.5282 20.3431 106.026 20.3358L104.058 22.9507C99.8799 23.109 96.8396 23.9448 94.6645 27.13L100.596 26.6154L99.394 28.9745L93.0062 29.3421L92.007 31.1015L98.258 30.9074L96.9501 33.376L91.0318 33.3547C90.2083 37.2323 92.4969 38.0639 98.6883 37.0702Z" fill="#FEDC9E"/>
<path fill-rule="evenodd" clip-rule="evenodd" d="M90.9758 33.6361C90.3225 37.2722 92.6486 38.0393 98.6871 37.0701L96.8499 40.5458L98.367 37.3507C92.1756 38.3443 90.1523 37.5138 90.9758 33.6361Z" fill="#FFE7BE"/>
<path fill-rule="evenodd" clip-rule="evenodd" d="M92.8529 29.6133L92.0076 31.1017L98.2586 30.9076L96.9507 33.3761L97.9386 31.1881L91.6875 31.3822L92.8529 29.6133Z" fill="#FFE7BE"/>
<path fill-rule="evenodd" clip-rule="evenodd" d="M95.9454 25.6432C95.4681 26.0837 95.0411 26.579 94.6646 27.1303L100.596 26.6158L99.3941 28.9749L100.276 26.8963L94.3445 27.4109C94.8034 26.7388 95.3375 26.15 95.9454 25.6432Z" fill="#FFE7BE"/>
<path fill-rule="evenodd" clip-rule="evenodd" d="M88.6451 31.2432C88.6811 31.1517 88.6044 31.3348 88.6451 31.2432L87.2832 31.5522L87.4499 31.2758L88.6451 31.2432Z" fill="#FFE7BE"/>
<path fill-rule="evenodd" clip-rule="evenodd" d="M91.1661 27.4795C91.2304 27.3886 91.1003 27.5685 91.1661 27.4795L89.448 27.8772L89.6038 27.6105L91.1661 27.4795Z" fill="#FFE7BE"/>
<g clip-path="url(#clip0_0_874)">
<path d="M6.83219 58.374C6.821 58.3952 6.84212 58.4064 6.83092 58.4275C6.84698 58.6525 6.88417 58.8886 6.92135 59.1248C6.93128 59.1571 6.93 59.2105 6.93993 59.2429C6.97711 59.479 7.0255 59.6941 7.0838 59.9414C7.09373 59.9738 7.09246 60.0272 7.12352 60.0707C7.19302 60.297 7.25132 60.5443 7.33202 60.7494C7.34194 60.7818 7.35188 60.8141 7.36181 60.8464C7.45243 61.0838 7.52194 61.3101 7.63369 61.5587C7.63369 61.5587 7.63369 61.5587 7.64362 61.591C7.69453 61.6992 7.74542 61.8073 7.79633 61.9155C7.85717 62.056 7.93913 62.2076 7.99997 62.3481C8.05088 62.4563 8.12293 62.5756 8.17384 62.6838C8.2558 62.8354 8.31663 62.9759 8.40978 63.1065C8.48182 63.2258 8.55385 63.3451 8.63708 63.4434C8.73024 63.5739 8.81222 63.7256 8.90538 63.8561C8.97741 63.9755 9.08176 64.0849 9.15379 64.2043C9.24695 64.3348 9.34011 64.4654 9.4544 64.6071C9.50657 64.6618 9.56868 64.7488 9.62086 64.8035C9.7662 64.9888 9.91154 65.1741 10.0892 65.3494C10.1724 65.4476 10.2668 65.5247 10.3501 65.623C10.4855 65.7759 10.642 65.94 10.7886 66.0718C10.893 66.1813 11.0085 66.2695 11.1129 66.379C11.2595 66.5108 11.416 66.6749 11.5626 66.8067C11.6781 66.895 11.8036 67.0156 11.9192 67.1039C12.0658 67.2357 12.2335 67.3788 12.3913 67.4894C12.6224 67.666 12.8746 67.8538 13.1269 68.0416C13.148 68.0528 13.1902 68.0752 13.2113 68.0864C13.4424 68.263 13.7059 68.4297 13.9693 68.5963C14.0538 68.6411 14.106 68.6958 14.1905 68.7406C14.475 68.9185 14.7807 69.1075 15.0863 69.2966C15.4131 69.4968 15.7511 69.676 16.1102 69.8663C16.2159 69.9223 16.3426 69.9894 16.4482 70.0454C16.6806 70.1686 16.913 70.2917 17.1565 70.3938C17.3044 70.4721 17.4423 70.5182 17.5902 70.5965C17.8126 70.6874 18.0239 70.7993 18.2463 70.8902C18.4054 70.9474 18.5533 71.0258 18.7123 71.083C18.9348 71.1738 19.1572 71.2647 19.3796 71.3555C19.5176 71.4016 19.6232 71.4575 19.7611 71.5036C20.0047 71.6056 20.2383 71.6753 20.4819 71.7773C20.6198 71.8234 20.7578 71.8694 20.8957 71.9155C21.1505 71.9964 21.4052 72.0773 21.66 72.1582C21.7768 72.1931 21.9147 72.2391 22.0315 72.274C22.3398 72.3561 22.6691 72.4495 22.9984 72.5428C23.073 72.5553 23.1152 72.5777 23.1898 72.5902C23.5726 72.6848 23.9553 72.7794 24.3592 72.8853C24.4761 72.9201 24.5829 72.9226 24.6997 72.9575C24.9868 73.0285 25.2528 73.0882 25.551 73.1381C25.7002 73.163 25.8381 73.2091 25.9661 73.2228C26.2321 73.2826 26.4881 73.31 26.7541 73.3698C26.9032 73.3947 26.8822 68.7296 27.0314 68.7545C27.3085 68.7932 27.5745 68.8529 27.8305 68.8804C27.9796 68.9053 28.1288 68.9303 28.2568 68.944C28.5874 68.9839 28.918 69.0238 29.2274 69.0525C29.302 69.065 29.4089 69.0675 29.4835 69.08C29.8886 69.1324 30.305 69.1636 30.7213 69.1949C30.8282 69.1974 30.9562 69.2112 31.0631 69.2137C31.3726 69.2424 31.6609 69.2599 31.9816 69.2675C32.1419 69.2713 32.2911 69.2963 32.4514 69.3001C32.7186 69.3064 32.9858 69.3127 33.2531 69.3191C33.4134 69.3229 33.5737 69.3267 33.7341 69.3305C34.0013 69.3368 34.2685 69.3431 34.5146 69.3383C34.6749 69.3421 34.8353 69.3459 35.0068 69.3286C35.274 69.3349 35.5524 69.3201 35.8308 69.3053C35.97 69.2979 36.1304 69.3017 36.2696 69.2943C36.4622 69.2882 36.6549 69.2821 36.8264 69.2647C37.1259 69.2612 37.4044 69.2464 37.694 69.2105C37.8866 69.2043 38.0905 69.1771 38.2831 69.1709C38.5616 69.1562 38.8399 69.1414 39.1084 69.0943C39.3123 69.067 39.505 69.0609 39.7088 69.0336C39.9661 69.0076 40.2557 68.9717 40.513 68.9457C40.7168 68.9185 40.9207 68.8912 41.1245 68.864C41.393 68.8169 41.6503 68.7909 41.9188 68.7438C42.1226 68.7165 42.3265 68.6893 42.5415 68.6409C42.7566 68.5925 42.9815 68.5765 43.1966 68.5281C43.4116 68.4797 43.6155 68.4525 43.8305 68.4041C44.0456 68.3557 44.2606 68.3073 44.4757 68.259C44.6907 68.2106 44.9057 68.1622 45.1208 68.1138C45.3358 68.0654 45.721 72.7072 45.9149 72.6476C46.1299 72.5992 46.3238 72.5396 46.5389 72.4913C46.7539 72.4429 46.9478 72.3833 47.1741 72.3138C47.368 72.2542 47.583 72.2059 47.777 72.1463C48.0355 72.0669 48.2617 71.9974 48.4992 71.9067C48.6931 71.8472 48.8547 71.7975 49.0486 71.738C49.2861 71.6473 49.5446 71.5679 49.7821 71.4773C49.9548 71.4065 50.1164 71.3569 50.2892 71.2861C50.5379 71.1743 50.7964 71.0949 51.045 70.9832C51.1855 70.9223 51.3583 70.8516 51.4988 70.7907C51.7797 70.669 52.0719 70.5262 52.3528 70.4046C52.461 70.3537 52.5692 70.3028 52.6773 70.2518C52.9259 70.1401 53.1646 69.996 53.4133 69.8843C53.5326 69.8122 53.6619 69.7725 53.7812 69.7005C54.1492 69.5167 54.4961 69.3217 54.8541 69.1056C60.3318 65.8666 63.0631 61.632 63.0352 57.3962L62.9 63.4125C62.9068 67.6371 60.1755 71.8716 54.719 75.1218C54.3721 75.3168 54.0141 75.5329 53.6461 75.7167C53.5268 75.7888 53.3975 75.8285 53.2781 75.9005C53.0295 76.0122 52.7908 76.1563 52.5422 76.2681L52.5099 76.278C52.4017 76.3289 52.3047 76.3587 52.2177 76.4208C51.9368 76.5425 51.6446 76.6853 51.3637 76.807C51.2232 76.8678 51.0504 76.9386 50.9099 76.9994C50.6613 77.1111 50.4239 77.2018 50.1541 77.3023C49.9813 77.3731 49.8197 77.4227 49.6469 77.4935C49.4095 77.5841 49.1721 77.6748 48.9135 77.7542C48.7407 77.825 48.5468 77.8845 48.364 77.923C48.1266 78.0136 47.8793 78.0719 47.6418 78.1625C47.5772 78.1824 47.4802 78.2122 47.4156 78.232C47.2863 78.2717 47.1682 78.2903 47.0389 78.33C46.8239 78.3784 46.6188 78.4591 46.4037 78.5075C46.1887 78.5559 45.9948 78.6154 45.7797 78.6638C45.5647 78.7122 45.3497 78.7606 45.1557 78.8201C44.9407 78.8685 44.7257 78.9169 44.5106 78.9653C44.2956 79.0136 44.0805 79.062 43.8655 79.1104C43.6504 79.1588 43.4354 79.2072 43.2316 79.2344C43.0165 79.2828 42.8127 79.31 42.5765 79.3472C42.4907 79.3559 42.3938 79.3857 42.308 79.3943C42.1899 79.4129 42.0718 79.4315 41.9538 79.4501C41.6853 79.4972 41.428 79.5232 41.1595 79.5703C40.9557 79.5976 40.7518 79.6248 40.5479 79.6521C40.2795 79.6992 40.0011 79.714 39.7438 79.7399C39.5399 79.7672 39.3473 79.7733 39.1434 79.8006C38.865 79.8154 38.5965 79.8625 38.3181 79.8773C38.1255 79.8834 37.9216 79.9107 37.729 79.9168C37.4505 79.9316 37.1398 79.9563 36.8614 79.9711C36.7222 79.9785 36.583 79.9859 36.4226 79.9821C36.3692 79.9808 36.3369 79.9907 36.2834 79.9895C36.1442 79.9969 35.9839 79.9931 35.8447 80.0005C35.5663 80.0152 35.2991 80.0089 34.9995 80.0125C34.8392 80.0087 34.6788 80.0049 34.5185 80.0011C34.2513 79.9948 33.9841 79.9884 33.738 79.9933C33.5776 79.9895 33.4173 79.9857 33.257 79.9819C32.9898 79.9756 32.7225 79.9692 32.4553 79.9629C32.295 79.9591 32.1347 79.9553 32.0066 79.9415C31.6972 79.9128 31.3976 79.9164 31.0882 79.8877C30.9813 79.8852 30.8533 79.8714 30.7464 79.8689C30.33 79.8376 29.9137 79.8064 29.5085 79.754C29.4339 79.7415 29.327 79.739 29.2525 79.7265C28.9219 79.6866 28.5913 79.6467 28.2818 79.618C28.1327 79.5931 27.9836 79.5681 27.8555 79.5544C27.6741 79.5394 27.5038 79.5033 27.3013 79.4771C27.2056 79.4534 27.131 79.441 27.0353 79.4173C26.8862 79.3924 26.737 79.3674 26.5879 79.3425C26.3219 79.2827 26.0659 79.2553 25.8 79.1955C25.6508 79.1706 25.5017 79.1457 25.3638 79.0996C25.0767 79.0286 24.7995 78.99 24.5124 78.919C24.3956 78.8841 24.2887 78.8816 24.1719 78.8468C23.7892 78.7521 23.4064 78.6575 23.0025 78.5517C22.9279 78.5392 22.8646 78.5056 22.8111 78.5044C22.5029 78.4222 22.1736 78.3288 21.8654 78.2467C21.7274 78.2006 21.6106 78.1657 21.4938 78.1309C21.2391 78.05 20.9843 77.9691 20.7295 77.8882C20.5916 77.8421 20.4536 77.7961 20.3157 77.75C20.0609 77.6691 19.8385 77.5783 19.595 77.4763C19.457 77.4302 19.3514 77.3743 19.2135 77.3282C19.1501 77.2946 19.0966 77.2933 19.0333 77.2598C18.8742 77.2025 18.7052 77.113 18.5461 77.0557C18.3871 76.9985 18.2392 76.9201 18.0801 76.8628C17.8577 76.772 17.6464 76.6601 17.424 76.5692C17.2761 76.4909 17.1382 76.4448 16.9903 76.3664C16.758 76.2433 16.5144 76.1413 16.2821 76.0181C16.1764 75.9621 16.0497 75.895 15.9441 75.839C15.6061 75.6599 15.247 75.4695 14.9202 75.2693C14.6145 75.0802 14.33 74.9024 14.0243 74.7133C13.9398 74.6685 13.8876 74.6138 13.8031 74.569C13.5397 74.4024 13.2875 74.2146 13.0452 74.0591C13.0241 74.0479 12.9818 74.0255 12.9719 73.9932C12.7507 73.8489 12.5407 73.6835 12.3519 73.5293C12.3096 73.5069 12.2786 73.4634 12.2363 73.441C12.0686 73.298 11.9108 73.1873 11.7642 73.0555C11.6487 72.9672 11.5232 72.8466 11.4076 72.7583C11.2399 72.6153 11.0933 72.4835 10.9579 72.3306C10.8535 72.2211 10.738 72.1328 10.6336 72.0234C10.4771 71.8593 10.3305 71.7275 10.1951 71.5745C10.1119 71.4763 10.0174 71.3992 9.9342 71.301C9.75654 71.1256 9.61122 70.9404 9.46588 70.7551C9.4137 70.7004 9.36153 70.6457 9.29942 70.5587C9.29942 70.5587 9.29943 70.5587 9.27831 70.5475C9.18515 70.4169 9.07086 70.2752 8.9777 70.1446C8.90567 70.0253 8.80131 69.9159 8.72928 69.7965C8.63612 69.666 8.55414 69.5143 8.46098 69.3838C8.38895 69.2644 8.30572 69.1662 8.23369 69.0468C8.14053 68.9163 8.0797 68.7758 7.99774 68.6242C7.9257 68.5048 7.87479 68.3967 7.80276 68.2773C7.72079 68.1256 7.65995 67.9852 7.59911 67.8447C7.5482 67.7365 7.49728 67.6284 7.44637 67.5202C7.44637 67.5202 7.44637 67.5202 7.43644 67.4879C7.34582 67.2505 7.2552 67.013 7.16457 66.7756C7.15465 66.7433 7.14472 66.711 7.13479 66.6786C7.06529 66.4524 6.99577 66.2262 6.92627 65.9999C6.91634 65.9676 6.91763 65.9142 6.88658 65.8707C6.81707 65.6444 6.7799 65.4082 6.74271 65.1721C6.73279 65.1398 6.73404 65.0863 6.72411 65.054C6.68693 64.8178 6.64976 64.5817 6.6337 64.3567C6.6449 64.3356 6.62378 64.3244 6.63498 64.3032C6.61639 64.1852 6.60898 64.0459 6.61151 63.9391C6.60412 63.7999 6.60664 63.693 6.59924 63.5538L6.73438 57.5375C6.80134 57.8707 6.80621 58.1167 6.83219 58.374Z" fill="url(#paint4_linear_0_874)"/>
<path d="M14.9885 45.894C25.955 39.3949 43.7632 39.3357 54.7761 45.7677C65.789 52.1996 65.8191 62.6598 54.8738 69.1702C43.9073 75.6694 26.099 75.7285 15.0861 69.2965C4.0732 62.8646 4.04311 52.4044 14.9885 45.894Z" fill="url(#paint5_linear_0_874)"/>
<path d="M17.6884 47.4873C27.1581 41.8724 42.5601 41.8097 52.0856 47.3722C61.6111 52.9347 61.6319 61.983 52.1623 67.5979C42.6926 73.2128 27.2906 73.2755 17.7651 67.713C8.26066 62.1617 8.21874 53.1022 17.6884 47.4873Z" fill="url(#paint6_linear_0_874)"/>
<path d="M18.3963 47.8892C27.4756 42.5003 42.2462 42.4547 51.3816 47.7834C60.5169 53.1121 60.5466 61.7863 51.4673 67.1751C42.388 72.564 27.6174 72.6095 18.482 67.2809C9.36779 61.9634 9.31701 53.278 18.3963 47.8892Z" fill="url(#paint7_linear_0_874)"/>
<path fill-rule="evenodd" clip-rule="evenodd" d="M30.0791 64.3402L25.8781 65.6892C18.9802 60.1619 17.8935 55.0985 24.4479 52.1396L23.1729 50.6965L24.2425 49.2096L25.8871 50.0887L27.0467 51.2373C27.7343 50.9562 28.5069 50.7412 29.2701 50.7121L28.1431 49.5651L29.2113 48.0788L30.7085 48.9526L32.1861 50.2598C39.1681 48.6787 51.1194 55.44 51.1194 55.44L50.3121 56.867L46.5264 57.3155C42.5046 52.4586 39.6205 52.0947 35.1871 52.8273L41.4598 55.923L40.7376 57.1996L37.5382 58.2193L31.9892 53.2118L29.7032 53.7867L35.9633 57.4097L35.2346 58.6978L32.1745 59.7922L27.0206 54.7795C23.3733 57.034 29.0752 63.3165 29.0752 63.3165L31.1191 62.7336L30.0791 64.3402Z" fill="#C67600"/>
<path fill-rule="evenodd" clip-rule="evenodd" d="M31.121 62.7336L26.7152 63.9847C19.8173 58.4572 18.9589 53.6137 25.5133 50.6549L24.2382 49.2118L26.9525 48.604L28.1121 49.7525C28.7997 49.4714 29.5722 49.2565 30.3355 49.2274L29.2085 48.0804L31.7739 47.4679L33.2514 48.7751C40.0037 47.7677 45.0783 49.1323 51.1204 55.4401L47.3346 55.8886C43.8374 52.4974 40.6858 50.61 36.2525 51.3426L41.4608 55.9231L38.5068 56.8103L33.0545 51.727L30.7685 52.302L35.9644 57.4098L32.8327 58.2958L28.086 53.2948C24.1576 55.723 25.2998 58.3198 31.121 62.7336Z" fill="#FEDC9E"/>
<path fill-rule="evenodd" clip-rule="evenodd" d="M27.8046 53.4753C24.2166 55.8524 25.4433 58.4289 31.1208 62.7337L26.7149 63.9847L30.6269 62.69C24.8056 58.2761 23.8761 55.9036 27.8046 53.4753Z" fill="#FEC25C"/>
<path fill-rule="evenodd" clip-rule="evenodd" d="M32.7006 51.8157L30.7667 52.3021L35.9626 57.4099L32.8309 58.2959L35.4688 57.3663L30.2728 52.2584L32.7006 51.8157Z" fill="#FEC25C"/>
<path fill-rule="evenodd" clip-rule="evenodd" d="M38.5354 51.2242C37.7802 51.1768 37.0193 51.2159 36.2519 51.3428L41.4603 55.9233L38.5062 56.8105L40.9664 55.8796L35.758 51.2991C36.6934 51.1445 37.6193 51.1202 38.5354 51.2242Z" fill="#FEC25C"/>
<path fill-rule="evenodd" clip-rule="evenodd" d="M27.9413 49.5844C27.8314 49.6239 27.7233 49.6657 27.6173 49.709L26.5847 48.6863L26.9516 48.6041L27.9413 49.5844Z" fill="#FEC25C"/>
<path fill-rule="evenodd" clip-rule="evenodd" d="M33.14 48.6781C33.0121 48.6943 32.8839 48.7122 32.7556 48.7313L31.4219 47.5514L31.772 47.4679L33.14 48.6781Z" fill="#FEC25C"/>
<path fill-rule="evenodd" clip-rule="evenodd" d="M37.5086 48.6101C36.1066 48.5044 34.688 48.5605 33.2511 48.7749L33.1416 48.678C34.616 48.4865 36.0712 48.4626 37.5086 48.6101Z" fill="#FFD000"/>
</g>
<g clip-path="url(#clip1_0_874)">
<path d="M118.016 119.018C118.035 119.028 118.045 119.009 118.064 119.019C118.263 119.005 118.472 118.972 118.681 118.938C118.71 118.93 118.757 118.931 118.786 118.922C118.995 118.889 119.186 118.846 119.405 118.794C119.433 118.785 119.481 118.786 119.519 118.759C119.72 118.697 119.939 118.645 120.121 118.574C120.149 118.565 120.178 118.556 120.206 118.547C120.417 118.467 120.617 118.405 120.837 118.306C120.837 118.306 120.837 118.306 120.866 118.297C120.962 118.252 121.058 118.207 121.153 118.162C121.278 118.108 121.412 118.035 121.537 117.981C121.632 117.936 121.738 117.872 121.834 117.827C121.968 117.754 122.093 117.7 122.208 117.617C122.314 117.553 122.42 117.49 122.507 117.416C122.622 117.333 122.757 117.26 122.872 117.178C122.978 117.114 123.075 117.021 123.18 116.958C123.296 116.875 123.412 116.792 123.537 116.691C123.586 116.645 123.663 116.59 123.711 116.543C123.875 116.414 124.039 116.286 124.195 116.128C124.282 116.054 124.35 115.971 124.437 115.897C124.572 115.777 124.718 115.638 124.834 115.508C124.931 115.415 125.009 115.313 125.106 115.221C125.223 115.091 125.368 114.952 125.485 114.822C125.563 114.719 125.67 114.608 125.748 114.506C125.865 114.376 125.991 114.227 126.089 114.087C126.246 113.882 126.412 113.659 126.578 113.435C126.588 113.416 126.608 113.379 126.618 113.36C126.774 113.155 126.922 112.922 127.069 112.688C127.109 112.614 127.157 112.567 127.197 112.492C127.354 112.24 127.522 111.969 127.689 111.698C127.866 111.409 128.025 111.109 128.193 110.791C128.243 110.697 128.302 110.585 128.352 110.491C128.461 110.285 128.57 110.079 128.66 109.863C128.729 109.732 128.77 109.61 128.839 109.479C128.92 109.282 129.019 109.095 129.099 108.898C129.15 108.757 129.219 108.626 129.27 108.485C129.35 108.287 129.43 108.09 129.511 107.893C129.551 107.771 129.601 107.677 129.642 107.555C129.732 107.339 129.793 107.132 129.884 106.916C129.924 106.794 129.965 106.672 130.006 106.55C130.077 106.324 130.149 106.098 130.221 105.872C130.251 105.769 130.292 105.647 130.323 105.543C130.395 105.27 130.478 104.978 130.561 104.686C130.572 104.62 130.591 104.583 130.602 104.517C130.686 104.177 130.77 103.838 130.863 103.48C130.894 103.377 130.896 103.282 130.927 103.179C130.99 102.924 131.042 102.689 131.086 102.424C131.108 102.292 131.149 102.17 131.161 102.056C131.214 101.821 131.238 101.594 131.291 101.358C131.313 101.226 127.18 101.247 127.202 101.115C127.236 100.87 127.289 100.634 127.313 100.407C127.335 100.275 127.357 100.143 127.369 100.029C127.404 99.7364 127.439 99.4435 127.464 99.1693C127.475 99.1032 127.478 99.0085 127.489 98.9424C127.535 98.5834 127.562 98.2145 127.59 97.8456C127.592 97.7509 127.604 97.6375 127.606 97.5427C127.631 97.2685 127.647 97.013 127.653 96.7289C127.657 96.5869 127.679 96.4547 127.682 96.3127C127.687 96.0759 127.693 95.8391 127.698 95.6024C127.702 95.4603 127.705 95.3182 127.708 95.1762C127.714 94.9394 127.719 94.7027 127.715 94.4846C127.718 94.3426 127.721 94.2005 127.706 94.0485C127.711 93.8118 127.698 93.5651 127.685 93.3184C127.678 93.1951 127.681 93.0531 127.675 92.9297C127.669 92.759 127.664 92.5883 127.648 92.4364C127.645 92.171 127.632 91.9243 127.6 91.6677C127.594 91.4971 127.57 91.3164 127.564 91.1458C127.551 90.8991 127.538 90.6524 127.496 90.4146C127.471 90.234 127.466 90.0633 127.442 89.8827C127.419 89.6547 127.387 89.3982 127.363 89.1702C127.339 88.9896 127.315 88.809 127.291 88.6284C127.249 88.3906 127.225 88.1626 127.184 87.9248C127.159 87.7442 127.135 87.5636 127.092 87.3731C127.049 87.1826 127.035 86.9833 126.992 86.7928C126.949 86.6023 126.925 86.4217 126.882 86.2312C126.839 86.0407 126.796 85.8502 126.753 85.6597C126.71 85.4691 126.667 85.2786 126.624 85.0881C126.581 84.8976 130.693 84.5537 130.64 84.3819C130.597 84.1914 130.544 84.0197 130.501 83.8292C130.458 83.6387 130.405 83.4669 130.344 83.2665C130.291 83.0947 130.248 82.9042 130.195 82.7324C130.124 82.5034 130.063 82.303 129.982 82.0927C129.929 81.9209 129.885 81.7777 129.832 81.6059C129.752 81.3956 129.681 81.1666 129.601 80.9563C129.538 80.8032 129.494 80.6601 129.431 80.507C129.332 80.2868 129.262 80.0577 129.162 79.8375C129.108 79.7131 129.046 79.56 128.992 79.4356C128.884 79.1868 128.757 78.928 128.649 78.6791C128.604 78.5833 128.559 78.4875 128.514 78.3917C128.414 78.1715 128.287 77.9601 128.187 77.7399C128.124 77.6342 128.088 77.5197 128.024 77.414C127.861 77.088 127.688 76.7808 127.497 76.4637C124.624 71.6123 120.87 69.1948 117.117 69.222L122.448 69.3383C126.191 69.3298 129.944 71.7473 132.827 76.58C133 76.8872 133.192 77.2043 133.355 77.5302C133.419 77.6359 133.454 77.7504 133.518 77.8561C133.617 78.0764 133.745 78.2878 133.844 78.508L133.853 78.5366C133.898 78.6324 133.924 78.7183 133.98 78.7954C134.088 79.0442 134.214 79.303 134.322 79.5519C134.376 79.6763 134.439 79.8293 134.493 79.9538C134.592 80.174 134.673 80.3843 134.762 80.6233C134.825 80.7763 134.869 80.9195 134.931 81.0725C135.012 81.2828 135.092 81.4931 135.163 81.7222C135.226 81.8752 135.279 82.047 135.313 82.2089C135.393 82.4192 135.445 82.6383 135.525 82.8487C135.543 82.9059 135.569 82.9918 135.587 83.0491C135.622 83.1636 135.639 83.2682 135.674 83.3827C135.717 83.5732 135.789 83.7549 135.832 83.9454C135.875 84.1359 135.928 84.3077 135.971 84.4982C136.014 84.6887 136.057 84.8792 136.109 85.051C136.152 85.2415 136.195 85.432 136.238 85.6225C136.281 85.813 136.324 86.0035 136.367 86.194C136.41 86.3845 136.453 86.575 136.478 86.7556C136.521 86.9461 136.545 87.1267 136.578 87.3359C136.586 87.4119 136.612 87.4978 136.62 87.5738C136.636 87.6784 136.653 87.783 136.669 87.8876C136.711 88.1255 136.735 88.3534 136.776 88.5913C136.801 88.7718 136.825 88.9525 136.849 89.1331C136.891 89.3709 136.904 89.6176 136.928 89.8455C136.952 90.0261 136.957 90.1968 136.982 90.3774C136.995 90.6241 137.037 90.8619 137.05 91.1086C137.056 91.2793 137.08 91.4599 137.085 91.6305C137.099 91.8772 137.121 92.1525 137.134 92.3992C137.141 92.5225 137.147 92.6459 137.144 92.7879C137.143 92.8353 137.152 92.8639 137.151 92.9113C137.157 93.0346 137.154 93.1767 137.161 93.3C137.174 93.5467 137.168 93.7834 137.172 94.0488C137.169 94.1909 137.165 94.3329 137.162 94.475C137.157 94.7118 137.151 94.9485 137.155 95.1666C137.152 95.3086 137.149 95.4507 137.146 95.5927C137.14 95.8295 137.135 96.0663 137.129 96.303C137.126 96.4451 137.123 96.5871 137.111 96.7006C137.085 96.9748 137.089 97.2402 137.063 97.5144C137.061 97.6091 137.049 97.7225 137.047 97.8172C137.02 98.1861 136.992 98.555 136.946 98.9141C136.935 98.9801 136.933 99.0748 136.922 99.1409C136.887 99.4338 136.851 99.7268 136.826 100.001C136.804 100.133 136.782 100.265 136.77 100.379C136.757 100.539 136.725 100.69 136.702 100.87C136.681 100.955 136.67 101.021 136.649 101.106C136.627 101.238 136.605 101.37 136.583 101.502C136.53 101.738 136.506 101.964 136.453 102.2C136.431 102.332 136.409 102.464 136.369 102.587C136.306 102.841 136.272 103.087 136.209 103.341C136.178 103.445 136.176 103.539 136.145 103.643C136.062 103.982 135.978 104.321 135.884 104.679C135.873 104.745 135.844 104.801 135.843 104.849C135.77 105.122 135.687 105.414 135.615 105.687C135.574 105.809 135.543 105.913 135.512 106.016C135.441 106.242 135.369 106.468 135.298 106.693C135.257 106.816 135.216 106.938 135.176 107.06C135.104 107.286 135.024 107.483 134.934 107.699C134.893 107.821 134.843 107.915 134.803 108.037C134.773 108.093 134.772 108.14 134.742 108.197C134.691 108.338 134.612 108.487 134.562 108.628C134.511 108.769 134.442 108.9 134.391 109.041C134.311 109.239 134.212 109.426 134.131 109.623C134.062 109.754 134.021 109.876 133.952 110.007C133.843 110.213 133.753 110.429 133.644 110.635C133.594 110.729 133.535 110.841 133.485 110.935C133.327 111.234 133.158 111.552 132.981 111.842C132.814 112.113 132.656 112.365 132.489 112.636C132.449 112.711 132.401 112.757 132.361 112.832C132.214 113.066 132.047 113.289 131.91 113.504C131.9 113.523 131.88 113.56 131.851 113.569C131.724 113.765 131.577 113.951 131.441 114.119C131.421 114.156 131.382 114.184 131.363 114.221C131.236 114.37 131.138 114.51 131.021 114.64C130.943 114.742 130.836 114.853 130.758 114.956C130.632 115.104 130.515 115.234 130.379 115.354C130.283 115.447 130.204 115.549 130.107 115.642C129.962 115.781 129.845 115.911 129.71 116.031C129.623 116.104 129.555 116.188 129.468 116.262C129.313 116.419 129.148 116.548 128.984 116.677C128.936 116.723 128.888 116.77 128.81 116.825C128.81 116.825 128.81 116.825 128.801 116.844C128.685 116.926 128.559 117.027 128.444 117.11C128.338 117.174 128.241 117.267 128.136 117.33C128.02 117.413 127.886 117.486 127.77 117.568C127.664 117.632 127.577 117.706 127.472 117.77C127.356 117.853 127.232 117.907 127.097 117.979C126.992 118.043 126.896 118.088 126.79 118.152C126.656 118.225 126.531 118.279 126.407 118.333C126.311 118.378 126.215 118.423 126.119 118.468C126.119 118.468 126.119 118.468 126.091 118.477C125.88 118.558 125.67 118.638 125.46 118.719C125.431 118.727 125.403 118.736 125.374 118.745C125.174 118.807 124.973 118.868 124.773 118.93C124.744 118.939 124.697 118.938 124.658 118.965C124.458 119.027 124.249 119.06 124.039 119.093C124.011 119.102 123.963 119.101 123.935 119.11C123.726 119.143 123.516 119.176 123.317 119.19C123.298 119.18 123.288 119.199 123.27 119.189C123.165 119.206 123.042 119.212 122.947 119.21C122.824 119.217 122.729 119.215 122.606 119.221L117.275 119.105C117.57 119.045 117.788 119.041 118.016 119.018Z" fill="url(#paint8_linear_0_874)"/>
<path d="M106.954 111.799C101.19 102.086 101.127 86.3077 106.819 76.5464C112.512 66.7852 121.78 66.7524 127.554 76.4464C133.319 86.159 133.381 101.937 127.689 111.699C121.997 121.46 112.729 121.493 106.954 111.799Z" fill="url(#paint9_linear_0_874)"/>
<path d="M108.364 109.406C103.384 101.019 103.32 87.3724 108.243 78.9295C113.166 70.4865 121.182 70.4629 126.163 78.8499C131.143 87.2368 131.207 100.883 126.285 109.326C121.372 117.75 113.345 117.793 108.364 109.406Z" fill="url(#paint10_linear_0_874)"/>
<path d="M108.721 108.778C103.941 100.737 103.892 87.65 108.608 79.5529C113.324 71.4558 121.009 71.4245 125.789 79.4657C130.569 87.5069 130.618 100.594 125.902 108.691C121.196 116.769 113.501 116.819 108.721 108.778Z" fill="url(#paint11_linear_0_874)"/>
<path fill-rule="evenodd" clip-rule="evenodd" d="M123.29 98.4169L124.488 102.138C119.595 108.253 115.109 109.219 112.484 103.413L111.206 104.544L109.888 103.597L110.666 102.139L111.683 101.111C111.433 100.502 111.243 99.8178 111.216 99.1416L110.201 100.141L108.883 99.1952L109.657 97.8682L110.814 96.5583C109.409 90.373 115.393 79.7801 115.393 79.7801L116.658 80.4946L117.057 83.8486C112.756 87.4147 112.435 89.9703 113.087 93.8979L115.826 88.3384L116.958 88.9775L117.863 91.8116L113.43 96.731L113.94 98.7561L117.147 93.2075L118.288 93.8524L119.26 96.5631L114.821 101.132C116.821 104.363 122.384 99.307 122.384 99.307L121.867 97.4964L123.29 98.4169Z" fill="#C67600"/>
<path fill-rule="evenodd" clip-rule="evenodd" d="M121.865 97.4949L122.976 101.398C118.083 107.513 113.792 108.276 111.167 102.47L109.889 103.601L109.349 101.196L110.366 100.168C110.116 99.5593 109.925 98.875 109.899 98.1987L108.883 99.1979L108.339 96.9253L109.497 95.6154C108.6 89.6334 109.806 85.1365 115.392 79.7795L115.791 83.1335C112.789 86.234 111.118 89.0274 111.77 92.955L115.825 88.3377L116.613 90.9545L112.112 95.7882L112.623 97.8133L117.146 93.2067L117.932 95.9809L113.504 100.189C115.658 103.669 117.958 102.655 121.865 97.4949Z" fill="#FEDC9E"/>
<path fill-rule="evenodd" clip-rule="evenodd" d="M113.665 100.439C115.773 103.616 118.055 102.528 121.866 97.4952L122.977 101.398L121.828 97.9328C117.92 103.093 115.819 103.918 113.665 100.439Z" fill="#FEC25C"/>
<path fill-rule="evenodd" clip-rule="evenodd" d="M112.191 96.1016L112.623 97.8149L117.145 93.2083L117.932 95.9825L117.107 93.6458L112.584 98.2525L112.191 96.1016Z" fill="#FEC25C"/>
<path fill-rule="evenodd" clip-rule="evenodd" d="M111.662 90.9323C111.621 91.6014 111.656 92.2756 111.769 92.9554L115.824 88.3381L116.612 90.9549L115.786 88.7757L111.73 93.3931C111.593 92.5644 111.571 91.744 111.662 90.9323Z" fill="#FEC25C"/>
<path fill-rule="evenodd" clip-rule="evenodd" d="M110.217 100.32C110.252 100.417 110.29 100.513 110.328 100.607L109.422 101.522L109.349 101.197L110.217 100.32Z" fill="#FEC25C"/>
<path fill-rule="evenodd" clip-rule="evenodd" d="M109.411 95.7142C109.426 95.8275 109.441 95.9411 109.458 96.0547L108.414 97.2371L108.34 96.927L109.411 95.7142Z" fill="#FEC25C"/>
<path fill-rule="evenodd" clip-rule="evenodd" d="M109.348 91.8436C109.255 93.0859 109.306 94.3427 109.497 95.6157L109.411 95.7128C109.24 94.4065 109.218 93.1172 109.348 91.8436Z" fill="#FFD000"/>
</g>
<defs>
<linearGradient id="paint0_linear_0_874" x1="88.3789" y1="59.8233" x2="120.251" y2="21.2545" gradientUnits="userSpaceOnUse">
<stop stop-color="#BD6517"/>
<stop offset="0.2921" stop-color="#CD7D29"/>
<stop offset="0.9071" stop-color="#F7BB57"/>
<stop offset="1" stop-color="#FEC55E"/>
</linearGradient>
<linearGradient id="paint1_linear_0_874" x1="83.9036" y1="59.5934" x2="112.471" y2="15.3281" gradientUnits="userSpaceOnUse">
<stop stop-color="#F28F3B"/>
<stop offset="0.4878" stop-color="#F7A74B"/>
<stop offset="1" stop-color="#FEC55E"/>
</linearGradient>
<linearGradient id="paint2_linear_0_874" x1="104.126" y1="46.0279" x2="94.8629" y2="25.8612" gradientUnits="userSpaceOnUse">
<stop stop-color="#FFCE75"/>
<stop offset="0.5122" stop-color="#FFB866"/>
<stop offset="1" stop-color="#F28F3B"/>
</linearGradient>
<linearGradient id="paint3_linear_0_874" x1="98.483" y1="31.8615" x2="96.535" y2="56.9668" gradientUnits="userSpaceOnUse">
<stop stop-color="#FFAD34"/>
<stop offset="1" stop-color="#FF8B4A"/>
</linearGradient>
<linearGradient id="paint4_linear_0_874" x1="6.89921" y1="73.2423" x2="60.5457" y2="66.1744" gradientUnits="userSpaceOnUse">
<stop stop-color="#9B4900"/>
<stop offset="0.2921" stop-color="#AB6113"/>
<stop offset="0.9071" stop-color="#E69D23"/>
<stop offset="1" stop-color="#FFC458"/>
</linearGradient>
<linearGradient id="paint5_linear_0_874" x1="3.52355" y1="69.7632" x2="58.7483" y2="55.75" gradientUnits="userSpaceOnUse">
<stop stop-color="#F28F3B"/>
<stop offset="0.4878" stop-color="#F7A74B"/>
<stop offset="1" stop-color="#FEC55E"/>
</linearGradient>
<linearGradient id="paint6_linear_0_874" x1="29.528" y1="73.9143" x2="37.0458" y2="51.1216" gradientUnits="userSpaceOnUse">
<stop stop-color="#FEC55E"/>
<stop offset="0.5122" stop-color="#F7A74B"/>
<stop offset="1" stop-color="#F28F3B"/>
</linearGradient>
<linearGradient id="paint7_linear_0_874" x1="35.4958" y1="58.5414" x2="15.4625" y2="76.9876" gradientUnits="userSpaceOnUse">
<stop stop-color="#FFAD34"/>
<stop offset="1" stop-color="#FF8B4A"/>
</linearGradient>
<linearGradient id="paint8_linear_0_874" x1="131.19" y1="118.95" x2="124.896" y2="71.4226" gradientUnits="userSpaceOnUse">
<stop stop-color="#9B4900"/>
<stop offset="0.2921" stop-color="#AB6113"/>
<stop offset="0.9071" stop-color="#E69D23"/>
<stop offset="1" stop-color="#FFC458"/>
</linearGradient>
<linearGradient id="paint9_linear_0_874" x1="128.109" y1="121.943" x2="115.661" y2="73.0212" gradientUnits="userSpaceOnUse">
<stop stop-color="#F28F3B"/>
<stop offset="0.4878" stop-color="#F7A74B"/>
<stop offset="1" stop-color="#FEC55E"/>
</linearGradient>
<linearGradient id="paint10_linear_0_874" x1="131.772" y1="98.9004" x2="111.573" y2="92.2528" gradientUnits="userSpaceOnUse">
<stop stop-color="#FEC55E"/>
<stop offset="0.5122" stop-color="#F7A74B"/>
<stop offset="1" stop-color="#F28F3B"/>
</linearGradient>
<linearGradient id="paint11_linear_0_874" x1="118.149" y1="93.6217" x2="134.504" y2="111.361" gradientUnits="userSpaceOnUse">
<stop stop-color="#FFAD34"/>
<stop offset="1" stop-color="#FF8B4A"/>
</linearGradient>
<clipPath id="clip0_0_874">
<rect width="55.2025" height="45.2261" fill="white" transform="translate(21.1782 27.9338) rotate(27.923)"/>
</clipPath>
<clipPath id="clip1_0_874">
<rect width="48.91" height="40.0708" fill="white" transform="translate(91.0364 106.325) rotate(-62.1144)"/>
</clipPath>
</defs>
</svg>
