<svg width="38" height="38" viewBox="0 0 38 38" fill="none" xmlns="http://www.w3.org/2000/svg">
<path d="M5.18176 14.4515C5.18176 11.1726 5.18176 9.53319 5.82999 8.2853C6.37624 7.23372 7.23366 6.3763 8.28524 5.83005C9.53313 5.18182 11.1726 5.18182 14.4515 5.18182H23.5484C26.8273 5.18182 28.4668 5.18182 29.7146 5.83005C30.7662 6.3763 31.6236 7.23372 32.1699 8.2853C32.8181 9.53319 32.8181 11.1726 32.8181 14.4515V23.5485C32.8181 26.8274 32.8181 28.4668 32.1699 29.7147C31.6236 30.7663 30.7662 31.6237 29.7146 32.17C28.4668 32.8182 26.8273 32.8182 23.5484 32.8182H14.4515C11.1726 32.8182 9.53313 32.8182 8.28524 32.17C7.23366 31.6237 6.37624 30.7663 5.82999 29.7147C5.18176 28.4668 5.18176 26.8274 5.18176 23.5485V14.4515Z" fill="url(#paint0_radial_0_994)"/>
<path d="M5.18176 14.4515C5.18176 11.1726 5.18176 9.53319 5.82999 8.2853C6.37624 7.23372 7.23366 6.3763 8.28524 5.83005C9.53313 5.18182 11.1726 5.18182 14.4515 5.18182H23.5484C26.8273 5.18182 28.4668 5.18182 29.7146 5.83005C30.7662 6.3763 31.6236 7.23372 32.1699 8.2853C32.8181 9.53319 32.8181 11.1726 32.8181 14.4515V23.5485C32.8181 26.8274 32.8181 28.4668 32.1699 29.7147C31.6236 30.7663 30.7662 31.6237 29.7146 32.17C28.4668 32.8182 26.8273 32.8182 23.5484 32.8182H14.4515C11.1726 32.8182 9.53313 32.8182 8.28524 32.17C7.23366 31.6237 6.37624 30.7663 5.82999 29.7147C5.18176 28.4668 5.18176 26.8274 5.18176 23.5485V14.4515Z" fill="url(#paint1_radial_0_994)"/>
<path d="M18.9846 8.9505C16.2554 8.9505 15.9128 8.96243 14.8409 9.01122C13.7711 9.06021 13.0408 9.22959 12.4019 9.4781C11.7409 9.73479 11.1803 10.0781 10.6217 10.6369C10.0627 11.1955 9.71934 11.7562 9.46183 12.417C9.21269 13.0562 9.04311 13.7867 8.99495 14.8561C8.94701 15.9281 8.93445 16.2708 8.93445 19.0001C8.93445 21.7294 8.94659 22.0709 8.99516 23.1428C9.04436 24.2127 9.21373 24.943 9.46204 25.5819C9.71892 26.2429 10.0623 26.8036 10.6211 27.3622C11.1794 27.9212 11.7401 28.2654 12.4006 28.5221C13.04 28.7706 13.7705 28.94 14.8401 28.989C15.912 29.0377 16.2543 29.0497 18.9833 29.0497C21.7127 29.0497 22.0542 29.0377 23.1261 28.989C24.196 28.94 24.927 28.7706 25.5664 28.5221C26.2272 28.2654 26.787 27.9212 27.3454 27.3622C27.9044 26.8036 28.2477 26.2429 28.5052 25.5821C28.7523 24.943 28.9218 24.2125 28.9721 23.143C29.0202 22.0711 29.0328 21.7294 29.0328 19.0001C29.0328 16.2708 29.0202 15.9283 28.9721 14.8563C28.9218 13.7864 28.7523 13.0562 28.5052 12.4172C28.2477 11.7562 27.9044 11.1955 27.3454 10.6369C26.7864 10.0779 26.2274 9.73458 25.5658 9.4781C24.9252 9.22959 24.1945 9.06021 23.1247 9.01122C22.0527 8.96243 21.7115 8.9505 18.9814 8.9505H18.9846ZM18.0831 10.7615C18.3506 10.7611 18.6492 10.7615 18.9846 10.7615C21.6677 10.7615 21.9857 10.7712 23.0453 10.8193C24.0251 10.8641 24.5569 11.0278 24.9111 11.1654C25.3801 11.3475 25.7144 11.5653 26.066 11.917C26.4177 12.2687 26.6354 12.6037 26.818 13.0727C26.9555 13.4265 27.1195 13.9583 27.1641 14.9382C27.2122 15.9976 27.2227 16.3158 27.2227 18.9978C27.2227 21.6798 27.2122 21.998 27.1641 23.0574C27.1193 24.0372 26.9555 24.569 26.818 24.9229C26.6358 25.3918 26.4177 25.7258 26.066 26.0773C25.7142 26.429 25.3803 26.6468 24.9111 26.8289C24.5573 26.9671 24.0251 27.1304 23.0453 27.1752C21.986 27.2234 21.6677 27.2338 18.9846 27.2338C16.3012 27.2338 15.9832 27.2234 14.9238 27.1752C13.944 27.13 13.4122 26.9663 13.0578 26.8287C12.5888 26.6466 12.2539 26.4288 11.9021 26.0771C11.5504 25.7254 11.3327 25.3912 11.1501 24.922C11.0126 24.5682 10.8486 24.0364 10.804 23.0566C10.7559 21.9972 10.7463 21.6789 10.7463 18.9953C10.7463 16.3116 10.7559 15.9951 10.804 14.9357C10.8488 13.9558 11.0126 13.424 11.1501 13.0698C11.3322 12.6008 11.5504 12.2658 11.9021 11.9141C12.2539 11.5623 12.5888 11.3446 13.0578 11.162C13.412 11.0239 13.944 10.8606 14.9238 10.8155C15.8509 10.7737 16.2101 10.7611 18.0831 10.759V10.7615ZM24.3488 12.4302C23.683 12.4302 23.1429 12.9697 23.1429 13.6357C23.1429 14.3015 23.683 14.8417 24.3488 14.8417C25.0146 14.8417 25.5547 14.3015 25.5547 13.6357C25.5547 12.9699 25.0146 12.4298 24.3488 12.4298V12.4302ZM18.9846 13.8392C16.1345 13.8392 13.8238 16.15 13.8238 19.0001C13.8238 21.8502 16.1345 24.1599 18.9846 24.1599C21.8346 24.1599 24.1445 21.8502 24.1445 19.0001C24.1445 16.15 21.8344 13.8392 18.9844 13.8392H18.9846ZM18.9846 15.6502C20.8345 15.6502 22.3343 17.1499 22.3343 19.0001C22.3343 20.85 20.8345 22.3499 18.9846 22.3499C17.1345 22.3499 15.6348 20.85 15.6348 19.0001C15.6348 17.1499 17.1345 15.6502 18.9846 15.6502V15.6502Z" fill="white"/>
<defs>
<radialGradient id="paint0_radial_0_994" cx="0" cy="0" r="1" gradientUnits="userSpaceOnUse" gradientTransform="translate(12.5227 34.9468) rotate(-90) scale(27.3897 25.4746)">
<stop stop-color="#FFDD55"/>
<stop offset="0.1" stop-color="#FFDD55"/>
<stop offset="0.5" stop-color="#FF543E"/>
<stop offset="1" stop-color="#C837AB"/>
</radialGradient>
<radialGradient id="paint1_radial_0_994" cx="0" cy="0" r="1" gradientUnits="userSpaceOnUse" gradientTransform="translate(0.552526 7.1727) rotate(78.6806) scale(12.2433 50.4674)">
<stop stop-color="#3771C8"/>
<stop offset="0.128" stop-color="#3771C8"/>
<stop offset="1" stop-color="#6600FF" stop-opacity="0"/>
</radialGradient>
</defs>
</svg>
