<svg width="260" height="153" viewBox="0 0 260 153" fill="none" xmlns="http://www.w3.org/2000/svg">
<circle r="63.0123" transform="matrix(0.884952 -0.465682 0.884952 0.465682 129.652 97.8364)" fill="white" fill-opacity="0.08"/>
<ellipse cx="129.253" cy="94.0231" rx="53.1443" ry="33.7587" fill="#079A65"/>
<path d="M177.93 87.5277C177.974 73.0903 156.606 61.1974 129.489 61.1267C102.372 61.0559 80.6214 73.5231 80.5769 87.9605C80.5325 102.398 102.089 113.464 129.206 113.535C156.323 113.606 177.885 101.965 177.93 87.5277Z" fill="#01AF70"/>
<path d="M174.507 86.6474C174.548 73.2269 154.685 62.1719 129.478 62.1061C104.271 62.0403 84.0531 73.6293 84.0117 87.0497C83.9704 100.47 104.009 110.757 129.216 110.823C154.422 110.889 174.466 100.068 174.507 86.6474Z" fill="#21DB98"/>
<path fill-rule="evenodd" clip-rule="evenodd" d="M147.6 99.0314C147.64 99.0081 147.681 98.9859 147.719 98.9616C147.741 98.9551 147.753 98.9428 147.77 98.932C149.484 97.9069 150.438 96.5825 150.459 95.1997L150.457 95.0601L150.449 95.0527C150.442 95.0227 150.434 94.9915 150.422 94.9615C150.367 94.826 150.251 94.6993 150.083 94.5922C149.915 94.485 149.702 94.401 149.46 94.3472L149.288 94.314C146.352 93.751 143.27 93.4457 140.165 93.4104C139.455 92.0577 139.099 90.6627 139.107 89.265C139.109 88.8273 139.145 88.3892 139.229 87.9503L139.22 87.942L139.235 87.9194C140.232 86.2291 141.789 84.6514 143.833 83.2596C145.138 83.2765 146.44 83.2174 147.716 83.0835C149.171 82.9323 150.581 82.6823 151.91 82.3395C151.919 82.3375 151.927 82.3349 151.935 82.3318C152.042 82.3051 152.147 82.2774 152.251 82.2486C152.473 82.1794 152.672 82.092 152.841 81.9895C153.255 81.7424 153.481 81.4216 153.477 81.0878C153.477 81.0021 153.461 80.9164 153.429 80.8321C153.261 80.6295 153.086 80.4292 152.903 80.2297C152.669 79.9656 152.422 79.7044 152.163 79.446C152.162 79.4427 152.159 79.4397 152.154 79.4376C151.501 78.7748 150.787 78.1245 150.013 77.4867L150.003 77.4783C149.7 77.2288 149.387 76.9814 149.066 76.7362C148.836 76.5624 148.602 76.3897 148.366 76.2192C148.239 76.1603 148.102 76.108 147.957 76.0632C147.409 75.8932 146.767 75.8351 146.152 75.8998C145.898 75.9257 145.655 75.9727 145.43 76.0389C145.332 76.0687 145.234 76.0984 145.15 76.1353C145.15 76.1353 145.15 76.1353 145.136 76.1395C143.898 76.5771 142.772 77.0977 141.787 77.6887C140.93 78.2022 140.182 78.765 139.558 79.367C136.245 79.6023 132.87 79.5226 129.589 79.1316L129.547 79.1263L129.538 79.1179C128.777 78.9287 128.043 78.7312 127.323 78.5128C125.018 77.8178 122.899 76.9586 121.027 75.9595C122.521 74.5268 123.56 72.9694 124.101 71.3494C124.11 71.3269 124.119 71.3061 124.124 71.2849C124.168 71.1434 124.143 70.9977 124.051 70.8615C123.96 70.7253 123.805 70.6031 123.601 70.5066L123.5 70.4618L123.488 70.4513C123.402 70.4228 123.315 70.3959 123.226 70.3697C123.211 70.3644 123.195 70.3599 123.178 70.3564C121.548 69.8748 119.72 69.6206 117.869 69.6182C117.15 69.6182 116.435 69.6553 115.733 69.7289C115.711 69.7354 115.682 69.7346 115.657 69.7379C115.649 69.7392 115.641 69.7415 115.635 69.7445C115.584 69.7502 115.537 69.7547 115.487 69.7615C115.396 69.7791 115.315 69.8084 115.252 69.8469C115.24 69.8539 115.229 69.8615 115.219 69.8694C115.196 69.889 115.174 69.9096 115.153 69.9302C114.92 70.1464 114.705 70.3678 114.506 70.5943C113.684 71.5118 113.152 72.4974 112.933 73.5119C112.818 74.0879 112.805 74.6692 112.892 75.2484C110.254 77.1061 106.828 78.6048 102.885 79.626C102.867 79.6306 102.85 79.6358 102.834 79.6415C102.799 79.6522 102.767 79.666 102.741 79.6824C102.678 79.7221 102.647 79.7737 102.656 79.8258C102.664 79.8781 102.711 79.9268 102.786 79.9614L102.796 79.9709L102.851 79.9894C104.796 80.6557 106.646 81.3977 108.387 82.2091C108.498 82.258 108.603 82.3087 108.711 82.3588C116.319 85.9496 121.536 90.7506 123.555 96.0208C124.018 97.2273 124.312 98.4489 124.434 99.6755L124.444 99.7077C124.463 99.7591 124.52 99.8048 124.602 99.8348C124.683 99.8647 124.784 99.8766 124.88 99.8679C124.92 99.8641 124.958 99.8569 124.993 99.8464C125.01 99.8418 125.027 99.8366 125.043 99.8309C128.696 98.5455 132.877 97.7342 137.254 97.461C138.164 97.7912 139.129 98.0756 140.136 98.3102C141.909 98.7247 143.793 98.9826 145.713 99.0736C146.187 99.0964 146.659 99.1084 147.134 99.1112C147.149 99.112 147.164 99.1122 147.179 99.1116L147.254 99.1111C147.259 99.1106 147.263 99.1095 147.266 99.1075C147.286 99.1071 147.305 99.1058 147.325 99.1038C147.427 99.0926 147.522 99.0676 147.6 99.0314ZM144.573 80.4312L144.592 80.4254C144.592 80.4254 144.582 80.4299 144.573 80.4312Z" fill="#038E5C"/>
<ellipse cx="129.253" cy="94.0231" rx="53.1443" ry="33.7587" fill="#B20743"/>
<path d="M177.93 87.5277C177.974 73.0903 156.606 61.1974 129.489 61.1267C102.372 61.0559 80.6214 73.5231 80.5769 87.9605C80.5325 102.398 102.089 113.464 129.206 113.535C156.323 113.606 177.885 101.965 177.93 87.5277Z" fill="#CF0B50"/>
<path d="M174.507 86.6474C174.548 73.2269 154.685 62.1719 129.478 62.1061C104.271 62.0403 84.0531 73.6293 84.0117 87.0497C83.9704 100.47 104.009 110.757 129.216 110.823C154.422 110.889 174.466 100.068 174.507 86.6474Z" fill="#FF0960"/>
<path d="M121.57 84.2882L123.964 85.5602L125.661 84.6584L126.923 85.3292L128.89 84.2845L127.627 83.6137L133.919 80.2707L130.401 78.4012C125.716 78.896 122.977 79.2443 120.411 79.6768L118.348 80.7728L123.267 83.3864L121.57 84.2882ZM122.411 80.8645C124.757 80.4686 126.848 80.2157 129.807 79.9334L129.856 79.9591L125.213 82.426L122.342 80.9011L122.411 80.8645ZM131.035 89.3174L133.429 90.5894L135.127 89.6877L136.389 90.3585L138.355 89.3138L137.093 88.643L143.385 85.2999L139.866 83.4304C135.182 83.9253 132.443 84.2735 129.876 84.7061L127.813 85.8021L132.733 88.4157L131.035 89.3174ZM131.877 85.8937C134.223 85.4978 136.313 85.2449 139.273 84.9627L139.321 84.9883L134.678 87.4553L131.808 85.9304L131.877 85.8937Z" fill="white"/>
<ellipse cx="129.253" cy="94.0231" rx="53.1443" ry="33.7587" fill="#E28008"/>
<path d="M177.93 87.5277C177.974 73.0903 156.606 61.1974 129.489 61.1267C102.372 61.0559 80.6214 73.5231 80.5769 87.9605C80.5325 102.398 102.089 113.464 129.206 113.535C156.323 113.606 177.885 101.965 177.93 87.5277Z" fill="#F88A03"/>
<path d="M174.507 86.6474C174.548 73.2269 154.685 62.1719 129.478 62.1061C104.271 62.0403 84.0531 73.6293 84.0117 87.0497C83.9704 100.47 104.009 110.757 129.216 110.823C154.422 110.889 174.466 100.068 174.507 86.6474Z" fill="#FF9F29"/>
<path d="M121.57 84.2882L123.964 85.5602L125.661 84.6584L126.923 85.3292L128.89 84.2845L127.627 83.6137L133.919 80.2707L130.401 78.4012C125.716 78.896 122.977 79.2443 120.411 79.6768L118.348 80.7728L123.267 83.3864L121.57 84.2882ZM122.411 80.8645C124.757 80.4686 126.848 80.2157 129.807 79.9334L129.856 79.9591L125.213 82.426L122.342 80.9011L122.411 80.8645ZM131.035 89.3174L133.429 90.5894L135.127 89.6877L136.389 90.3585L138.355 89.3138L137.093 88.643L143.385 85.2999L139.866 83.4304C135.182 83.9253 132.443 84.2735 129.876 84.7061L127.813 85.8021L132.733 88.4157L131.035 89.3174ZM131.877 85.8937C134.223 85.4978 136.313 85.2449 139.273 84.9627L139.321 84.9883L134.678 87.4553L131.808 85.9304L131.877 85.8937Z" fill="white"/>
<ellipse cx="129.253" cy="94.0231" rx="53.1443" ry="33.7587" fill="#829CC4"/>
<path d="M177.93 87.5277C177.974 73.0903 156.606 61.1974 129.489 61.1267C102.372 61.0559 80.6214 73.5231 80.5769 87.9605C80.5325 102.398 102.089 113.464 129.206 113.535C156.323 113.606 177.885 101.965 177.93 87.5277Z" fill="#A1BDE6"/>
<path d="M174.507 86.6474C174.548 73.2269 154.685 62.1719 129.478 62.1061C104.271 62.0403 84.0531 73.6293 84.0117 87.0497C83.9704 100.47 104.009 110.757 129.216 110.823C154.422 110.889 174.466 100.068 174.507 86.6474Z" fill="#C3DAFC"/>
<path d="M121.57 84.2882L123.964 85.5602L125.661 84.6584L126.923 85.3292L128.89 84.2845L127.627 83.6137L133.919 80.2707L130.401 78.4012C125.716 78.896 122.977 79.2443 120.411 79.6768L118.348 80.7728L123.267 83.3864L121.57 84.2882ZM122.411 80.8645C124.757 80.4686 126.848 80.2157 129.807 79.9334L129.856 79.9591L125.213 82.426L122.342 80.9011L122.411 80.8645ZM131.035 89.3174L133.429 90.5894L135.127 89.6877L136.389 90.3585L138.355 89.3138L137.093 88.643L143.385 85.2999L139.866 83.4304C135.182 83.9253 132.443 84.2735 129.876 84.7061L127.813 85.8021L132.733 88.4157L131.035 89.3174ZM131.877 85.8937C134.223 85.4978 136.313 85.2449 139.273 84.9627L139.321 84.9883L134.678 87.4553L131.808 85.9304L131.877 85.8937Z" fill="#637CA3"/>
<g clip-path="url(#clip0_0_854)">
<path fill-rule="evenodd" clip-rule="evenodd" d="M137.002 107.574L175.387 89.5737C177.656 88.5098 177.748 85.2205 175.543 84.0231L152.486 71.5035L137.002 107.574Z" fill="url(#paint0_linear_0_854)"/>
<path d="M89.8013 87.8779L88.2629 37.9047L137.212 51.0035V69.7086L136.992 107.758L89.8013 87.8779Z" fill="#F22740"/>
<path d="M88.0532 49.4901L88.1831 37.9166L137.132 51.0051V63.9699L88.0532 49.4901Z" fill="#F22740"/>
<path d="M137.212 51.0051V63.9699L170.737 48.5111L170.966 37.8754L137.212 51.0051Z" fill="#BE1622"/>
<path d="M105.835 54.7358L105.515 42.5852L119.231 46.2541V58.7242L105.835 54.7358Z" fill="#FFDD00"/>
<path d="M150.758 58.1058L150.438 45.8625L161.316 41.6577V52.654L150.758 58.1058Z" fill="#D15700"/>
<path d="M136.832 107.77L137.212 63.9699L168.948 49.1294L168.179 87.7043L136.832 107.77Z" fill="#BE1622"/>
<path d="M88.6526 49.6756L88.7924 51.9532L137.212 67.0101V63.9184L88.6526 49.6756Z" fill="#BE1622"/>
<path d="M106.874 54.9316L108.652 95.8769L119.231 100.319L119.82 59.0952L106.874 54.9316Z" fill="#FFDD00"/>
<path d="M119.73 61.5789L106.993 57.5905L106.883 55.0244L119.78 58.8273L119.73 61.5789Z" fill="#D15700"/>
<path d="M149.888 58.4253L150.198 99.1851L160.347 92.713V53.025L149.888 58.4253Z" fill="#D15700"/>
<path d="M137.212 63.9699L168.958 49.1294L168.819 51.1906L137.212 67.0101V63.9699Z" fill="#991626"/>
<path d="M160.357 53.1178V55.3954L149.928 60.6823V58.0852L160.357 53.1178Z" fill="#AF4700"/>
<path d="M88.1831 37.9166L122.627 25.4877L170.976 37.9166L137.212 51.0051L88.1831 37.9166Z" fill="#FF3851"/>
<path d="M105.525 42.5749L136.852 29.1772L149.838 32.5267L119.231 46.1922L113.097 44.6979L105.525 42.5749Z" fill="#FFDD00"/>
<path d="M101.629 33.042L150.438 45.8625L161.326 41.668L113.237 28.8784L101.629 33.042Z" fill="#FFDD00"/>
<path d="M134.924 32.8565L140.778 35.1341C147.041 30.7953 161.356 23.2823 155.133 14.9758C154.571 14.1277 153.84 13.4131 152.989 12.8799C152.138 12.3467 151.187 12.0072 150.198 11.884C159.938 23.2823 140.089 28.8681 134.924 32.8565Z" fill="#D15700"/>
<path d="M126.473 35.2783L129.989 36.6593L131.268 35.0104C131.318 25.395 140.648 11.3069 149.069 10.6061C150.233 10.5015 151.404 10.6706 152.496 11.1007C152.496 11.1007 145.503 7.92654 144.674 7.74103C135.713 5.69016 126.513 24.8179 126.473 35.2783Z" fill="#FFDD00"/>
<path d="M131.268 35.0001L132.966 33.5263C132.966 24.7663 142.436 11.2244 150.118 11.9871C151.107 12.1102 152.058 12.4498 152.909 12.983C153.76 13.5162 154.491 14.2307 155.053 15.0788C161.276 23.3853 146.062 31.7434 140.648 35.2783L141.837 35.639C148.7 31.9186 163.514 23.9213 156.242 14.3059C155.281 12.9506 153.988 11.8835 152.496 11.2141C151.41 10.7624 150.233 10.5926 149.069 10.7194C140.648 11.3172 131.318 25.4362 131.268 35.0001Z" fill="#FCAA32"/>
<path d="M131.368 38.3186L131.598 39.7511C131.598 39.7511 134.385 36.4841 140.588 35.773C146.792 35.0619 154.783 34.9176 161.276 28.7341V27.2397C161.276 27.2397 128.391 32.4648 131.368 38.3186Z" fill="#FCAA32"/>
<path d="M157.191 22.5506L157.73 24.1583L156.961 27.2501H156.092L157.191 22.5506Z" fill="#FCAA32"/>
<path d="M128.711 36.7933C128.711 36.7933 133.655 30.4964 143.535 28.9299C154.324 27.2294 157.191 22.5506 157.191 22.5506L156.092 27.2397H161.206C161.206 27.2397 155.213 32.7843 147.531 33.5469C138.91 34.3817 133.376 35.9482 131.318 38.3186L128.711 36.7933Z" fill="#FFDD00"/>
<path d="M119.98 32.1969L117.233 32.5988C116.873 28.8578 112.528 25.5702 108.682 22.3548C104.206 18.6034 100.42 14.9551 104.336 11.0183C105.003 10.2463 105.82 9.62792 106.734 9.20352C107.648 8.77911 108.638 8.55821 109.641 8.55519C100.81 18.4282 121.528 23.9213 119.98 32.1969Z" fill="#D15700"/>
<path d="M129.49 32.1866L125.144 33.887C126.423 24.3644 119.061 9.256 110.829 7.42155C109.698 7.14354 108.516 7.16125 107.393 7.47308C107.393 7.47308 114.855 5.15426 115.634 5.03059C124.775 4.20612 130.858 21.8189 129.49 32.1866Z" fill="#FFDD00"/>
<path d="M125.224 33.887L123.706 32.1866C124.825 23.509 117.373 8.85407 109.641 8.58611C108.643 8.59018 107.657 8.80645 106.745 9.22139C105.832 9.63633 105.012 10.241 104.336 10.9977C97.0638 18.4282 116.453 24.5396 117.233 32.6297L116.084 33.3924C114.486 25.8381 94.7263 18.6859 103.187 10.0599C104.323 8.82421 105.763 7.93011 107.353 7.47308C108.477 7.16125 109.658 7.14354 110.789 7.42155C119.111 9.15294 126.423 24.3644 125.224 33.887Z" fill="#FCAA32"/>
<path d="M128.121 38.0094L127.792 39.4419C127.792 39.4419 125.224 36.0307 119.111 34.9176C112.422 33.7842 105.807 32.232 99.3014 30.2697L99.3913 28.7341C99.651 28.7341 132.686 30.3624 128.121 38.0094Z" fill="#FCAA32"/>
<path d="M130.858 36.7005C130.858 36.7005 126.703 31.29 116.953 29.0639C106.304 26.6729 103.697 24.282 103.697 24.282L104.836 28.26L99.3914 28.7341C103.55 30.3265 107.854 31.4832 112.238 32.1866C120.799 33.6191 126.223 35.536 128.121 38.0094L130.858 36.7005Z" fill="#FFDD00"/>
<path d="M103.697 24.282L103.057 25.7969L104.056 28.3322L104.876 28.26L103.697 24.282Z" fill="#FCAA32"/>
<path d="M127.752 39.4316L129.4 40.0087L131.598 39.7408L131.368 38.3083L129.72 37.3704L128.121 38.0094L127.752 39.4316Z" fill="#FCAA32"/>
</g>
<defs>
<linearGradient id="paint0_linear_0_854" x1="145.493" y1="91.0846" x2="185.987" y2="86.2388" gradientUnits="userSpaceOnUse">
<stop stop-opacity="0.38"/>
<stop offset="1" stop-opacity="0.16"/>
</linearGradient>
<clipPath id="clip0_0_854">
<rect width="97.8974" height="104.089" fill="white" transform="translate(88.0532 4)"/>
</clipPath>
</defs>
</svg>
