<svg width="260" height="153" viewBox="0 0 260 153" fill="none" xmlns="http://www.w3.org/2000/svg">
<path fill-rule="evenodd" clip-rule="evenodd" d="M94.7655 63.7631L90.2306 83.4193C99.6606 100.655 112.612 115.436 127.309 128.705L132.257 111.109L94.7655 63.7631Z" fill="#B9E299"/>
<path fill-rule="evenodd" clip-rule="evenodd" d="M133.038 107.645L127.31 128.706C153.854 118.003 180.131 104.414 205.892 85.2314L210.959 68.5456L133.038 107.645Z" fill="#628349"/>
<path fill-rule="evenodd" clip-rule="evenodd" d="M95.4731 63.8917C104.469 80.0987 116.869 95.604 132.022 110.542C159.753 98.7469 186.115 85.0574 210.285 68.3306C196.919 59.2729 185.135 49.5134 175.068 38.9916C150.037 50.2216 123.364 58.2447 95.4731 63.8917Z" fill="#7DA75D" stroke="#B9E299" stroke-width="2.21364" stroke-miterlimit="1.5" stroke-linecap="round" stroke-linejoin="round"/>
<path fill-rule="evenodd" clip-rule="evenodd" d="M124.282 56.2013L161.376 96.691L160.79 100.431L208.529 73.6059L160.456 103.805L160.277 105.97L206.888 79.144L160.237 108.578L159.555 110.627L205.425 83.057L158.272 114.325L155.121 116.068L155.225 115.118C138.946 122.56 130.4 124.389 128.777 124.703C126.78 125.09 136.468 121.803 155.481 112.769L155.667 111.188C138.671 118.172 128.462 120.952 129.709 119.938C130.686 119.143 139.505 116.324 156.015 108.074L156.328 105.264C140.907 112.533 132.479 115.35 131.105 115.49C129.392 115.663 138.955 111.763 156.679 102.123L157.045 98.849C157.045 98.849 123.648 57.9497 124.282 56.2013Z" fill="#2A550A" fill-opacity="0.3"/>
<path fill-rule="evenodd" clip-rule="evenodd" d="M123.058 55.4873L147.618 47.4164L188.292 82.1049C178.172 90.4334 170.715 94.8574 159.797 97.533L123.058 55.4873Z" fill="#FFDF00"/>
<path fill-rule="evenodd" clip-rule="evenodd" d="M159.729 97.0665C159.325 103.752 159.319 109.169 157.298 115.439L186.9 99.98C188.992 94.4008 189.282 88.3916 188.219 82.0592L159.729 97.0665Z" fill="#FFB800"/>
<path fill-rule="evenodd" clip-rule="evenodd" d="M54.2384 83.2546L57.2167 103.206C72.3035 115.791 89.7684 124.802 108.303 131.768L106.464 113.582L54.2384 83.2546Z" fill="#B9E299"/>
<path fill-rule="evenodd" clip-rule="evenodd" d="M105.92 110.072L108.302 131.768C129.083 112.089 148.558 89.8211 165.505 62.5371L164.11 45.1547L105.92 110.072Z" fill="#628349"/>
<path fill-rule="evenodd" clip-rule="evenodd" d="M54.94 83.1153C69.2463 94.9021 86.4632 104.789 106.034 113.14C127.518 92.0099 147.037 69.6173 163.402 45.2012C147.648 41.6675 133.108 36.9014 119.887 30.7971C100.708 50.4132 78.8254 67.6469 54.94 83.1153Z" fill="#7DA75D" stroke="#B9E299" stroke-width="2.21364" stroke-miterlimit="1.5" stroke-linecap="round" stroke-linejoin="round"/>
<path fill-rule="evenodd" clip-rule="evenodd" d="M78.9361 65.4087L128.281 89.5019L129.105 93.1969L163.704 50.753L130.03 96.4591L130.656 98.5388L164.205 56.5072L131.574 100.98L131.689 103.137L164.277 60.6842L131.849 107.048L129.556 109.824L129.305 108.902C116.882 121.788 109.6 126.62 108.205 127.506C106.487 128.598 114.299 121.991 128.683 106.622L128.277 105.083C115.02 117.805 106.538 124.13 107.327 122.731C107.945 121.633 115.119 115.78 127.46 102.058L126.723 99.3276C115.035 111.739 108.224 117.447 106.997 118.08C105.466 118.869 112.937 111.738 125.899 96.2765L125.041 93.096C125.041 93.096 78.9866 67.2678 78.9361 65.4087Z" fill="#2A550A" fill-opacity="0.3"/>
<path fill-rule="evenodd" clip-rule="evenodd" d="M77.5363 65.1924L97.4344 48.6882L147.986 66.072C141.619 77.5279 136.3 84.3754 127.121 90.8633L77.5363 65.1924Z" fill="#FFDF00"/>
<path fill-rule="evenodd" clip-rule="evenodd" d="M126.881 90.4561C128.954 96.8247 130.932 101.868 131.347 108.442L153.233 83.2169C153.136 77.2593 151.205 71.5613 147.897 66.058L126.881 90.4561Z" fill="#FFB800"/>
<path d="M122.97 57.7985C122.976 57.8198 122.998 57.8141 123.003 57.8354C123.156 57.9777 123.33 58.1142 123.504 58.2506C123.531 58.2663 123.563 58.3033 123.591 58.3189C123.764 58.4554 123.933 58.5705 124.128 58.7013C124.155 58.7169 124.188 58.7539 124.236 58.7638C124.426 58.8732 124.621 59.004 124.805 59.092C124.832 59.1077 124.859 59.1233 124.886 59.1389C125.097 59.2426 125.286 59.352 125.519 59.45C125.519 59.45 125.519 59.45 125.546 59.4656C125.648 59.5068 125.751 59.548 125.853 59.5892C125.983 59.646 126.134 59.697 126.264 59.7538C126.366 59.795 126.49 59.8304 126.593 59.8716C126.744 59.9227 126.874 59.9795 127.019 60.0092C127.143 60.0447 127.267 60.0801 127.385 60.0942C127.53 60.1239 127.681 60.175 127.826 60.2047C127.95 60.2402 128.09 60.2486 128.214 60.284C128.359 60.3137 128.504 60.3435 128.671 60.3675C128.741 60.3716 128.838 60.3915 128.908 60.3956C129.123 60.4295 129.338 60.4635 129.568 60.4703C129.687 60.4844 129.799 60.4771 129.917 60.4912C130.105 60.5095 130.315 60.5221 130.497 60.519C130.636 60.5274 130.77 60.5144 130.91 60.5228C131.092 60.5197 131.301 60.5322 131.484 60.5292C131.618 60.5162 131.778 60.5188 131.912 60.5058C132.095 60.5028 132.298 60.494 132.475 60.4695C132.742 60.4436 133.031 60.4119 133.321 60.3802C133.342 60.3745 133.385 60.3631 133.406 60.3573C133.674 60.3314 133.957 60.2783 134.24 60.2253C134.326 60.2024 134.395 60.2066 134.481 60.1837C134.785 60.1249 135.112 60.0605 135.438 59.996C135.785 59.9258 136.127 59.8342 136.49 59.7369C136.596 59.7083 136.724 59.674 136.831 59.6454C137.066 59.5824 137.301 59.5195 137.53 59.4352C137.68 59.3951 137.802 59.3394 137.951 59.2994C138.159 59.2208 138.373 59.1636 138.581 59.085C138.724 59.0236 138.874 58.9835 139.018 58.9221C139.225 58.8435 139.433 58.765 139.641 58.6864C139.763 58.6307 139.87 58.6021 139.993 58.5464C140.222 58.4621 140.424 58.3622 140.653 58.2779C140.775 58.2222 140.898 58.1665 141.02 58.1108C141.244 58.0051 141.467 57.8995 141.691 57.7938C141.792 57.7439 141.914 57.6882 142.015 57.6382C142.275 57.4998 142.557 57.3556 142.839 57.2114C142.897 57.1729 142.94 57.1615 142.998 57.1229C143.317 56.946 143.636 56.769 143.976 56.5863C144.077 56.5363 144.151 56.4707 144.252 56.4208C144.491 56.2881 144.709 56.1611 144.942 56.007C145.059 55.9299 145.181 55.8742 145.277 55.8029C145.494 55.6759 145.685 55.5333 145.903 55.4063C146.019 55.3292 143.067 52.1837 143.184 52.1067C143.396 51.9583 143.614 51.8313 143.804 51.6887C143.921 51.6116 144.038 51.5346 144.133 51.4633C144.382 51.2821 144.631 51.101 144.859 50.9255C144.917 50.887 144.991 50.8214 145.049 50.7829C145.356 50.5632 145.658 50.3222 145.96 50.0812C146.034 50.0156 146.129 49.9443 146.203 49.8787C146.431 49.7032 146.637 49.5335 146.859 49.3367C146.97 49.2383 147.086 49.1613 147.197 49.0629C147.382 48.8989 147.567 48.7349 147.752 48.5709C147.863 48.4725 147.974 48.3741 148.085 48.2757C148.27 48.1117 148.455 47.9478 148.618 47.7895C148.729 47.6911 148.84 47.5927 148.945 47.4729C149.13 47.309 149.31 47.1236 149.489 46.9383C149.578 46.8456 149.689 46.7472 149.779 46.6545C149.906 46.5291 150.032 46.4036 150.137 46.2839C150.338 46.0928 150.517 45.9075 150.691 45.7008C150.817 45.5753 150.938 45.4285 151.065 45.303C151.244 45.1176 151.423 44.9323 151.575 44.7313C151.696 44.5845 151.823 44.459 151.943 44.3122C152.101 44.1326 152.275 43.9259 152.433 43.7463C152.553 43.5995 152.674 43.4526 152.795 43.3058C152.947 43.1048 153.105 42.9252 153.257 42.7243C153.378 42.5774 153.499 42.4306 153.614 42.2624C153.729 42.0942 153.871 41.9417 153.987 41.7735C154.102 41.6054 154.223 41.4585 154.338 41.2904C154.453 41.1222 154.568 40.954 154.683 40.7858C154.798 40.6176 154.913 40.4495 155.028 40.2813C155.144 40.1131 158.327 43.0134 158.421 42.851C158.536 42.6828 158.63 42.5203 158.745 42.3522C158.86 42.184 158.954 42.0215 159.064 41.832C159.157 41.6695 159.273 41.5014 159.366 41.3389C159.491 41.1223 159.601 40.9328 159.705 40.7219C159.798 40.5595 159.876 40.4241 159.97 40.2616C160.074 40.0507 160.199 39.8341 160.303 39.6232C160.375 39.4665 160.453 39.3311 160.526 39.1744C160.624 38.9422 160.749 38.7256 160.847 38.4933C160.903 38.3637 160.976 38.207 161.033 38.0773C161.146 37.818 161.254 37.5373 161.368 37.278C161.409 37.1754 161.45 37.0729 161.491 36.9703C161.589 36.738 161.66 36.4902 161.758 36.2579C161.794 36.134 161.856 36.0257 161.892 35.9018C162.025 35.5456 162.137 35.1952 162.243 34.8234C163.912 29.1808 163.095 24.5936 160.409 21.7432L164.106 25.9018C166.771 28.7579 167.588 33.3451 165.941 38.9819C165.828 39.3324 165.722 39.7042 165.589 40.0604C165.553 40.1843 165.491 40.2926 165.455 40.4165C165.357 40.6487 165.286 40.8966 165.188 41.1289L165.173 41.1559C165.132 41.2585 165.085 41.3397 165.065 41.4366C164.951 41.6959 164.843 41.9766 164.73 42.2359C164.673 42.3655 164.601 42.5223 164.544 42.6519C164.446 42.8841 164.342 43.095 164.223 43.333C164.15 43.4897 164.072 43.6251 164 43.7818C163.896 43.9927 163.792 44.2036 163.667 44.4202C163.595 44.5769 163.501 44.7394 163.402 44.8805C163.298 45.0914 163.167 45.2866 163.064 45.4975C163.032 45.5516 162.985 45.6329 162.954 45.687C162.892 45.7953 162.823 45.8823 162.761 45.9906C162.646 46.1588 162.558 46.3426 162.442 46.5107C162.327 46.6789 162.234 46.8414 162.118 47.0095C162.003 47.1777 161.888 47.3459 161.794 47.5083C161.679 47.6765 161.564 47.8447 161.449 48.0129C161.334 48.181 161.219 48.3492 161.104 48.5174C160.988 48.6856 160.873 48.8537 160.752 49.0006C160.637 49.1687 160.516 49.3156 160.38 49.4895C160.327 49.5493 160.28 49.6306 160.228 49.6904C160.16 49.7774 160.091 49.8643 160.023 49.9513C159.871 50.1523 159.713 50.3319 159.561 50.5329C159.44 50.6797 159.319 50.8265 159.198 50.9733C159.046 51.1743 158.867 51.3596 158.709 51.5393C158.588 51.6861 158.462 51.8116 158.341 51.9584C158.162 52.1437 158.01 52.3447 157.83 52.53C157.704 52.6555 157.583 52.8023 157.456 52.9278C157.277 53.1131 157.082 53.3256 156.903 53.5109C156.814 53.6036 156.724 53.6962 156.613 53.7946C156.576 53.8274 156.56 53.8545 156.523 53.8873C156.434 53.98 156.323 54.0784 156.233 54.171C156.054 54.3564 155.869 54.5204 155.669 54.7114C155.558 54.8098 155.447 54.9082 155.336 55.0066C155.151 55.1706 154.966 55.3346 154.802 55.4929C154.691 55.5913 154.58 55.6897 154.47 55.7881C154.285 55.952 154.1 56.116 153.915 56.28C153.804 56.3784 153.693 56.4768 153.598 56.5481C153.37 56.7235 153.169 56.9146 152.942 57.0901C152.868 57.1557 152.772 57.227 152.698 57.2926C152.397 57.5336 152.095 57.7746 151.788 57.9943C151.73 58.0328 151.656 58.0984 151.597 58.1369C151.348 58.3181 151.099 58.4993 150.872 58.6747C150.755 58.7517 150.638 58.8288 150.543 58.9001C150.411 59.0042 150.273 59.087 150.119 59.1968C150.039 59.241 149.981 59.2796 149.901 59.3238C149.785 59.4008 149.668 59.4779 149.551 59.5549C149.334 59.6819 149.143 59.8246 148.925 59.9516C148.809 60.0286 148.692 60.1057 148.57 60.1613C148.33 60.2941 148.118 60.4424 147.879 60.5752C147.778 60.6251 147.704 60.6907 147.603 60.7407C147.285 60.9177 146.966 61.0946 146.626 61.2773C146.567 61.3158 146.503 61.333 146.466 61.3658C146.206 61.5043 145.924 61.6484 145.664 61.7869C145.541 61.8426 145.44 61.8925 145.339 61.9425C145.116 62.0481 144.892 62.1538 144.669 62.2594C144.547 62.3151 144.424 62.3708 144.302 62.4265C144.078 62.5322 143.87 62.6108 143.641 62.6951C143.519 62.7507 143.412 62.7793 143.29 62.835C143.226 62.8522 143.189 62.885 143.125 62.9022C142.981 62.9636 142.81 63.0094 142.666 63.0708C142.523 63.1322 142.373 63.1722 142.229 63.2336C142.022 63.3122 141.808 63.3695 141.6 63.448C141.451 63.4881 141.328 63.5438 141.179 63.5838C140.944 63.6468 140.715 63.7311 140.48 63.794C140.373 63.8226 140.245 63.857 140.138 63.8856C139.797 63.9771 139.434 64.0744 139.086 64.1446C138.76 64.2091 138.456 64.2679 138.13 64.3323C138.044 64.3552 137.974 64.3511 137.889 64.3739C137.606 64.427 137.317 64.4587 137.055 64.506C137.033 64.5117 136.991 64.5232 136.964 64.5075C136.723 64.5491 136.477 64.5694 136.252 64.5839C136.209 64.5953 136.16 64.5854 136.118 64.5969C135.914 64.6057 135.738 64.6301 135.555 64.6332C135.421 64.6461 135.261 64.6435 135.127 64.6565C134.923 64.6653 134.741 64.6683 134.553 64.6501C134.413 64.6417 134.279 64.6547 134.14 64.6463C133.931 64.6338 133.748 64.6368 133.56 64.6185C133.442 64.6044 133.33 64.6117 133.211 64.5976C132.981 64.5908 132.766 64.5569 132.551 64.523C132.481 64.5188 132.411 64.5146 132.314 64.4948C132.314 64.4948 132.314 64.4948 132.293 64.5005C132.147 64.4708 131.981 64.4467 131.836 64.417C131.712 64.3816 131.572 64.3732 131.448 64.3378C131.303 64.308 131.152 64.257 131.007 64.2273C130.883 64.1918 130.764 64.1777 130.64 64.1423C130.495 64.1125 130.366 64.0557 130.215 64.0047C130.091 63.9692 129.988 63.928 129.864 63.8926C129.713 63.8415 129.583 63.7847 129.454 63.7279C129.351 63.6867 129.249 63.6456 129.146 63.6044C129.146 63.6044 129.146 63.6044 129.119 63.5888C128.908 63.4851 128.697 63.3814 128.486 63.2777C128.459 63.2621 128.432 63.2464 128.405 63.2308C128.216 63.1214 128.026 63.012 127.836 62.9026C127.809 62.8869 127.777 62.85 127.728 62.84C127.539 62.7306 127.365 62.5941 127.191 62.4576C127.164 62.442 127.131 62.405 127.104 62.3894C126.93 62.2529 126.756 62.1164 126.604 61.9742C126.598 61.9529 126.576 61.9586 126.571 61.9372C126.484 61.869 126.391 61.7794 126.326 61.7054C126.233 61.6158 126.167 61.5419 126.075 61.4523L122.377 57.2937C122.633 57.4771 122.791 57.6406 122.97 57.7985Z" fill="url(#paint0_linear_0_873)"/>
<path d="M120.635 44.212C123.967 32.9056 135.988 21.651 147.495 19.0707C159.002 16.4904 165.61 23.5539 162.298 34.8546C158.966 46.1611 146.946 57.4157 135.439 59.996C123.931 62.5763 117.324 55.5128 120.635 44.212Z" fill="url(#paint1_linear_0_873)"/>
<path d="M123.468 43.5905C126.344 33.8254 136.732 24.0837 146.685 21.8514C156.638 19.619 162.35 25.7324 159.474 35.4975C156.598 45.2627 146.209 55.0043 136.257 57.2367C126.325 59.4633 120.592 53.3557 123.468 43.5905Z" fill="url(#paint2_linear_0_873)"/>
<path d="M124.197 43.4173C126.951 34.051 136.923 24.7185 146.464 22.5736C156.005 20.4286 161.488 26.2831 158.734 35.6494C155.98 45.0156 146.008 54.3481 136.467 56.4931C126.947 58.6323 121.443 52.7836 124.197 43.4173Z" fill="url(#paint3_linear_0_873)"/>
<path fill-rule="evenodd" clip-rule="evenodd" d="M143.068 46.6693L141.413 50.0759C133.892 51.0772 130.106 48.748 132.158 42.9264L130.507 42.8615L130.218 41.316L131.739 40.817L133.14 40.7788C133.373 40.1854 133.698 39.5786 134.133 39.0878L132.753 39.1067L132.464 37.5623L133.894 37.1517L135.582 37.0103C138.742 31.7406 150.026 28.336 150.026 28.336L150.432 29.6833L148.465 32.2981C143.066 31.9126 141.13 33.4862 138.955 36.6713L144.596 34.6157L144.96 35.821L143.695 38.4108L137.296 38.8834L136.297 40.6428L142.258 38.9078L142.625 40.1239L141.489 42.6717L135.322 42.896C134.557 46.4962 141.837 46.685 141.837 46.685L142.688 45.0712L143.068 46.6693Z" fill="#C67600"/>
<path fill-rule="evenodd" clip-rule="evenodd" d="M142.688 45.0702L140.851 48.5459C133.33 49.547 129.816 47.2067 131.868 41.3851L130.216 41.3202L131.449 39.2757L132.85 39.2375C133.083 38.6441 133.408 38.0373 133.843 37.5465L132.462 37.5654L133.604 35.6104L135.291 35.469C138.672 30.6821 142.528 28.3431 150.026 28.3358L148.058 30.9507C143.88 31.109 140.84 31.9448 138.664 35.13L144.596 34.6154L143.394 36.9745L137.006 37.3421L136.007 39.1015L142.258 38.9074L140.95 41.376L135.032 41.3547C134.208 45.2323 136.497 46.0639 142.688 45.0702Z" fill="#FEDC9E"/>
<path fill-rule="evenodd" clip-rule="evenodd" d="M134.976 41.6361C134.323 45.2722 136.649 46.0393 142.687 45.0701L140.85 48.5458L142.367 45.3507C136.176 46.3443 134.152 45.5138 134.976 41.6361Z" fill="#FFE7BE"/>
<path fill-rule="evenodd" clip-rule="evenodd" d="M136.853 37.6133L136.008 39.1017L142.259 38.9076L140.951 41.3761L141.939 39.1881L135.687 39.3822L136.853 37.6133Z" fill="#FFE7BE"/>
<path fill-rule="evenodd" clip-rule="evenodd" d="M139.945 33.6432C139.468 34.0837 139.041 34.579 138.665 35.1303L144.596 34.6158L143.394 36.9749L144.276 34.8963L138.345 35.4109C138.803 34.7388 139.338 34.15 139.945 33.6432Z" fill="#FFE7BE"/>
<path fill-rule="evenodd" clip-rule="evenodd" d="M132.645 39.2432C132.681 39.1517 132.604 39.3348 132.645 39.2432L131.283 39.5522L131.45 39.2758L132.645 39.2432Z" fill="#FFE7BE"/>
<path fill-rule="evenodd" clip-rule="evenodd" d="M135.166 35.4795C135.23 35.3886 135.1 35.5685 135.166 35.4795L133.448 35.8772L133.604 35.6105L135.166 35.4795Z" fill="#FFE7BE"/>
<g clip-path="url(#clip0_0_873)">
<path d="M50.8322 66.374C50.821 66.3952 50.8421 66.4064 50.8309 66.4275C50.847 66.6525 50.8842 66.8886 50.9214 67.1248C50.9313 67.1571 50.93 67.2105 50.9399 67.2429C50.9771 67.479 51.0255 67.6941 51.0838 67.9414C51.0937 67.9738 51.0925 68.0272 51.1235 68.0707C51.193 68.297 51.2513 68.5443 51.332 68.7494C51.3419 68.7818 51.3519 68.8141 51.3618 68.8464C51.4524 69.0838 51.5219 69.3101 51.6337 69.5587C51.6337 69.5587 51.6337 69.5587 51.6436 69.591C51.6945 69.6992 51.7454 69.8073 51.7963 69.9155C51.8572 70.056 51.9391 70.2076 52 70.3481C52.0509 70.4563 52.1229 70.5756 52.1738 70.6838C52.2558 70.8354 52.3166 70.9759 52.4098 71.1065C52.4818 71.2258 52.5539 71.3451 52.6371 71.4434C52.7302 71.5739 52.8122 71.7256 52.9054 71.8561C52.9774 71.9755 53.0818 72.0849 53.1538 72.2043C53.247 72.3348 53.3401 72.4654 53.4544 72.6071C53.5066 72.6618 53.5687 72.7488 53.6209 72.8035C53.7662 72.9888 53.9115 73.1741 54.0892 73.3494C54.1724 73.4476 54.2668 73.5247 54.3501 73.623C54.4855 73.7759 54.642 73.94 54.7886 74.0718C54.893 74.1813 55.0085 74.2695 55.1129 74.379C55.2595 74.5108 55.416 74.6749 55.5626 74.8067C55.6781 74.895 55.8036 75.0156 55.9192 75.1039C56.0658 75.2357 56.2335 75.3788 56.3913 75.4894C56.6224 75.666 56.8746 75.8538 57.1269 76.0416C57.148 76.0528 57.1902 76.0752 57.2113 76.0864C57.4424 76.263 57.7059 76.4297 57.9693 76.5963C58.0538 76.6411 58.106 76.6958 58.1905 76.7406C58.475 76.9185 58.7807 77.1075 59.0863 77.2966C59.4131 77.4968 59.7511 77.676 60.1102 77.8663C60.2159 77.9223 60.3426 77.9894 60.4482 78.0454C60.6806 78.1686 60.913 78.2917 61.1565 78.3938C61.3044 78.4721 61.4423 78.5182 61.5902 78.5965C61.8126 78.6874 62.0239 78.7993 62.2463 78.8902C62.4054 78.9474 62.5533 79.0258 62.7123 79.083C62.9348 79.1738 63.1572 79.2647 63.3796 79.3555C63.5176 79.4016 63.6232 79.4575 63.7611 79.5036C64.0047 79.6056 64.2383 79.6753 64.4819 79.7773C64.6198 79.8234 64.7578 79.8694 64.8957 79.9155C65.1505 79.9964 65.4052 80.0773 65.66 80.1582C65.7768 80.1931 65.9147 80.2391 66.0315 80.274C66.3398 80.3561 66.6691 80.4495 66.9984 80.5428C67.073 80.5553 67.1152 80.5777 67.1898 80.5902C67.5726 80.6848 67.9553 80.7794 68.3592 80.8853C68.4761 80.9201 68.5829 80.9226 68.6997 80.9575C68.9868 81.0285 69.2528 81.0882 69.551 81.1381C69.7002 81.163 69.8381 81.2091 69.9661 81.2228C70.2321 81.2826 70.4881 81.31 70.7541 81.3698C70.9032 81.3947 70.8822 76.7296 71.0314 76.7545C71.3085 76.7932 71.5745 76.8529 71.8305 76.8804C71.9796 76.9053 72.1288 76.9303 72.2568 76.944C72.5874 76.9839 72.918 77.0238 73.2274 77.0525C73.302 77.065 73.4089 77.0675 73.4835 77.08C73.8886 77.1324 74.305 77.1636 74.7213 77.1949C74.8282 77.1974 74.9562 77.2112 75.0631 77.2137C75.3726 77.2424 75.6609 77.2599 75.9816 77.2675C76.1419 77.2713 76.2911 77.2963 76.4514 77.3001C76.7186 77.3064 76.9858 77.3127 77.2531 77.3191C77.4134 77.3229 77.5737 77.3267 77.7341 77.3305C78.0013 77.3368 78.2685 77.3431 78.5146 77.3383C78.6749 77.3421 78.8353 77.3459 79.0068 77.3286C79.274 77.3349 79.5524 77.3201 79.8308 77.3053C79.97 77.2979 80.1304 77.3017 80.2696 77.2943C80.4622 77.2882 80.6549 77.2821 80.8264 77.2647C81.1259 77.2612 81.4044 77.2464 81.694 77.2105C81.8866 77.2043 82.0905 77.1771 82.2831 77.1709C82.5616 77.1562 82.8399 77.1414 83.1084 77.0943C83.3123 77.067 83.505 77.0609 83.7088 77.0336C83.9661 77.0076 84.2557 76.9717 84.513 76.9457C84.7168 76.9185 84.9207 76.8912 85.1245 76.864C85.393 76.8169 85.6503 76.7909 85.9188 76.7438C86.1226 76.7165 86.3265 76.6893 86.5415 76.6409C86.7566 76.5925 86.9815 76.5765 87.1966 76.5281C87.4116 76.4797 87.6155 76.4525 87.8305 76.4041C88.0456 76.3557 88.2606 76.3073 88.4757 76.259C88.6907 76.2106 88.9057 76.1622 89.1208 76.1138C89.3358 76.0654 89.721 80.7072 89.9149 80.6476C90.1299 80.5992 90.3238 80.5396 90.5389 80.4913C90.7539 80.4429 90.9478 80.3833 91.1741 80.3138C91.368 80.2542 91.583 80.2059 91.777 80.1463C92.0355 80.0669 92.2617 79.9974 92.4992 79.9067C92.6931 79.8472 92.8547 79.7975 93.0486 79.738C93.2861 79.6473 93.5446 79.5679 93.7821 79.4773C93.9548 79.4065 94.1164 79.3569 94.2892 79.2861C94.5379 79.1743 94.7964 79.0949 95.045 78.9832C95.1855 78.9223 95.3583 78.8516 95.4988 78.7907C95.7797 78.669 96.0719 78.5262 96.3528 78.4046C96.461 78.3537 96.5692 78.3028 96.6773 78.2518C96.9259 78.1401 97.1646 77.996 97.4133 77.8843C97.5326 77.8122 97.6619 77.7725 97.7812 77.7005C98.1492 77.5167 98.4961 77.3217 98.8541 77.1056C104.332 73.8666 107.063 69.632 107.035 65.3962L106.9 71.4125C106.907 75.6371 104.176 79.8716 98.719 83.1218C98.3721 83.3168 98.0141 83.5329 97.6461 83.7167C97.5268 83.7888 97.3975 83.8285 97.2781 83.9005C97.0295 84.0122 96.7908 84.1563 96.5422 84.2681L96.5099 84.278C96.4017 84.3289 96.3047 84.3587 96.2177 84.4208C95.9368 84.5425 95.6446 84.6853 95.3637 84.807C95.2232 84.8678 95.0504 84.9386 94.9099 84.9994C94.6613 85.1111 94.4239 85.2018 94.1541 85.3023C93.9813 85.3731 93.8197 85.4227 93.6469 85.4935C93.4095 85.5841 93.1721 85.6748 92.9135 85.7542C92.7407 85.825 92.5468 85.8845 92.364 85.923C92.1266 86.0136 91.8793 86.0719 91.6418 86.1625C91.5772 86.1824 91.4802 86.2122 91.4156 86.232C91.2863 86.2717 91.1682 86.2903 91.0389 86.33C90.8239 86.3784 90.6188 86.4591 90.4037 86.5075C90.1887 86.5559 89.9948 86.6154 89.7797 86.6638C89.5647 86.7122 89.3497 86.7606 89.1557 86.8201C88.9407 86.8685 88.7257 86.9169 88.5106 86.9653C88.2956 87.0136 88.0805 87.062 87.8655 87.1104C87.6504 87.1588 87.4354 87.2072 87.2316 87.2344C87.0165 87.2828 86.8127 87.31 86.5765 87.3472C86.4907 87.3559 86.3938 87.3857 86.308 87.3943C86.1899 87.4129 86.0718 87.4315 85.9538 87.4501C85.6853 87.4972 85.428 87.5232 85.1595 87.5703C84.9557 87.5976 84.7518 87.6248 84.5479 87.6521C84.2795 87.6992 84.0011 87.714 83.7438 87.7399C83.5399 87.7672 83.3473 87.7733 83.1434 87.8006C82.865 87.8154 82.5965 87.8625 82.3181 87.8773C82.1255 87.8834 81.9216 87.9107 81.729 87.9168C81.4505 87.9316 81.1398 87.9563 80.8614 87.9711C80.7222 87.9785 80.583 87.9859 80.4226 87.9821C80.3692 87.9808 80.3369 87.9907 80.2834 87.9895C80.1442 87.9969 79.9839 87.9931 79.8447 88.0005C79.5663 88.0152 79.2991 88.0089 78.9995 88.0125C78.8392 88.0087 78.6788 88.0049 78.5185 88.0011C78.2513 87.9948 77.9841 87.9884 77.738 87.9933C77.5776 87.9895 77.4173 87.9857 77.257 87.9819C76.9898 87.9756 76.7225 87.9692 76.4553 87.9629C76.295 87.9591 76.1347 87.9553 76.0066 87.9415C75.6972 87.9128 75.3976 87.9164 75.0882 87.8877C74.9813 87.8852 74.8533 87.8714 74.7464 87.8689C74.33 87.8376 73.9137 87.8064 73.5085 87.754C73.4339 87.7415 73.327 87.739 73.2525 87.7265C72.9219 87.6866 72.5913 87.6467 72.2818 87.618C72.1327 87.5931 71.9836 87.5681 71.8555 87.5544C71.6741 87.5394 71.5038 87.5033 71.3013 87.4771C71.2056 87.4534 71.131 87.441 71.0353 87.4173C70.8862 87.3924 70.737 87.3674 70.5879 87.3425C70.3219 87.2827 70.0659 87.2553 69.8 87.1955C69.6508 87.1706 69.5017 87.1457 69.3638 87.0996C69.0767 87.0286 68.7995 86.99 68.5124 86.919C68.3956 86.8841 68.2887 86.8816 68.1719 86.8468C67.7892 86.7521 67.4064 86.6575 67.0025 86.5517C66.9279 86.5392 66.8646 86.5056 66.8111 86.5044C66.5029 86.4222 66.1736 86.3288 65.8654 86.2467C65.7274 86.2006 65.6106 86.1657 65.4938 86.1309C65.2391 86.05 64.9843 85.9691 64.7295 85.8882C64.5916 85.8421 64.4536 85.7961 64.3157 85.75C64.0609 85.6691 63.8385 85.5783 63.595 85.4763C63.457 85.4302 63.3514 85.3743 63.2135 85.3282C63.1501 85.2946 63.0966 85.2933 63.0333 85.2598C62.8742 85.2025 62.7052 85.113 62.5461 85.0557C62.3871 84.9985 62.2392 84.9201 62.0801 84.8628C61.8577 84.772 61.6464 84.6601 61.424 84.5692C61.2761 84.4909 61.1382 84.4448 60.9903 84.3664C60.758 84.2433 60.5144 84.1413 60.2821 84.0181C60.1764 83.9621 60.0497 83.895 59.9441 83.839C59.6061 83.6599 59.247 83.4695 58.9202 83.2693C58.6145 83.0802 58.33 82.9024 58.0243 82.7133C57.9398 82.6685 57.8876 82.6138 57.8031 82.569C57.5397 82.4024 57.2875 82.2146 57.0452 82.0591C57.0241 82.0479 56.9818 82.0255 56.9719 81.9932C56.7507 81.8489 56.5407 81.6835 56.3519 81.5293C56.3096 81.5069 56.2786 81.4634 56.2363 81.441C56.0686 81.298 55.9108 81.1873 55.7642 81.0555C55.6487 80.9672 55.5232 80.8466 55.4076 80.7583C55.2399 80.6153 55.0933 80.4835 54.9579 80.3306C54.8535 80.2211 54.738 80.1328 54.6336 80.0234C54.4771 79.8593 54.3305 79.7275 54.1951 79.5745C54.1119 79.4763 54.0174 79.3992 53.9342 79.301C53.7565 79.1256 53.6112 78.9404 53.4659 78.7551C53.4137 78.7004 53.3615 78.6457 53.2994 78.5587C53.2994 78.5587 53.2994 78.5587 53.2783 78.5475C53.1851 78.4169 53.0709 78.2752 52.9777 78.1446C52.9057 78.0253 52.8013 77.9159 52.7293 77.7965C52.6361 77.666 52.5541 77.5143 52.461 77.3838C52.389 77.2644 52.3057 77.1662 52.2337 77.0468C52.1405 76.9163 52.0797 76.7758 51.9977 76.6242C51.9257 76.5048 51.8748 76.3967 51.8028 76.2773C51.7208 76.1256 51.66 75.9852 51.5991 75.8447C51.5482 75.7365 51.4973 75.6284 51.4464 75.5202C51.4464 75.5202 51.4464 75.5202 51.4364 75.4879C51.3458 75.2505 51.2552 75.013 51.1646 74.7756C51.1546 74.7433 51.1447 74.711 51.1348 74.6786C51.0653 74.4524 50.9958 74.2262 50.9263 73.9999C50.9163 73.9676 50.9176 73.9142 50.8866 73.8707C50.8171 73.6444 50.7799 73.4082 50.7427 73.1721C50.7328 73.1398 50.734 73.0863 50.7241 73.054C50.6869 72.8178 50.6498 72.5817 50.6337 72.3567C50.6449 72.3356 50.6238 72.3244 50.635 72.3032C50.6164 72.1852 50.609 72.0459 50.6115 71.9391C50.6041 71.7999 50.6066 71.693 50.5992 71.5538L50.7344 65.5375C50.8013 65.8707 50.8062 66.1167 50.8322 66.374Z" fill="url(#paint4_linear_0_873)"/>
<path d="M58.9885 53.894C69.955 47.3949 87.7632 47.3357 98.7761 53.7677C109.789 60.1996 109.819 70.6598 98.8738 77.1702C87.9073 83.6694 70.099 83.7285 59.0861 77.2965C48.0732 70.8646 48.0431 60.4044 58.9885 53.894Z" fill="url(#paint5_linear_0_873)"/>
<path d="M61.6884 55.4873C71.1581 49.8724 86.5601 49.8097 96.0856 55.3722C105.611 60.9347 105.632 69.983 96.1623 75.5979C86.6926 81.2128 71.2906 81.2755 61.7651 75.713C52.2607 70.1617 52.2187 61.1022 61.6884 55.4873Z" fill="url(#paint6_linear_0_873)"/>
<path d="M62.3963 55.8892C71.4756 50.5003 86.2462 50.4547 95.3816 55.7834C104.517 61.1121 104.547 69.7863 95.4673 75.1751C86.388 80.564 71.6174 80.6095 62.482 75.2809C53.3678 69.9634 53.317 61.278 62.3963 55.8892Z" fill="url(#paint7_linear_0_873)"/>
<path fill-rule="evenodd" clip-rule="evenodd" d="M74.0791 72.3402L69.8781 73.6892C62.9802 68.1619 61.8935 63.0985 68.4479 60.1396L67.1729 58.6965L68.2425 57.2096L69.8871 58.0887L71.0467 59.2373C71.7343 58.9562 72.5069 58.7412 73.2701 58.7121L72.1431 57.5651L73.2113 56.0788L74.7085 56.9526L76.1861 58.2598C83.1681 56.6787 95.1194 63.44 95.1194 63.44L94.3121 64.867L90.5264 65.3155C86.5046 60.4586 83.6205 60.0947 79.1871 60.8273L85.4598 63.923L84.7376 65.1996L81.5382 66.2193L75.9892 61.2118L73.7032 61.7867L79.9633 65.4097L79.2346 66.6978L76.1745 67.7922L71.0206 62.7795C67.3733 65.034 73.0752 71.3165 73.0752 71.3165L75.1191 70.7336L74.0791 72.3402Z" fill="#C67600"/>
<path fill-rule="evenodd" clip-rule="evenodd" d="M75.121 70.7336L70.7152 71.9847C63.8173 66.4572 62.9589 61.6137 69.5133 58.6549L68.2382 57.2118L70.9525 56.604L72.1121 57.7525C72.7997 57.4714 73.5722 57.2565 74.3355 57.2274L73.2085 56.0804L75.7739 55.4679L77.2514 56.7751C84.0037 55.7677 89.0783 57.1323 95.1204 63.4401L91.3346 63.8886C87.8374 60.4974 84.6858 58.61 80.2525 59.3426L85.4608 63.9231L82.5068 64.8103L77.0545 59.727L74.7685 60.302L79.9644 65.4098L76.8327 66.2958L72.086 61.2948C68.1576 63.723 69.2998 66.3198 75.121 70.7336Z" fill="#FEDC9E"/>
<path fill-rule="evenodd" clip-rule="evenodd" d="M71.8046 61.4753C68.2166 63.8524 69.4433 66.4289 75.1208 70.7337L70.7149 71.9847L74.6269 70.69C68.8056 66.2761 67.8761 63.9036 71.8046 61.4753Z" fill="#FEC25C"/>
<path fill-rule="evenodd" clip-rule="evenodd" d="M76.7006 59.8157L74.7667 60.3021L79.9626 65.4099L76.8309 66.2959L79.4688 65.3663L74.2728 60.2584L76.7006 59.8157Z" fill="#FEC25C"/>
<path fill-rule="evenodd" clip-rule="evenodd" d="M82.5354 59.2242C81.7802 59.1768 81.0193 59.2159 80.2519 59.3428L85.4603 63.9233L82.5062 64.8105L84.9664 63.8796L79.758 59.2991C80.6934 59.1445 81.6193 59.1202 82.5354 59.2242Z" fill="#FEC25C"/>
<path fill-rule="evenodd" clip-rule="evenodd" d="M71.9413 57.5844C71.8314 57.6239 71.7233 57.6657 71.6173 57.709L70.5847 56.6863L70.9516 56.6041L71.9413 57.5844Z" fill="#FEC25C"/>
<path fill-rule="evenodd" clip-rule="evenodd" d="M77.14 56.6781C77.0121 56.6943 76.8839 56.7122 76.7556 56.7313L75.4219 55.5514L75.772 55.4679L77.14 56.6781Z" fill="#FEC25C"/>
<path fill-rule="evenodd" clip-rule="evenodd" d="M81.5086 56.6101C80.1066 56.5044 78.688 56.5605 77.2511 56.7749L77.1416 56.678C78.616 56.4865 80.0712 56.4626 81.5086 56.6101Z" fill="#FFD000"/>
</g>
<g clip-path="url(#clip1_0_873)">
<path d="M162.016 127.018C162.035 127.028 162.045 127.009 162.064 127.019C162.263 127.005 162.472 126.972 162.681 126.938C162.71 126.93 162.757 126.931 162.786 126.922C162.995 126.889 163.186 126.846 163.405 126.794C163.433 126.785 163.481 126.786 163.519 126.759C163.72 126.697 163.939 126.645 164.121 126.574C164.149 126.565 164.178 126.556 164.206 126.547C164.417 126.467 164.617 126.405 164.837 126.306C164.837 126.306 164.837 126.306 164.866 126.297C164.962 126.252 165.058 126.207 165.153 126.162C165.278 126.108 165.412 126.035 165.537 125.981C165.632 125.936 165.738 125.872 165.834 125.827C165.968 125.754 166.093 125.7 166.208 125.617C166.314 125.553 166.42 125.49 166.507 125.416C166.622 125.333 166.757 125.26 166.872 125.178C166.978 125.114 167.075 125.021 167.18 124.958C167.296 124.875 167.412 124.792 167.537 124.691C167.586 124.645 167.663 124.59 167.711 124.543C167.875 124.414 168.039 124.286 168.195 124.128C168.282 124.054 168.35 123.971 168.437 123.897C168.572 123.777 168.718 123.638 168.834 123.508C168.931 123.415 169.009 123.313 169.106 123.221C169.223 123.091 169.368 122.952 169.485 122.822C169.563 122.719 169.67 122.608 169.748 122.506C169.865 122.376 169.991 122.227 170.089 122.087C170.246 121.882 170.412 121.659 170.578 121.435C170.588 121.416 170.608 121.379 170.618 121.36C170.774 121.155 170.922 120.922 171.069 120.688C171.109 120.614 171.157 120.567 171.197 120.492C171.354 120.24 171.522 119.969 171.689 119.698C171.866 119.409 172.025 119.109 172.193 118.791C172.243 118.697 172.302 118.585 172.352 118.491C172.461 118.285 172.57 118.079 172.66 117.863C172.729 117.732 172.77 117.61 172.839 117.479C172.92 117.282 173.019 117.095 173.099 116.898C173.15 116.757 173.219 116.626 173.27 116.485C173.35 116.287 173.43 116.09 173.511 115.893C173.551 115.771 173.601 115.677 173.642 115.555C173.732 115.339 173.793 115.132 173.884 114.916C173.924 114.794 173.965 114.672 174.006 114.55C174.077 114.324 174.149 114.098 174.221 113.872C174.251 113.769 174.292 113.647 174.323 113.543C174.395 113.27 174.478 112.978 174.561 112.686C174.572 112.62 174.591 112.583 174.602 112.517C174.686 112.177 174.77 111.838 174.863 111.48C174.894 111.377 174.896 111.282 174.927 111.179C174.99 110.924 175.042 110.689 175.086 110.424C175.108 110.292 175.149 110.17 175.161 110.056C175.214 109.821 175.238 109.594 175.291 109.358C175.313 109.226 171.18 109.247 171.202 109.115C171.236 108.87 171.289 108.634 171.313 108.407C171.335 108.275 171.357 108.143 171.369 108.029C171.404 107.736 171.439 107.443 171.464 107.169C171.475 107.103 171.478 107.008 171.489 106.942C171.535 106.583 171.562 106.214 171.59 105.846C171.592 105.751 171.604 105.637 171.606 105.543C171.631 105.269 171.647 105.013 171.653 104.729C171.657 104.587 171.679 104.455 171.682 104.313C171.687 104.076 171.693 103.839 171.698 103.602C171.702 103.46 171.705 103.318 171.708 103.176C171.714 102.939 171.719 102.703 171.715 102.485C171.718 102.343 171.721 102.201 171.706 102.049C171.711 101.812 171.698 101.565 171.685 101.318C171.678 101.195 171.681 101.053 171.675 100.93C171.669 100.759 171.664 100.588 171.648 100.436C171.645 100.171 171.632 99.9243 171.6 99.6677C171.594 99.4971 171.57 99.3164 171.564 99.1458C171.551 98.8991 171.538 98.6524 171.496 98.4146C171.471 98.234 171.466 98.0633 171.442 97.8827C171.419 97.6547 171.387 97.3982 171.363 97.1702C171.339 96.9896 171.315 96.809 171.291 96.6284C171.249 96.3906 171.225 96.1626 171.184 95.9248C171.159 95.7442 171.135 95.5636 171.092 95.3731C171.049 95.1826 171.035 94.9833 170.992 94.7928C170.949 94.6023 170.925 94.4217 170.882 94.2312C170.839 94.0407 170.796 93.8502 170.753 93.6597C170.71 93.4691 170.667 93.2786 170.624 93.0881C170.581 92.8976 174.693 92.5537 174.64 92.3819C174.597 92.1914 174.544 92.0197 174.501 91.8292C174.458 91.6387 174.405 91.4669 174.344 91.2665C174.291 91.0947 174.248 90.9042 174.195 90.7324C174.124 90.5034 174.063 90.303 173.982 90.0927C173.929 89.9209 173.885 89.7777 173.832 89.6059C173.752 89.3956 173.681 89.1666 173.601 88.9563C173.538 88.8032 173.494 88.6601 173.431 88.507C173.332 88.2868 173.262 88.0577 173.162 87.8375C173.108 87.7131 173.046 87.56 172.992 87.4356C172.884 87.1868 172.757 86.928 172.649 86.6791C172.604 86.5833 172.559 86.4875 172.514 86.3917C172.414 86.1715 172.287 85.9601 172.187 85.7399C172.124 85.6342 172.088 85.5197 172.024 85.414C171.861 85.088 171.688 84.7808 171.497 84.4637C168.624 79.6123 164.87 77.1948 161.117 77.222L166.448 77.3383C170.191 77.3298 173.944 79.7473 176.827 84.58C177 84.8872 177.192 85.2043 177.355 85.5302C177.419 85.6359 177.454 85.7504 177.518 85.8561C177.617 86.0764 177.745 86.2878 177.844 86.508L177.853 86.5366C177.898 86.6324 177.924 86.7183 177.98 86.7954C178.088 87.0442 178.214 87.303 178.322 87.5519C178.376 87.6763 178.439 87.8293 178.493 87.9538C178.592 88.174 178.673 88.3843 178.762 88.6233C178.825 88.7763 178.869 88.9195 178.931 89.0725C179.012 89.2828 179.092 89.4931 179.163 89.7222C179.226 89.8752 179.279 90.047 179.313 90.2089C179.393 90.4192 179.445 90.6383 179.525 90.8487C179.543 90.9059 179.569 90.9918 179.587 91.0491C179.622 91.1636 179.639 91.2682 179.674 91.3827C179.717 91.5732 179.789 91.7549 179.832 91.9454C179.875 92.1359 179.928 92.3077 179.971 92.4982C180.014 92.6887 180.057 92.8792 180.109 93.051C180.152 93.2415 180.195 93.432 180.238 93.6225C180.281 93.813 180.324 94.0035 180.367 94.194C180.41 94.3845 180.453 94.575 180.478 94.7556C180.521 94.9461 180.545 95.1267 180.578 95.3359C180.586 95.4119 180.612 95.4978 180.62 95.5738C180.636 95.6784 180.653 95.783 180.669 95.8876C180.711 96.1255 180.735 96.3534 180.776 96.5913C180.801 96.7718 180.825 96.9525 180.849 97.1331C180.891 97.3709 180.904 97.6176 180.928 97.8455C180.952 98.0261 180.957 98.1968 180.982 98.3774C180.995 98.6241 181.037 98.8619 181.05 99.1086C181.056 99.2793 181.08 99.4599 181.085 99.6305C181.099 99.8772 181.121 100.153 181.134 100.399C181.141 100.523 181.147 100.646 181.144 100.788C181.143 100.835 181.152 100.864 181.151 100.911C181.157 101.035 181.154 101.177 181.161 101.3C181.174 101.547 181.168 101.783 181.172 102.049C181.169 102.191 181.165 102.333 181.162 102.475C181.157 102.712 181.151 102.949 181.155 103.167C181.152 103.309 181.149 103.451 181.146 103.593C181.14 103.829 181.135 104.066 181.129 104.303C181.126 104.445 181.123 104.587 181.111 104.701C181.085 104.975 181.089 105.24 181.063 105.514C181.061 105.609 181.049 105.723 181.047 105.817C181.02 106.186 180.992 106.555 180.946 106.914C180.935 106.98 180.933 107.075 180.922 107.141C180.887 107.434 180.851 107.727 180.826 108.001C180.804 108.133 180.782 108.265 180.77 108.379C180.757 108.539 180.725 108.69 180.702 108.87C180.681 108.955 180.67 109.021 180.649 109.106C180.627 109.238 180.605 109.37 180.583 109.502C180.53 109.738 180.506 109.964 180.453 110.2C180.431 110.332 180.409 110.464 180.369 110.587C180.306 110.841 180.272 111.087 180.209 111.341C180.178 111.445 180.176 111.539 180.145 111.643C180.062 111.982 179.978 112.321 179.884 112.679C179.873 112.745 179.844 112.801 179.843 112.849C179.77 113.122 179.687 113.414 179.615 113.687C179.574 113.809 179.543 113.913 179.512 114.016C179.441 114.242 179.369 114.468 179.298 114.693C179.257 114.816 179.216 114.938 179.176 115.06C179.104 115.286 179.024 115.483 178.934 115.699C178.893 115.821 178.843 115.915 178.803 116.037C178.773 116.093 178.772 116.14 178.742 116.197C178.691 116.338 178.612 116.487 178.562 116.628C178.511 116.769 178.442 116.9 178.391 117.041C178.311 117.239 178.212 117.426 178.131 117.623C178.062 117.754 178.021 117.876 177.952 118.007C177.843 118.213 177.753 118.429 177.644 118.635C177.594 118.729 177.535 118.841 177.485 118.935C177.327 119.234 177.158 119.552 176.981 119.842C176.814 120.113 176.656 120.365 176.489 120.636C176.449 120.711 176.401 120.757 176.361 120.832C176.214 121.066 176.047 121.289 175.91 121.504C175.9 121.523 175.88 121.56 175.851 121.569C175.724 121.765 175.577 121.951 175.441 122.119C175.421 122.156 175.382 122.184 175.363 122.221C175.236 122.37 175.138 122.51 175.021 122.64C174.943 122.742 174.836 122.853 174.758 122.956C174.632 123.104 174.515 123.234 174.379 123.354C174.283 123.447 174.204 123.549 174.107 123.642C173.962 123.781 173.845 123.911 173.71 124.031C173.623 124.104 173.555 124.188 173.468 124.262C173.313 124.419 173.148 124.548 172.984 124.677C172.936 124.723 172.888 124.77 172.81 124.825C172.81 124.825 172.81 124.825 172.801 124.844C172.685 124.926 172.559 125.027 172.444 125.11C172.338 125.174 172.241 125.267 172.136 125.33C172.02 125.413 171.886 125.486 171.77 125.568C171.664 125.632 171.577 125.706 171.472 125.77C171.356 125.853 171.232 125.907 171.097 125.979C170.992 126.043 170.896 126.088 170.79 126.152C170.656 126.225 170.531 126.279 170.407 126.333C170.311 126.378 170.215 126.423 170.119 126.468C170.119 126.468 170.119 126.468 170.091 126.477C169.88 126.558 169.67 126.638 169.46 126.719C169.431 126.727 169.403 126.736 169.374 126.745C169.174 126.807 168.973 126.868 168.773 126.93C168.744 126.939 168.697 126.938 168.658 126.965C168.458 127.027 168.249 127.06 168.039 127.093C168.011 127.102 167.963 127.101 167.935 127.11C167.726 127.143 167.516 127.176 167.317 127.19C167.298 127.18 167.288 127.199 167.27 127.189C167.165 127.206 167.042 127.212 166.947 127.21C166.824 127.217 166.729 127.215 166.606 127.221L161.275 127.105C161.57 127.045 161.788 127.041 162.016 127.018Z" fill="url(#paint8_linear_0_873)"/>
<path d="M150.954 119.799C145.19 110.086 145.127 94.3077 150.819 84.5464C156.512 74.7852 165.78 74.7524 171.554 84.4464C177.319 94.159 177.381 109.937 171.689 119.699C165.997 129.46 156.729 129.493 150.954 119.799Z" fill="url(#paint9_linear_0_873)"/>
<path d="M152.364 117.406C147.384 109.019 147.32 95.3724 152.243 86.9295C157.166 78.4865 165.182 78.4629 170.163 86.8499C175.143 95.2368 175.207 108.883 170.285 117.326C165.372 125.75 157.345 125.793 152.364 117.406Z" fill="url(#paint10_linear_0_873)"/>
<path d="M152.721 116.778C147.941 108.737 147.892 95.65 152.608 87.5529C157.324 79.4558 165.009 79.4245 169.789 87.4657C174.569 95.5069 174.618 108.594 169.902 116.691C165.196 124.769 157.501 124.819 152.721 116.778Z" fill="url(#paint11_linear_0_873)"/>
<path fill-rule="evenodd" clip-rule="evenodd" d="M167.29 106.417L168.488 110.138C163.595 116.253 159.109 117.219 156.484 111.413L155.206 112.544L153.888 111.597L154.666 110.139L155.683 109.111C155.433 108.502 155.243 107.818 155.216 107.142L154.201 108.141L152.883 107.195L153.657 105.868L154.814 104.558C153.409 98.373 159.393 87.7801 159.393 87.7801L160.658 88.4946L161.057 91.8486C156.756 95.4147 156.435 97.9703 157.087 101.898L159.826 96.3384L160.958 96.9775L161.863 99.8116L157.43 104.731L157.94 106.756L161.147 101.208L162.288 101.852L163.26 104.563L158.821 109.132C160.821 112.363 166.384 107.307 166.384 107.307L165.867 105.496L167.29 106.417Z" fill="#C67600"/>
<path fill-rule="evenodd" clip-rule="evenodd" d="M165.865 105.495L166.976 109.398C162.083 115.513 157.792 116.276 155.167 110.47L153.889 111.601L153.349 109.196L154.366 108.168C154.116 107.559 153.925 106.875 153.899 106.199L152.883 107.198L152.339 104.925L153.497 103.615C152.6 97.6334 153.806 93.1365 159.392 87.7795L159.791 91.1335C156.789 94.234 155.118 97.0274 155.77 100.955L159.825 96.3377L160.613 98.9545L156.112 103.788L156.623 105.813L161.146 101.207L161.932 103.981L157.504 108.189C159.658 111.669 161.958 110.655 165.865 105.495Z" fill="#FEDC9E"/>
<path fill-rule="evenodd" clip-rule="evenodd" d="M157.665 108.439C159.773 111.616 162.055 110.528 165.866 105.495L166.977 109.398L165.828 105.933C161.92 111.093 159.819 111.918 157.665 108.439Z" fill="#FEC25C"/>
<path fill-rule="evenodd" clip-rule="evenodd" d="M156.191 104.102L156.623 105.815L161.145 101.208L161.932 103.982L161.107 101.646L156.584 106.252L156.191 104.102Z" fill="#FEC25C"/>
<path fill-rule="evenodd" clip-rule="evenodd" d="M155.662 98.9323C155.621 99.6014 155.656 100.276 155.769 100.955L159.824 96.3381L160.612 98.9549L159.786 96.7757L155.73 101.393C155.593 100.564 155.571 99.744 155.662 98.9323Z" fill="#FEC25C"/>
<path fill-rule="evenodd" clip-rule="evenodd" d="M154.217 108.32C154.252 108.417 154.29 108.513 154.328 108.607L153.422 109.522L153.349 109.197L154.217 108.32Z" fill="#FEC25C"/>
<path fill-rule="evenodd" clip-rule="evenodd" d="M153.411 103.714C153.426 103.828 153.441 103.941 153.458 104.055L152.414 105.237L152.34 104.927L153.411 103.714Z" fill="#FEC25C"/>
<path fill-rule="evenodd" clip-rule="evenodd" d="M153.348 99.8436C153.255 101.086 153.306 102.343 153.497 103.616L153.411 103.713C153.24 102.407 153.218 101.117 153.348 99.8436Z" fill="#FFD000"/>
</g>
<defs>
<linearGradient id="paint0_linear_0_873" x1="132.379" y1="67.8233" x2="164.251" y2="29.2545" gradientUnits="userSpaceOnUse">
<stop stop-color="#BD6517"/>
<stop offset="0.2921" stop-color="#CD7D29"/>
<stop offset="0.9071" stop-color="#F7BB57"/>
<stop offset="1" stop-color="#FEC55E"/>
</linearGradient>
<linearGradient id="paint1_linear_0_873" x1="127.904" y1="67.5934" x2="156.471" y2="23.3281" gradientUnits="userSpaceOnUse">
<stop stop-color="#F28F3B"/>
<stop offset="0.4878" stop-color="#F7A74B"/>
<stop offset="1" stop-color="#FEC55E"/>
</linearGradient>
<linearGradient id="paint2_linear_0_873" x1="148.126" y1="54.0279" x2="138.863" y2="33.8612" gradientUnits="userSpaceOnUse">
<stop stop-color="#FFCE75"/>
<stop offset="0.5122" stop-color="#FFB866"/>
<stop offset="1" stop-color="#F28F3B"/>
</linearGradient>
<linearGradient id="paint3_linear_0_873" x1="142.483" y1="39.8615" x2="140.535" y2="64.9668" gradientUnits="userSpaceOnUse">
<stop stop-color="#FFAD34"/>
<stop offset="1" stop-color="#FF8B4A"/>
</linearGradient>
<linearGradient id="paint4_linear_0_873" x1="50.8992" y1="81.2423" x2="104.546" y2="74.1744" gradientUnits="userSpaceOnUse">
<stop stop-color="#9B4900"/>
<stop offset="0.2921" stop-color="#AB6113"/>
<stop offset="0.9071" stop-color="#E69D23"/>
<stop offset="1" stop-color="#FFC458"/>
</linearGradient>
<linearGradient id="paint5_linear_0_873" x1="47.5236" y1="77.7632" x2="102.748" y2="63.75" gradientUnits="userSpaceOnUse">
<stop stop-color="#F28F3B"/>
<stop offset="0.4878" stop-color="#F7A74B"/>
<stop offset="1" stop-color="#FEC55E"/>
</linearGradient>
<linearGradient id="paint6_linear_0_873" x1="73.528" y1="81.9143" x2="81.0458" y2="59.1216" gradientUnits="userSpaceOnUse">
<stop stop-color="#FEC55E"/>
<stop offset="0.5122" stop-color="#F7A74B"/>
<stop offset="1" stop-color="#F28F3B"/>
</linearGradient>
<linearGradient id="paint7_linear_0_873" x1="79.4958" y1="66.5414" x2="59.4625" y2="84.9876" gradientUnits="userSpaceOnUse">
<stop stop-color="#FFAD34"/>
<stop offset="1" stop-color="#FF8B4A"/>
</linearGradient>
<linearGradient id="paint8_linear_0_873" x1="175.19" y1="126.95" x2="168.896" y2="79.4226" gradientUnits="userSpaceOnUse">
<stop stop-color="#9B4900"/>
<stop offset="0.2921" stop-color="#AB6113"/>
<stop offset="0.9071" stop-color="#E69D23"/>
<stop offset="1" stop-color="#FFC458"/>
</linearGradient>
<linearGradient id="paint9_linear_0_873" x1="172.109" y1="129.943" x2="159.661" y2="81.0212" gradientUnits="userSpaceOnUse">
<stop stop-color="#F28F3B"/>
<stop offset="0.4878" stop-color="#F7A74B"/>
<stop offset="1" stop-color="#FEC55E"/>
</linearGradient>
<linearGradient id="paint10_linear_0_873" x1="175.772" y1="106.9" x2="155.573" y2="100.253" gradientUnits="userSpaceOnUse">
<stop stop-color="#FEC55E"/>
<stop offset="0.5122" stop-color="#F7A74B"/>
<stop offset="1" stop-color="#F28F3B"/>
</linearGradient>
<linearGradient id="paint11_linear_0_873" x1="162.149" y1="101.622" x2="178.504" y2="119.361" gradientUnits="userSpaceOnUse">
<stop stop-color="#FFAD34"/>
<stop offset="1" stop-color="#FF8B4A"/>
</linearGradient>
<clipPath id="clip0_0_873">
<rect width="55.2025" height="45.2261" fill="white" transform="translate(65.1782 35.9338) rotate(27.923)"/>
</clipPath>
<clipPath id="clip1_0_873">
<rect width="48.91" height="40.0708" fill="white" transform="translate(135.036 114.325) rotate(-62.1144)"/>
</clipPath>
</defs>
</svg>
