<svg width="30" height="32" viewBox="0 0 30 32" fill="none" xmlns="http://www.w3.org/2000/svg">
<path fill-rule="evenodd" clip-rule="evenodd" d="M16.2857 3.35718C16.2857 3.08104 16.0618 2.85718 15.7857 2.85718H14.2142C13.9381 2.85718 13.7142 3.08104 13.7142 3.35718V5.09232C11.8027 5.36823 10.0179 6.2543 8.63609 7.63607C6.94826 9.3239 6.00005 11.6131 6.00005 14V19.379L4.93955 20.4395C4.72983 20.6493 4.58702 20.9166 4.52917 21.2075C4.47132 21.4984 4.50102 21.8 4.61453 22.074C4.72803 22.3481 4.92024 22.5823 5.16686 22.7471C5.41347 22.912 5.70342 23 6.00005 23H24C24.2967 23 24.5866 22.912 24.8332 22.7471C25.0799 22.5823 25.2721 22.3481 25.3856 22.074C25.4991 21.8 25.5288 21.4984 25.4709 21.2075C25.4131 20.9166 25.2703 20.6493 25.0606 20.4395L24 19.379V14C24 11.6131 23.0518 9.3239 21.364 7.63607C19.9822 6.25425 18.1973 5.36817 16.2857 5.09229V3.35718ZM11.8181 27.682C12.662 28.5259 13.8066 29 15 29C16.1935 29 17.3381 28.5259 18.182 27.682C19.0259 26.8381 19.5 25.6935 19.5 24.5H10.5C10.5 25.6935 10.9742 26.8381 11.8181 27.682Z" fill="white"/>
<rect x="16" width="12" height="12" rx="6" fill="#FF0960"/>
<path d="M19.4642 9H24.2702V8.01H21.5342L23.3252 6.255C23.5832 6.015 23.7902 5.742 23.9462 5.436C24.1082 5.13 24.1892 4.812 24.1892 4.482C24.1892 4.272 24.1442 4.056 24.0542 3.834C23.9702 3.612 23.8382 3.408 23.6582 3.222C23.4842 3.036 23.2622 2.886 22.9922 2.772C22.7222 2.652 22.4042 2.592 22.0382 2.592C21.5582 2.592 21.1502 2.694 20.8142 2.898C20.4842 3.096 20.2322 3.372 20.0582 3.726C19.8902 4.074 19.8062 4.473 19.8062 4.923H20.8592C20.8592 4.647 20.9042 4.404 20.9942 4.194C21.0902 3.984 21.2252 3.825 21.3992 3.717C21.5732 3.603 21.7802 3.546 22.0202 3.546C22.1942 3.546 22.3472 3.576 22.4792 3.636C22.6112 3.69 22.7222 3.765 22.8122 3.861C22.9082 3.957 22.9772 4.065 23.0192 4.185C23.0672 4.299 23.0912 4.416 23.0912 4.536C23.0912 4.704 23.0642 4.863 23.0102 5.013C22.9562 5.163 22.8752 5.313 22.7672 5.463C22.6592 5.613 22.5302 5.769 22.3802 5.931L19.4642 9Z" fill="white"/>
</svg>
