<svg width="38" height="38" viewBox="0 0 38 38" fill="none" xmlns="http://www.w3.org/2000/svg">
<path fill-rule="evenodd" clip-rule="evenodd" d="M31.3052 12.8073C31.3159 13.0842 31.3195 13.361 31.3195 13.6379C31.3195 22.033 25.4139 31.7247 14.6146 31.7247C11.2973 31.7247 8.21263 30.6674 5.61365 28.8676C6.07306 28.9179 6.53964 28.9558 7.01338 28.9558C9.76391 28.9558 12.2973 27.9361 14.3068 26.2243C11.7376 26.1865 9.56822 24.3363 8.82003 21.819C9.17921 21.8946 9.5491 21.9324 9.92738 21.9324C10.4608 21.9324 10.9787 21.857 11.4751 21.706C8.78659 21.127 6.7616 18.5594 6.7616 15.4757C6.7616 15.438 6.7616 15.4253 6.7616 15.4001C7.55394 15.8658 8.46083 16.1552 9.42381 16.1929C7.84628 15.0476 6.8093 13.0967 6.8093 10.8941C6.8093 9.73615 7.09808 8.64108 7.60642 7.6971C10.5013 11.5485 14.8294 14.0785 19.7088 14.3428C19.6086 13.8771 19.5572 13.3863 19.5572 12.8955C19.5572 9.38384 22.186 6.53925 25.4294 6.53925C27.1179 6.53925 28.6429 7.30713 29.7133 8.5406C31.0534 8.2637 32.3087 7.7351 33.4447 7.00509C33.0044 8.49029 32.0748 9.73609 30.86 10.5164C32.0486 10.3654 33.1822 10.0258 34.2335 9.52238C33.4447 10.7936 32.4519 11.9136 31.3052 12.8073Z" fill="#1EA1F2"/>
</svg>
