<svg width="38" height="38" viewBox="0 0 38 38" fill="none" xmlns="http://www.w3.org/2000/svg">
<path d="M34.3709 10.9345C34.0011 9.56113 32.9183 8.4783 31.5449 8.10855C29.0359 7.42188 18.9999 7.42188 18.9999 7.42188C18.9999 7.42188 8.96394 7.42188 6.45494 8.08214C5.108 8.45188 3.99876 9.56113 3.62901 10.9345C2.96875 13.4435 2.96875 18.6463 2.96875 18.6463C2.96875 18.6463 2.96875 23.8756 3.62901 26.3582C3.99876 27.7316 5.08159 28.8144 6.45494 29.1841C8.99035 29.8708 18.9999 29.8708 18.9999 29.8708C18.9999 29.8708 29.0359 29.8708 31.5449 29.2105C32.9183 28.8408 34.0011 27.758 34.3709 26.3846C35.0311 23.8756 35.0311 18.6728 35.0311 18.6728C35.0311 18.6728 35.0575 13.4435 34.3709 10.9345Z" fill="#FF0000"/>
<path d="M15.8042 23.2697L24.1499 18.463L15.8042 13.6562V23.2697Z" fill="white"/>
</svg>
